<svg width="32" height="32" viewBox="0 0 32 32" fill="none" xmlns="http://www.w3.org/2000/svg">
<path d="M15.999 0C11.65 0 11.108 0.021 9.40598 0.093C7.69698 0.177 6.54098 0.442 5.52098 0.838C4.45344 1.24102 3.48664 1.87202 2.68798 2.687C1.87072 3.4838 1.23937 4.45113 0.838977 5.52C0.442977 6.54 0.177977 7.696 0.0939766 9.405C0.0169766 11.108 0.000976562 11.649 0.000976562 15.998C0.000976562 20.347 0.0219766 20.889 0.0939766 22.591C0.177977 24.295 0.442977 25.456 0.838977 26.476C1.242 27.5435 1.87299 28.5103 2.68798 29.309C3.48477 30.1263 4.45211 30.7576 5.52098 31.158C6.54098 31.549 7.70198 31.819 9.40598 31.903C11.109 31.98 11.65 31.996 15.999 31.996C20.348 31.996 20.89 31.975 22.592 31.903C24.296 31.819 25.457 31.548 26.477 31.158C27.5445 30.755 28.5113 30.124 29.31 29.309C30.1283 28.5131 30.7598 27.5455 31.159 26.476C31.55 25.456 31.82 24.295 31.904 22.591C31.981 20.888 31.997 20.347 31.997 15.998C31.997 11.649 31.976 11.107 31.904 9.405C31.82 7.701 31.549 6.534 31.159 5.52C30.756 4.45246 30.125 3.48566 29.31 2.687C28.514 1.86869 27.5465 1.23718 26.477 0.838C25.457 0.442 24.296 0.177 22.592 0.093C20.889 0.016 20.348 0 15.999 0ZM15.999 2.88C20.27 2.88 20.78 2.901 22.468 2.973C24.025 3.046 24.873 3.306 25.436 3.526C26.132 3.78292 26.762 4.19185 27.28 4.723C27.8102 5.23883 28.2176 5.86735 28.472 6.562C28.692 7.125 28.952 7.973 29.025 9.53C29.097 11.218 29.118 11.729 29.118 15.999C29.118 20.269 29.097 20.78 29.019 22.468C28.935 24.025 28.675 24.873 28.456 25.436C28.153 26.187 27.815 26.712 27.257 27.28C26.7372 27.8078 26.1077 28.2148 25.413 28.472C24.857 28.692 23.997 28.952 22.434 29.025C20.737 29.097 20.237 29.118 15.955 29.118C11.673 29.118 11.174 29.097 9.47498 29.019C7.91798 28.935 7.05898 28.675 6.49598 28.456C5.73598 28.153 5.21498 27.815 4.65698 27.257C4.09398 26.694 3.73598 26.158 3.45998 25.413C3.23598 24.857 2.97998 23.997 2.89698 22.434C2.83998 20.757 2.81298 20.237 2.81298 15.975C2.81298 11.715 2.83998 11.194 2.89698 9.496C2.97998 7.933 3.23598 7.075 3.45998 6.517C3.73598 5.756 4.09498 5.236 4.65698 4.673C5.21398 4.116 5.73598 3.756 6.49598 3.474C7.05898 3.255 7.89698 2.995 9.45998 2.917C11.157 2.856 11.657 2.834 15.933 2.834L15.999 2.88ZM15.999 7.787C14.9203 7.78661 13.8522 7.99877 12.8555 8.41137C11.8589 8.82398 10.9534 9.42893 10.1906 10.1917C9.4279 10.9544 8.82295 11.8599 8.41035 12.8566C7.99775 13.8532 7.78558 14.9213 7.78598 16C7.78558 17.0787 7.99775 18.1468 8.41035 19.1434C8.82295 20.1401 9.4279 21.0456 10.1906 21.8083C10.9534 22.5711 11.8589 23.176 12.8555 23.5886C13.8522 24.0012 14.9203 24.2134 15.999 24.213C17.0776 24.2134 18.1458 24.0012 19.1424 23.5886C20.139 23.176 21.0446 22.5711 21.8073 21.8083C22.57 21.0456 23.175 20.1401 23.5876 19.1434C24.0002 18.1468 24.2124 17.0787 24.212 16C24.2124 14.9213 24.0002 13.8532 23.5876 12.8566C23.175 11.8599 22.57 10.9544 21.8073 10.1917C21.0446 9.42893 20.139 8.82398 19.1424 8.41137C18.1458 7.99877 17.0776 7.78661 15.999 7.787ZM15.999 21.333C13.051 21.333 10.666 18.948 10.666 16C10.666 13.052 13.051 10.667 15.999 10.667C18.947 10.667 21.332 13.052 21.332 16C21.332 18.948 18.947 21.333 15.999 21.333ZM26.463 7.459C26.4624 7.96866 26.2596 8.45727 25.899 8.81747C25.5385 9.17767 25.0496 9.38 24.54 9.38C24.288 9.38 24.0384 9.33036 23.8056 9.23392C23.5728 9.13749 23.3612 8.99613 23.183 8.81794C23.0048 8.63974 22.8635 8.42819 22.767 8.19537C22.6706 7.96255 22.621 7.71301 22.621 7.461C22.621 7.20899 22.6706 6.95945 22.767 6.72663C22.8635 6.49381 23.0048 6.28226 23.183 6.10406C23.3612 5.92587 23.5728 5.78451 23.8056 5.68808C24.0384 5.59164 24.288 5.542 24.54 5.542C25.597 5.542 26.463 6.402 26.463 7.459Z" fill="#6E7C92"/>
</svg>
