<svg width="52" height="52" viewBox="0 0 52 52" fill="none" xmlns="http://www.w3.org/2000/svg">
<path d="M0.85 26.1295C0.85 39.9624 12.1672 51.2795 26 51.2795C39.8328 51.2795 51.15 39.9624 51.15 26.1295C51.15 13.2416 41.3264 2.53788 28.7974 1.13522C28.2219 1.07079 27.7327 1.52897 27.7327 2.10119C27.7327 2.61616 28.1289 3.03822 28.6338 3.09599C40.1565 4.41414 49.1833 14.2695 49.1833 26.1295C49.1833 38.88 38.7505 49.3128 26 49.3128C13.2495 49.3128 2.8167 38.88 2.8167 26.1295C2.8167 14.1957 11.9561 4.29176 23.5812 3.07241C24.1233 3.01555 24.537 2.5395 24.4877 1.98906C24.4401 1.45715 23.9729 1.05519 23.4358 1.11022C10.7957 2.40532 0.85 13.1618 0.85 26.1295Z" fill="#E37639" stroke="#E37639" stroke-width="0.3"/>
<mask id="path-2-outside-1" maskUnits="userSpaceOnUse" x="5" y="5.12955" width="42" height="42" fill="black">
<rect fill="white" x="5" y="5.12955" width="42" height="42"/>
<path d="M46 26.1296C46 24.5056 45.8024 22.9259 45.4326 21.4118C45.4292 21.3734 45.4243 21.3348 45.4166 21.2962C44.9999 19.6295 44.3333 17.9629 43.4999 16.4629C43.4783 16.4198 43.4524 16.3795 43.423 16.3424C41.7613 13.4045 39.3786 10.9227 36.519 9.14136C36.4652 9.07564 36.4031 9.01548 36.3331 8.96295C34.9167 8.04625 33.25 7.37955 31.5833 6.87955C31.5021 6.86334 31.4209 6.85689 31.3415 6.85963C29.6395 6.38472 27.8481 6.12955 26 6.12955C24.3761 6.12955 22.7964 6.32711 21.2822 6.69693C21.2438 6.70035 21.2053 6.70523 21.1667 6.71295C19.5 7.12955 17.8333 7.79625 16.3333 8.62955C16.2901 8.65113 16.25 8.67701 16.2128 8.7064C13.2037 10.4082 10.6725 12.866 8.88291 15.8181C8.86572 15.8379 8.84912 15.8584 8.8333 15.8795C7.9167 17.2962 7.25 18.9628 6.75 20.6295C6.73945 20.6821 6.73301 20.7345 6.73047 20.7866C6.25527 22.4891 6 24.2808 6 26.1296C6 27.7535 6.19756 29.3332 6.56738 30.8473C6.5708 30.8857 6.57568 30.9243 6.5834 30.9629C7.0001 32.6296 7.6667 34.2962 8.5001 35.7962C8.52168 35.8393 8.54756 35.8795 8.57695 35.9167C10.2088 38.802 12.5358 41.2476 15.3272 43.0216C15.3935 43.1257 15.4804 43.2189 15.5834 43.2962C17.0001 44.2129 18.6667 44.8795 20.3334 45.3795C20.4377 45.4004 20.5421 45.4055 20.6425 45.395C22.3493 45.8728 24.1461 46.1295 26.0001 46.1295C33.148 46.1295 39.4501 42.3285 42.9884 36.6487C43.0541 36.5949 43.1143 36.5328 43.1668 36.4628C44.0835 35.0461 44.7501 33.3795 45.2501 31.7128C45.2663 31.6315 45.2728 31.5504 45.27 31.471C45.7448 29.769 46 27.9777 46 26.1296ZM42.018 35.0177L37.5 33.0462C36.1667 32.4629 34.6667 32.7129 33.75 33.7129C33.5 33.8796 33.3333 34.0462 33.1667 34.2129C32.1667 35.0462 31.8334 36.5463 32.3334 37.8797L34.1667 42.4629C33.1667 42.963 32.1667 43.3796 31.0834 43.7129L29.25 39.1296C28.75 37.7962 27.5 36.9629 26 36.9629C25.8333 36.9629 25.5833 36.9629 25.4167 37.0462C24 36.9629 22.75 37.7962 22.1667 39.0462L20.1825 43.5105C19.1119 43.1495 18.0852 42.6912 17.1119 42.1474L19.0834 37.6295C19.6667 36.2962 19.4167 34.7962 18.4167 33.8795C18.25 33.7128 18.0834 33.5462 17.9167 33.3795C17.0834 32.3795 15.5834 32.0462 14.25 32.5462L9.6667 34.3796C9.1667 33.3796 8.75 32.3796 8.4167 31.2962L13 29.4629C14.3333 28.9629 15.1667 27.7129 15.1667 26.2129C15.1667 26.0462 15.1667 25.7962 15.1667 25.6296C15.25 24.2129 14.4167 22.9629 13.1667 22.3796L8.6667 20.3796C9 19.2963 9.5 18.2963 10 17.2963L14.5833 19.2963C15.9166 19.8796 17.4166 19.6296 18.3333 18.6296C18.5833 18.4629 18.75 18.2963 18.9166 18.1296C19.9166 17.2963 20.2499 15.7963 19.7499 14.4629L17.9166 9.79625C18.9166 9.29625 19.9166 8.87955 20.9999 8.54625L22.8332 13.1295C23.3332 14.4628 24.5832 15.2962 26.0832 15.2962C26.2499 15.2129 26.4999 15.2962 26.6665 15.2962C27.9998 15.3795 29.3332 14.5462 29.9165 13.2962L31.9165 8.79625C32.1326 8.86275 32.3446 8.93736 32.5548 9.01578C33.3958 9.34039 34.2073 9.72535 34.9842 10.1655L32.9999 14.7128C32.4166 16.0462 32.6666 17.5462 33.6666 18.4628L34.1666 18.9629C34.9999 19.9629 36.4999 20.2962 37.8333 19.7962L42.4029 17.9683C42.8972 18.9544 43.3056 19.9901 43.617 21.0661L39.0833 22.8796C37.75 23.3796 36.9166 24.6296 36.9166 26.1296V26.7129C36.8333 28.1296 37.6666 29.3796 38.9166 29.9629L43.381 31.947C43.02 33.0176 42.5617 34.0444 42.018 35.0177ZM7.6667 26.1296C7.6667 24.7187 7.82842 23.3438 8.13389 22.0224L12.5 23.9629C13.0833 24.2129 13.5 24.8796 13.5 25.5462V26.2129C13.5 26.9629 13.0833 27.6296 12.4167 27.8796L8.00078 29.6046C7.78242 28.4785 7.6667 27.317 7.6667 26.1296ZM39.5 28.3796C38.9167 28.0463 38.5 27.3795 38.5 26.7129C38.5 26.4629 38.5 26.2962 38.5 26.0462C38.5 25.2962 38.9167 24.6295 39.5833 24.3795L43.9992 22.6545C44.2176 23.7805 44.3333 24.942 44.3333 26.1295C44.3333 27.5671 44.1649 28.9674 43.8481 30.312L39.5 28.3796ZM41.575 16.4909L37.1666 18.2128C36.4999 18.4628 35.7499 18.2962 35.3333 17.7962C35.1666 17.6295 34.9166 17.3795 34.75 17.2128C34.25 16.7128 34.1667 15.9628 34.4167 15.2962L36.2724 10.9663C38.4011 12.416 40.2118 14.3013 41.575 16.4909ZM30.1825 8.2814L28.25 12.6295C27.9167 13.2128 27.25 13.7128 26.5833 13.6295C26.4166 13.6295 26.1666 13.6295 25.9166 13.6295C25.1666 13.6295 24.4999 13.2128 24.2499 12.5462L22.5249 8.13033C23.651 7.91197 24.8125 7.79625 25.9999 7.79625C27.4377 7.79625 28.838 7.96451 30.1825 8.2814ZM16.3524 10.56L18.0833 15.1295C18.3333 15.7962 18.1666 16.5462 17.6666 16.9628C17.4999 17.1295 17.2499 17.3795 17.0833 17.5462C16.5833 18.0462 15.8333 18.1295 15.1666 17.8795L10.7856 15.9324C12.2401 13.774 14.1409 11.9387 16.3524 10.56ZM10.425 35.7682L14.8334 34.0462C15.5001 33.7962 16.2501 33.9629 16.6667 34.4629L17.25 35.0462C17.75 35.5462 17.8333 36.2962 17.5833 36.9629L15.6751 41.2563C13.5692 39.8115 11.777 37.9397 10.425 35.7682ZM21.7424 43.9592L23.6667 39.6296C24 39.0462 24.6667 38.6296 25.3334 38.6296H26.0001C26.8334 38.6296 27.4168 39.0462 27.7501 39.7128L29.4751 44.1288C28.349 44.3471 27.1875 44.4629 26.0001 44.4629C24.5355 44.4629 23.11 44.2878 21.7424 43.9592ZM35.5717 41.7465L33.8333 37.2962C33.5833 36.6295 33.75 35.8796 34.25 35.4629C34.5 35.2962 34.75 35.0463 34.9167 34.8797C35.4167 34.3797 36.1667 34.2963 36.8334 34.5463L41.1633 36.402C39.6988 38.5524 37.7899 40.3786 35.5717 41.7465Z"/>
</mask>
<path d="M46 26.1296C46 24.5056 45.8024 22.9259 45.4326 21.4118C45.4292 21.3734 45.4243 21.3348 45.4166 21.2962C44.9999 19.6295 44.3333 17.9629 43.4999 16.4629C43.4783 16.4198 43.4524 16.3795 43.423 16.3424C41.7613 13.4045 39.3786 10.9227 36.519 9.14136C36.4652 9.07564 36.4031 9.01548 36.3331 8.96295C34.9167 8.04625 33.25 7.37955 31.5833 6.87955C31.5021 6.86334 31.4209 6.85689 31.3415 6.85963C29.6395 6.38472 27.8481 6.12955 26 6.12955C24.3761 6.12955 22.7964 6.32711 21.2822 6.69693C21.2438 6.70035 21.2053 6.70523 21.1667 6.71295C19.5 7.12955 17.8333 7.79625 16.3333 8.62955C16.2901 8.65113 16.25 8.67701 16.2128 8.7064C13.2037 10.4082 10.6725 12.866 8.88291 15.8181C8.86572 15.8379 8.84912 15.8584 8.8333 15.8795C7.9167 17.2962 7.25 18.9628 6.75 20.6295C6.73945 20.6821 6.73301 20.7345 6.73047 20.7866C6.25527 22.4891 6 24.2808 6 26.1296C6 27.7535 6.19756 29.3332 6.56738 30.8473C6.5708 30.8857 6.57568 30.9243 6.5834 30.9629C7.0001 32.6296 7.6667 34.2962 8.5001 35.7962C8.52168 35.8393 8.54756 35.8795 8.57695 35.9167C10.2088 38.802 12.5358 41.2476 15.3272 43.0216C15.3935 43.1257 15.4804 43.2189 15.5834 43.2962C17.0001 44.2129 18.6667 44.8795 20.3334 45.3795C20.4377 45.4004 20.5421 45.4055 20.6425 45.395C22.3493 45.8728 24.1461 46.1295 26.0001 46.1295C33.148 46.1295 39.4501 42.3285 42.9884 36.6487C43.0541 36.5949 43.1143 36.5328 43.1668 36.4628C44.0835 35.0461 44.7501 33.3795 45.2501 31.7128C45.2663 31.6315 45.2728 31.5504 45.27 31.471C45.7448 29.769 46 27.9777 46 26.1296ZM42.018 35.0177L37.5 33.0462C36.1667 32.4629 34.6667 32.7129 33.75 33.7129C33.5 33.8796 33.3333 34.0462 33.1667 34.2129C32.1667 35.0462 31.8334 36.5463 32.3334 37.8797L34.1667 42.4629C33.1667 42.963 32.1667 43.3796 31.0834 43.7129L29.25 39.1296C28.75 37.7962 27.5 36.9629 26 36.9629C25.8333 36.9629 25.5833 36.9629 25.4167 37.0462C24 36.9629 22.75 37.7962 22.1667 39.0462L20.1825 43.5105C19.1119 43.1495 18.0852 42.6912 17.1119 42.1474L19.0834 37.6295C19.6667 36.2962 19.4167 34.7962 18.4167 33.8795C18.25 33.7128 18.0834 33.5462 17.9167 33.3795C17.0834 32.3795 15.5834 32.0462 14.25 32.5462L9.6667 34.3796C9.1667 33.3796 8.75 32.3796 8.4167 31.2962L13 29.4629C14.3333 28.9629 15.1667 27.7129 15.1667 26.2129C15.1667 26.0462 15.1667 25.7962 15.1667 25.6296C15.25 24.2129 14.4167 22.9629 13.1667 22.3796L8.6667 20.3796C9 19.2963 9.5 18.2963 10 17.2963L14.5833 19.2963C15.9166 19.8796 17.4166 19.6296 18.3333 18.6296C18.5833 18.4629 18.75 18.2963 18.9166 18.1296C19.9166 17.2963 20.2499 15.7963 19.7499 14.4629L17.9166 9.79625C18.9166 9.29625 19.9166 8.87955 20.9999 8.54625L22.8332 13.1295C23.3332 14.4628 24.5832 15.2962 26.0832 15.2962C26.2499 15.2129 26.4999 15.2962 26.6665 15.2962C27.9998 15.3795 29.3332 14.5462 29.9165 13.2962L31.9165 8.79625C32.1326 8.86275 32.3446 8.93736 32.5548 9.01578C33.3958 9.34039 34.2073 9.72535 34.9842 10.1655L32.9999 14.7128C32.4166 16.0462 32.6666 17.5462 33.6666 18.4628L34.1666 18.9629C34.9999 19.9629 36.4999 20.2962 37.8333 19.7962L42.4029 17.9683C42.8972 18.9544 43.3056 19.9901 43.617 21.0661L39.0833 22.8796C37.75 23.3796 36.9166 24.6296 36.9166 26.1296V26.7129C36.8333 28.1296 37.6666 29.3796 38.9166 29.9629L43.381 31.947C43.02 33.0176 42.5617 34.0444 42.018 35.0177ZM7.6667 26.1296C7.6667 24.7187 7.82842 23.3438 8.13389 22.0224L12.5 23.9629C13.0833 24.2129 13.5 24.8796 13.5 25.5462V26.2129C13.5 26.9629 13.0833 27.6296 12.4167 27.8796L8.00078 29.6046C7.78242 28.4785 7.6667 27.317 7.6667 26.1296ZM39.5 28.3796C38.9167 28.0463 38.5 27.3795 38.5 26.7129C38.5 26.4629 38.5 26.2962 38.5 26.0462C38.5 25.2962 38.9167 24.6295 39.5833 24.3795L43.9992 22.6545C44.2176 23.7805 44.3333 24.942 44.3333 26.1295C44.3333 27.5671 44.1649 28.9674 43.8481 30.312L39.5 28.3796ZM41.575 16.4909L37.1666 18.2128C36.4999 18.4628 35.7499 18.2962 35.3333 17.7962C35.1666 17.6295 34.9166 17.3795 34.75 17.2128C34.25 16.7128 34.1667 15.9628 34.4167 15.2962L36.2724 10.9663C38.4011 12.416 40.2118 14.3013 41.575 16.4909ZM30.1825 8.2814L28.25 12.6295C27.9167 13.2128 27.25 13.7128 26.5833 13.6295C26.4166 13.6295 26.1666 13.6295 25.9166 13.6295C25.1666 13.6295 24.4999 13.2128 24.2499 12.5462L22.5249 8.13033C23.651 7.91197 24.8125 7.79625 25.9999 7.79625C27.4377 7.79625 28.838 7.96451 30.1825 8.2814ZM16.3524 10.56L18.0833 15.1295C18.3333 15.7962 18.1666 16.5462 17.6666 16.9628C17.4999 17.1295 17.2499 17.3795 17.0833 17.5462C16.5833 18.0462 15.8333 18.1295 15.1666 17.8795L10.7856 15.9324C12.2401 13.774 14.1409 11.9387 16.3524 10.56ZM10.425 35.7682L14.8334 34.0462C15.5001 33.7962 16.2501 33.9629 16.6667 34.4629L17.25 35.0462C17.75 35.5462 17.8333 36.2962 17.5833 36.9629L15.6751 41.2563C13.5692 39.8115 11.777 37.9397 10.425 35.7682ZM21.7424 43.9592L23.6667 39.6296C24 39.0462 24.6667 38.6296 25.3334 38.6296H26.0001C26.8334 38.6296 27.4168 39.0462 27.7501 39.7128L29.4751 44.1288C28.349 44.3471 27.1875 44.4629 26.0001 44.4629C24.5355 44.4629 23.11 44.2878 21.7424 43.9592ZM35.5717 41.7465L33.8333 37.2962C33.5833 36.6295 33.75 35.8796 34.25 35.4629C34.5 35.2962 34.75 35.0463 34.9167 34.8797C35.4167 34.3797 36.1667 34.2963 36.8334 34.5463L41.1633 36.402C39.6988 38.5524 37.7899 40.3786 35.5717 41.7465Z" fill="#E37639"/>
<path d="M46 26.1296C46 24.5056 45.8024 22.9259 45.4326 21.4118C45.4292 21.3734 45.4243 21.3348 45.4166 21.2962C44.9999 19.6295 44.3333 17.9629 43.4999 16.4629C43.4783 16.4198 43.4524 16.3795 43.423 16.3424C41.7613 13.4045 39.3786 10.9227 36.519 9.14136C36.4652 9.07564 36.4031 9.01548 36.3331 8.96295C34.9167 8.04625 33.25 7.37955 31.5833 6.87955C31.5021 6.86334 31.4209 6.85689 31.3415 6.85963C29.6395 6.38472 27.8481 6.12955 26 6.12955C24.3761 6.12955 22.7964 6.32711 21.2822 6.69693C21.2438 6.70035 21.2053 6.70523 21.1667 6.71295C19.5 7.12955 17.8333 7.79625 16.3333 8.62955C16.2901 8.65113 16.25 8.67701 16.2128 8.7064C13.2037 10.4082 10.6725 12.866 8.88291 15.8181C8.86572 15.8379 8.84912 15.8584 8.8333 15.8795C7.9167 17.2962 7.25 18.9628 6.75 20.6295C6.73945 20.6821 6.73301 20.7345 6.73047 20.7866C6.25527 22.4891 6 24.2808 6 26.1296C6 27.7535 6.19756 29.3332 6.56738 30.8473C6.5708 30.8857 6.57568 30.9243 6.5834 30.9629C7.0001 32.6296 7.6667 34.2962 8.5001 35.7962C8.52168 35.8393 8.54756 35.8795 8.57695 35.9167C10.2088 38.802 12.5358 41.2476 15.3272 43.0216C15.3935 43.1257 15.4804 43.2189 15.5834 43.2962C17.0001 44.2129 18.6667 44.8795 20.3334 45.3795C20.4377 45.4004 20.5421 45.4055 20.6425 45.395C22.3493 45.8728 24.1461 46.1295 26.0001 46.1295C33.148 46.1295 39.4501 42.3285 42.9884 36.6487C43.0541 36.5949 43.1143 36.5328 43.1668 36.4628C44.0835 35.0461 44.7501 33.3795 45.2501 31.7128C45.2663 31.6315 45.2728 31.5504 45.27 31.471C45.7448 29.769 46 27.9777 46 26.1296ZM42.018 35.0177L37.5 33.0462C36.1667 32.4629 34.6667 32.7129 33.75 33.7129C33.5 33.8796 33.3333 34.0462 33.1667 34.2129C32.1667 35.0462 31.8334 36.5463 32.3334 37.8797L34.1667 42.4629C33.1667 42.963 32.1667 43.3796 31.0834 43.7129L29.25 39.1296C28.75 37.7962 27.5 36.9629 26 36.9629C25.8333 36.9629 25.5833 36.9629 25.4167 37.0462C24 36.9629 22.75 37.7962 22.1667 39.0462L20.1825 43.5105C19.1119 43.1495 18.0852 42.6912 17.1119 42.1474L19.0834 37.6295C19.6667 36.2962 19.4167 34.7962 18.4167 33.8795C18.25 33.7128 18.0834 33.5462 17.9167 33.3795C17.0834 32.3795 15.5834 32.0462 14.25 32.5462L9.6667 34.3796C9.1667 33.3796 8.75 32.3796 8.4167 31.2962L13 29.4629C14.3333 28.9629 15.1667 27.7129 15.1667 26.2129C15.1667 26.0462 15.1667 25.7962 15.1667 25.6296C15.25 24.2129 14.4167 22.9629 13.1667 22.3796L8.6667 20.3796C9 19.2963 9.5 18.2963 10 17.2963L14.5833 19.2963C15.9166 19.8796 17.4166 19.6296 18.3333 18.6296C18.5833 18.4629 18.75 18.2963 18.9166 18.1296C19.9166 17.2963 20.2499 15.7963 19.7499 14.4629L17.9166 9.79625C18.9166 9.29625 19.9166 8.87955 20.9999 8.54625L22.8332 13.1295C23.3332 14.4628 24.5832 15.2962 26.0832 15.2962C26.2499 15.2129 26.4999 15.2962 26.6665 15.2962C27.9998 15.3795 29.3332 14.5462 29.9165 13.2962L31.9165 8.79625C32.1326 8.86275 32.3446 8.93736 32.5548 9.01578C33.3958 9.34039 34.2073 9.72535 34.9842 10.1655L32.9999 14.7128C32.4166 16.0462 32.6666 17.5462 33.6666 18.4628L34.1666 18.9629C34.9999 19.9629 36.4999 20.2962 37.8333 19.7962L42.4029 17.9683C42.8972 18.9544 43.3056 19.9901 43.617 21.0661L39.0833 22.8796C37.75 23.3796 36.9166 24.6296 36.9166 26.1296V26.7129C36.8333 28.1296 37.6666 29.3796 38.9166 29.9629L43.381 31.947C43.02 33.0176 42.5617 34.0444 42.018 35.0177ZM7.6667 26.1296C7.6667 24.7187 7.82842 23.3438 8.13389 22.0224L12.5 23.9629C13.0833 24.2129 13.5 24.8796 13.5 25.5462V26.2129C13.5 26.9629 13.0833 27.6296 12.4167 27.8796L8.00078 29.6046C7.78242 28.4785 7.6667 27.317 7.6667 26.1296ZM39.5 28.3796C38.9167 28.0463 38.5 27.3795 38.5 26.7129C38.5 26.4629 38.5 26.2962 38.5 26.0462C38.5 25.2962 38.9167 24.6295 39.5833 24.3795L43.9992 22.6545C44.2176 23.7805 44.3333 24.942 44.3333 26.1295C44.3333 27.5671 44.1649 28.9674 43.8481 30.312L39.5 28.3796ZM41.575 16.4909L37.1666 18.2128C36.4999 18.4628 35.7499 18.2962 35.3333 17.7962C35.1666 17.6295 34.9166 17.3795 34.75 17.2128C34.25 16.7128 34.1667 15.9628 34.4167 15.2962L36.2724 10.9663C38.4011 12.416 40.2118 14.3013 41.575 16.4909ZM30.1825 8.2814L28.25 12.6295C27.9167 13.2128 27.25 13.7128 26.5833 13.6295C26.4166 13.6295 26.1666 13.6295 25.9166 13.6295C25.1666 13.6295 24.4999 13.2128 24.2499 12.5462L22.5249 8.13033C23.651 7.91197 24.8125 7.79625 25.9999 7.79625C27.4377 7.79625 28.838 7.96451 30.1825 8.2814ZM16.3524 10.56L18.0833 15.1295C18.3333 15.7962 18.1666 16.5462 17.6666 16.9628C17.4999 17.1295 17.2499 17.3795 17.0833 17.5462C16.5833 18.0462 15.8333 18.1295 15.1666 17.8795L10.7856 15.9324C12.2401 13.774 14.1409 11.9387 16.3524 10.56ZM10.425 35.7682L14.8334 34.0462C15.5001 33.7962 16.2501 33.9629 16.6667 34.4629L17.25 35.0462C17.75 35.5462 17.8333 36.2962 17.5833 36.9629L15.6751 41.2563C13.5692 39.8115 11.777 37.9397 10.425 35.7682ZM21.7424 43.9592L23.6667 39.6296C24 39.0462 24.6667 38.6296 25.3334 38.6296H26.0001C26.8334 38.6296 27.4168 39.0462 27.7501 39.7128L29.4751 44.1288C28.349 44.3471 27.1875 44.4629 26.0001 44.4629C24.5355 44.4629 23.11 44.2878 21.7424 43.9592ZM35.5717 41.7465L33.8333 37.2962C33.5833 36.6295 33.75 35.8796 34.25 35.4629C34.5 35.2962 34.75 35.0463 34.9167 34.8797C35.4167 34.3797 36.1667 34.2963 36.8334 34.5463L41.1633 36.402C39.6988 38.5524 37.7899 40.3786 35.5717 41.7465Z" stroke="#E37639" stroke-width="0.6" mask="url(#path-2-outside-1)"/>
<path d="M22.5 28.0499C23.3711 28.0499 24.0796 28.7589 24.0796 29.6291C24.0796 30.5002 23.3711 31.2092 22.5 31.2092C21.629 31.2092 20.9205 30.5002 20.9205 29.6291C20.9205 28.7589 21.6289 28.0499 22.5 28.0499ZM22.5 32.3795C24.0174 32.3795 25.25 31.1453 25.25 29.6291C25.25 28.1137 24.0173 26.8795 22.5 26.8795C20.9827 26.8795 19.75 28.1137 19.75 29.6291C19.75 31.1453 20.9827 32.3795 22.5 32.3795Z" fill="#E37639" stroke="#E37639" stroke-width="0.5"/>
<path d="M29.5 28.0499C30.3711 28.0499 31.0796 28.7589 31.0796 29.6291C31.0796 30.5002 30.3711 31.2092 29.5 31.2092C28.629 31.2092 27.9205 30.5002 27.9205 29.6291C27.9205 28.7589 28.6289 28.0499 29.5 28.0499ZM29.5 32.3795C31.0174 32.3795 32.25 31.1453 32.25 29.6291C32.25 28.1137 31.0173 26.8795 29.5 26.8795C27.9827 26.8795 26.75 28.1137 26.75 29.6291C26.75 31.1453 27.9827 32.3795 29.5 32.3795Z" fill="#E37639" stroke="#E37639" stroke-width="0.5"/>
<path d="M22.5 21.0499C23.3711 21.0499 24.0795 21.7589 24.0795 22.6291C24.0795 23.5002 23.371 24.2092 22.5 24.2092C21.629 24.2092 20.9205 23.5002 20.9205 22.6291C20.9205 21.7589 21.6289 21.0499 22.5 21.0499ZM22.5 25.3795C24.0174 25.3795 25.25 24.1453 25.25 22.6291C25.25 21.1137 24.0173 19.8795 22.5 19.8795C20.9827 19.8795 19.75 21.1137 19.75 22.6291C19.75 24.1453 20.9826 25.3795 22.5 25.3795Z" fill="#E37639" stroke="#E37639" stroke-width="0.5"/>
<path d="M29.5 21.0499C30.3711 21.0499 31.0795 21.7589 31.0795 22.6291C31.0795 23.5002 30.371 24.2092 29.5 24.2092C28.629 24.2092 27.9205 23.5002 27.9205 22.6291C27.9205 21.7589 28.6289 21.0499 29.5 21.0499ZM29.5 25.3795C31.0174 25.3795 32.25 24.1453 32.25 22.6291C32.25 21.1137 31.0173 19.8795 29.5 19.8795C27.9827 19.8795 26.75 21.1137 26.75 22.6291C26.75 24.1453 27.9826 25.3795 29.5 25.3795Z" fill="#E37639" stroke="#E37639" stroke-width="0.5"/>
</svg>
