<svg width="42" height="48" viewBox="0 0 42 48" fill="none" xmlns="http://www.w3.org/2000/svg">
<g clip-path="url(#clip0)">
<path d="M13.3656 33.9844C12.8728 33.9844 12.4785 33.5902 12.4785 33.0973V14.8238C12.4785 14.4493 12.7151 14.1142 13.0699 13.9959L21.7631 10.9208C22.2362 10.7631 22.729 10.9996 22.8867 11.453C23.0444 11.9064 22.8079 12.4189 22.3545 12.5766L14.2526 15.4546V33.0973C14.2526 33.5902 13.8584 33.9844 13.3656 33.9844Z" fill="#E37639"/>
<path d="M30.6725 38.2423C30.1797 38.2423 29.7855 37.8481 29.7855 37.3552V15.4546L21.6836 12.5963C21.2302 12.4386 20.974 11.9261 21.1514 11.4727C21.3091 11.0193 21.8216 10.763 22.275 10.9405L30.9682 14.0156C31.323 14.1339 31.5596 14.469 31.5596 14.8435V37.3947C31.5596 37.8481 31.1456 38.2423 30.6725 38.2423Z" fill="#E37639"/>
<path d="M22.019 10.3885C19.4564 10.3885 16.7163 9.54087 16.7163 7.68789C16.7163 5.83491 19.4761 4.98727 22.019 4.98727C24.5816 4.98727 27.3216 5.83491 27.3216 7.68789C27.3216 9.54087 24.5619 10.3885 22.019 10.3885ZM22.019 6.7614C19.7915 6.7614 18.589 7.45134 18.4707 7.72732C18.5693 7.92444 19.7915 8.61438 22.019 8.61438C24.1479 8.61438 25.3504 7.98358 25.5475 7.68789C25.3504 7.3922 24.1479 6.7614 22.019 6.7614Z" fill="#E37639"/>
<path d="M22.0189 39.7799C21.5261 39.7799 21.1318 39.3856 21.1318 38.8928V14.3901C21.1318 13.8973 21.5261 13.5031 22.0189 13.5031C22.5117 13.5031 22.906 13.8973 22.906 14.3901V38.8928C22.906 39.3856 22.5117 39.7799 22.0189 39.7799Z" fill="#E37639"/>
<path d="M25.2323 23.6747C24.7395 23.6747 24.3452 23.2805 24.3452 22.7877V18.3129C24.3452 17.8201 24.7395 17.4259 25.2323 17.4259C25.7251 17.4259 26.1193 17.8201 26.1193 18.3129V22.7877C26.1193 23.2805 25.7251 23.6747 25.2323 23.6747Z" fill="#E37639"/>
<path d="M25.2323 34.083C24.7395 34.083 24.3452 33.6887 24.3452 33.1959V28.7212C24.3452 28.2283 24.7395 27.8341 25.2323 27.8341C25.7251 27.8341 26.1193 28.2283 26.1193 28.7212V33.1959C26.1193 33.6887 25.7251 34.083 25.2323 34.083Z" fill="#E37639"/>
<path d="M27.992 21.6838C27.4992 21.6838 27.105 21.2895 27.105 20.7967V16.9922C27.105 16.4994 27.4992 16.1051 27.992 16.1051C28.4849 16.1051 28.8791 16.4994 28.8791 16.9922V20.7967C28.8791 21.2895 28.4849 21.6838 27.992 21.6838Z" fill="#E37639"/>
<path d="M27.992 28.8591C27.4992 28.8591 27.105 28.4649 27.105 27.9721V23.4973C27.105 23.0045 27.4992 22.6103 27.992 22.6103C28.4849 22.6103 28.8791 23.0045 28.8791 23.4973V27.9721C28.8791 28.4649 28.4849 28.8591 27.992 28.8591Z" fill="#E37639"/>
<path d="M22.0189 4.59302C21.5261 4.59302 21.1318 4.19877 21.1318 3.70596V0.887064C21.1318 0.394251 21.5261 0 22.0189 0C22.5117 0 22.906 0.394251 22.906 0.887064V3.70596C22.906 4.19877 22.5117 4.59302 22.0189 4.59302Z" fill="#E37639"/>
<path d="M35.2068 42.9339C35.1674 42.9339 35.1083 42.9339 35.0689 42.9142C34.576 42.8353 34.2606 42.3819 34.3395 41.8891L34.9111 38.3803L17.4656 41.0415C16.9925 41.1203 16.5391 40.7852 16.4602 40.2924C16.3814 39.7996 16.7165 39.3462 17.2093 39.2871L35.8574 36.4485C36.153 36.409 36.429 36.5076 36.6261 36.7047C36.8233 36.9019 36.9218 37.1975 36.8627 37.4735L36.0939 42.1848C36.015 42.6382 35.6208 42.9339 35.2068 42.9339Z" fill="#E37639"/>
<path d="M8.55547 42.5988C8.08237 42.5988 7.68812 42.2242 7.66841 41.7511L7.41214 36.8033C7.39243 36.547 7.49099 36.2908 7.68812 36.1133C7.88524 35.9359 8.14151 35.8571 8.37806 35.8768L18.2146 36.8624C18.7074 36.9018 19.0622 37.3552 19.0031 37.8283C18.944 38.3212 18.5103 38.676 18.0372 38.6168L9.2257 37.7298L9.42282 41.6329C9.44253 42.1257 9.068 42.5396 8.57518 42.5593H8.55547" fill="#E37639"/>
<path d="M40.3321 44.0772H40.2927L11.946 42.8944C11.4532 42.8747 11.0787 42.4608 11.0984 41.968C11.1181 41.4751 11.5321 41.1006 12.0249 41.1203L40.3912 42.2834C40.884 42.3031 41.2586 42.717 41.2389 43.2098C41.1994 43.7027 40.8052 44.0772 40.3321 44.0772Z" fill="#E37639"/>
<path d="M30.6724 48C30.633 48 30.6133 48 30.5739 48L0.788228 44.7671C0.295415 44.708 -0.0396982 44.2743 -0.000273106 43.8012C0.0588645 43.3084 0.49254 42.9536 0.985353 43.0127L30.771 46.2456C31.2638 46.3047 31.6186 46.7384 31.5595 47.2312C31.5003 47.6649 31.1258 48 30.6724 48Z" fill="#E37639"/>
</g>
<defs>
<clipPath id="clip0">
<rect width="41.2189" height="48" fill="white"/>
</clipPath>
</defs>
</svg>
