<svg width="49" height="45" viewBox="0 0 49 45" fill="none" xmlns="http://www.w3.org/2000/svg">
<path d="M8.6742 44.6113C8.03208 44.6113 7.65008 44.33 7.44151 44.0957C7.09701 43.702 6.67987 42.8091 7.76492 41.2155C10.1858 37.6698 11.0248 35.7856 12.6394 31.6891C12.8527 31.1477 13.4644 30.8829 14.0034 31.0938C14.5447 31.3071 14.8119 31.9188 14.601 32.4578C13.0074 36.505 12.0934 38.5697 9.73347 42.0709C13.7198 39.9805 17.0804 37.8104 19.7262 35.6051C19.9559 35.4129 20.2512 35.3262 20.5465 35.3708C21.9432 35.5653 23.2345 35.659 24.5 35.659C36.5715 35.659 46.3908 28.1316 46.3908 18.8841C46.3908 9.63187 36.5715 2.10448 24.5 2.10448C12.4285 2.10448 2.60917 9.63187 2.60917 18.8841C2.60917 23.5618 5.21516 28.0707 9.75925 31.2509C10.235 31.586 10.3498 32.2422 10.017 32.7156C9.68426 33.1936 9.02807 33.3108 8.55 32.978C3.43643 29.3971 0.5 24.2601 0.5 18.8841C0.5 8.46714 11.2661 0 24.5 0C37.7339 0 48.5 8.46714 48.5 18.8841C48.5 29.2964 37.7339 37.7682 24.5 37.7682C23.279 37.7682 22.0346 37.6862 20.7176 37.5174C17.9358 39.7813 14.4557 41.9959 10.3662 44.1168C9.66317 44.48 9.10775 44.6113 8.6742 44.6113Z" fill="#E37639"/>
<path d="M31.211 29.908H21.1433C19.2544 29.908 18.4459 29.0667 17.9092 28.5112C17.5249 28.1082 17.4077 28.0027 17.0093 28.0027H14.3236C13.7494 28.0027 13.2784 27.541 13.2714 26.9645L13.0956 15.5281C13.0909 15.2469 13.2034 14.9751 13.3979 14.7712C13.5971 14.572 13.869 14.4571 14.1502 14.4571H18.5162C18.6779 14.3751 19.4395 13.651 19.9949 12.9503L20.5902 12.2917C21.8158 10.9442 22.6267 10.056 22.6267 8.4132V7.57656C22.6267 6.72587 23.1259 6.02984 23.9297 5.75565C24.9374 5.40881 26.1162 5.81658 26.8521 6.76805C27.8035 7.9984 28.2301 8.92174 28.2301 11.1387C28.2301 12.6292 27.8856 13.5502 27.6817 14.1009C27.6418 14.2111 27.6043 14.3001 27.5856 14.3751L27.595 16.8053C27.595 20.1331 25.5749 23.0415 22.4533 24.2109C21.9166 24.4148 21.3003 24.1406 21.0987 23.5945C20.8925 23.0485 21.169 22.4415 21.7151 22.2376C24.0047 21.3799 25.4881 19.2473 25.4881 16.8053V14.2861C25.4881 13.9603 25.5959 13.6721 25.7084 13.3674C25.8819 12.8964 26.1232 12.2495 26.1232 11.1387C26.1232 9.43263 25.8654 8.93815 25.1858 8.05699C25.0265 7.8531 24.853 7.77342 24.7335 7.74998V8.4132C24.7335 10.8716 23.4774 12.2495 22.1463 13.7096L21.6096 14.3048C20.8128 15.3125 19.5918 16.564 18.5162 16.564H15.2188L15.3641 25.8959H17.0093C18.3217 25.8959 18.9638 26.5638 19.4301 27.0512C19.866 27.5012 20.1496 27.8012 21.1433 27.8012H31.211C31.5579 27.8012 32.1601 27.2082 32.1601 26.8708C32.1601 26.8122 32.1625 26.7536 32.1742 26.695L33.5053 18.7552C33.5967 18.2068 33.4444 17.6514 33.0882 17.2295C32.7273 16.81 32.207 16.564 31.6516 16.564H30.0229C29.4417 16.564 28.9683 16.0929 28.9683 15.5141C28.9683 14.9305 29.4417 14.4571 30.0229 14.4571H31.6516C32.828 14.4571 33.9365 14.9727 34.6935 15.8703C35.4528 16.7679 35.7762 17.9443 35.584 19.1043L34.2623 26.9715C34.1967 28.4409 32.6874 29.908 31.211 29.908Z" fill="#E37639"/>
</svg>
