<svg width="50" height="48" viewBox="0 0 50 48" fill="none" xmlns="http://www.w3.org/2000/svg">
<path fill-rule="evenodd" clip-rule="evenodd" d="M24.6067 1.92033C23.8113 1.92033 22.9361 2.3914 22.4183 3.04694L22.4174 3.04814C22.2988 3.19926 22.1482 3.49756 21.9991 3.81341C21.839 4.15257 21.6499 4.58018 21.4526 5.04038C21.0575 5.96163 20.6225 7.0289 20.3071 7.81252C20.0765 8.38636 20.3499 9.04046 20.9234 9.27731L23.5231 10.3575L23.5293 10.36C23.6613 10.4128 23.8054 10.4434 23.9572 10.4434H38.2683C38.4177 10.4434 38.5642 10.4132 38.6978 10.3588L38.7009 10.3575L41.3028 9.27702C41.8763 9.04013 42.1488 8.38602 41.9183 7.81222C41.6029 7.0286 41.168 5.96162 40.7727 5.04016C40.5753 4.57987 40.3861 4.15209 40.2258 3.8127C40.0764 3.49656 39.9256 3.19802 39.8066 3.04655L39.8059 3.04567C39.2893 2.39123 38.4141 1.92033 37.6188 1.92033H24.6067ZM24.2012 4.43906L24.2081 4.42674C24.2574 4.37044 24.3378 4.3044 24.4324 4.25087C24.4824 4.22258 24.528 4.20261 24.5644 4.19057C24.5911 4.18176 24.6057 4.1795 24.6092 4.17896L24.61 4.17884H37.6153L37.6161 4.17897C37.6197 4.17954 37.6344 4.18184 37.6611 4.19063C37.698 4.20275 37.7439 4.22271 37.7939 4.25067C37.8883 4.30337 37.9655 4.36629 38.0103 4.41605L38.0179 4.42963C38.0292 4.44997 38.0434 4.47711 38.0609 4.5117C38.0958 4.58093 38.1395 4.67216 38.1913 4.78401C38.2946 5.00735 38.4252 5.30235 38.5738 5.64662C38.8184 6.21339 39.109 6.90718 39.4022 7.62133L38.0441 8.18486H24.1814L22.8232 7.62128C23.1164 6.90672 23.4069 6.213 23.6508 5.6475C23.7988 5.30406 23.9287 5.01024 24.0309 4.78862C24.0822 4.67761 24.1252 4.58735 24.1594 4.51924C24.1765 4.48519 24.1904 4.4587 24.2012 4.43906ZM46.053 14.1604C46.053 13.1067 45.7865 12.0806 45.2767 11.1764L46.494 10.8492C47.4787 10.748 48.2226 9.89258 48.2226 8.88754V7.33899C48.2226 6.26548 47.3769 5.36516 46.3001 5.36516H43.4069C42.7432 5.36516 42.2065 5.90339 42.2065 6.56395C42.2065 7.2252 42.7393 7.76039 43.3996 7.76427L45.8164 7.82617L45.8059 8.55177L43.0969 9.27458C42.7287 9.37329 42.4313 9.64137 42.2923 9.99142C42.1498 10.3464 42.1878 10.7474 42.3884 11.0684L43.1067 12.2189C43.4629 12.7937 43.6539 13.4647 43.6539 14.1604V18.1726C43.6539 18.837 43.1729 19.2942 42.6832 19.2942H19.5407C19.0497 19.2942 18.57 18.8373 18.57 18.1726V14.1604C18.57 13.464 18.7599 12.7931 19.117 12.2192L19.8335 11.0691C20.0379 10.7451 20.0707 10.3447 19.9327 9.99446C19.7943 9.64292 19.4957 9.37344 19.1265 9.27444L16.4057 8.54812L16.4177 7.76429H18.817C19.4784 7.76429 20.0173 7.22834 20.0173 6.56395C20.0173 5.90267 19.4784 5.36516 18.817 5.36516H15.9253C14.8499 5.36516 13.9998 6.26404 13.9998 7.33899V8.88754C13.9998 9.89299 14.7455 10.748 15.7283 10.8492L16.9472 11.1766C16.4375 12.0818 16.1708 13.1079 16.1708 14.1604V18.1726C16.1708 18.9896 16.441 19.7498 16.8968 20.3531C16.8945 20.3834 16.8933 20.4141 16.8933 20.445V23.5421C16.8933 24.6147 17.7397 25.5144 18.8173 25.5144H23.8801C24.9565 25.5144 25.8025 24.6144 25.8025 23.5421C25.8025 22.8335 25.2078 22.3791 24.5913 22.3791C24.0952 22.3791 23.681 22.6923 23.4913 23.1096L19.294 23.0492V21.6841C19.3754 21.6903 19.4577 21.6934 19.5407 21.6934H42.6832C42.7631 21.6934 42.8423 21.6905 42.9206 21.6848L42.9102 23.108L38.7142 23.0477C38.5256 22.6309 38.1058 22.3417 37.62 22.3417C36.9609 22.3417 36.4197 22.877 36.4197 23.5421C36.4197 24.6151 37.2679 25.5144 38.3437 25.5144H43.4064C44.4829 25.5144 45.3289 24.6144 45.3289 23.5421V20.445C45.3289 20.4148 45.3278 20.3848 45.3256 20.3551C45.7823 19.7514 46.053 18.9905 46.053 18.1726V14.1604Z" fill="#E37639"/>
<path fill-rule="evenodd" clip-rule="evenodd" d="M21.8224 31.0493C18.0033 29.3429 13.6393 29.3383 9.81668 31.0366L3.1734 33.988L6.60628 41.3086C9.18463 40.3457 12.0415 40.4245 14.5679 41.5362L22.2205 44.9037C23.2857 45.3724 24.4972 45.3803 25.5685 44.9254L45.9076 36.2883C46.5218 36.0275 46.8427 35.3475 46.6536 34.7076C46.4544 34.0334 45.7596 33.6356 45.0774 33.8053L36.2683 35.996C35.5984 36.1626 34.9202 35.7546 34.7536 35.0846C34.587 34.4147 34.995 33.7365 35.665 33.5699L44.474 31.3792C46.4551 30.8865 48.4728 32.0415 49.0512 33.9993C49.6002 35.8575 48.6682 37.832 46.8847 38.5894L26.5456 47.2265C24.8396 47.9509 22.9101 47.9384 21.2136 47.1919L13.561 43.8245C11.5614 42.9446 9.29064 42.912 7.26658 43.7341C6.19098 44.171 4.96159 43.6896 4.46869 42.6385L0.801582 34.8184C0.266363 33.6771 0.773174 32.3187 1.92521 31.8069L8.80166 28.7519C13.2722 26.7658 18.3759 26.7712 22.8422 28.7668L25.9946 30.1753C26.9088 30.5838 27.8732 30.869 28.8625 31.0236L30.3156 31.2506C32.4924 31.5907 34.0171 33.5822 33.7775 35.7723C33.6221 37.1922 32.3969 38.2512 30.9695 38.1995L19.8071 37.7946C19.1172 37.7696 18.5782 37.1901 18.6032 36.5002C18.6282 35.8102 19.2078 35.2713 19.8977 35.2963L31.0601 35.7011C31.1782 35.7054 31.2795 35.6178 31.2923 35.5004C31.3867 34.6384 30.7865 33.8545 29.9297 33.7206L28.4766 33.4936C27.2686 33.3049 26.091 32.9566 24.9748 32.4578L21.8224 31.0493Z" fill="#E37639"/>
</svg>
