<svg width="59" height="39" viewBox="0 0 59 39" fill="none" xmlns="http://www.w3.org/2000/svg">
<g clip-path="url(#clip0)">
<path d="M53.8473 27.0154C51.3799 27.0154 49.0577 25.9922 47.3885 24.2139C46.3726 24.4331 45.284 24.5793 44.1954 24.6524C43.6149 24.6767 43.0827 24.2382 43.0343 23.6292C42.9859 23.0202 43.4455 22.5086 44.0503 22.4599C45.2598 22.3624 46.4451 22.1919 47.5337 21.9239C47.9449 21.8265 48.3804 21.9727 48.6464 22.2893C49.8076 23.7267 51.5009 24.628 53.3152 24.7742C52.4201 23.7754 51.7912 22.5817 51.5009 21.2418C51.4041 20.779 51.5976 20.2917 52.0089 20.0725C55.1052 18.1967 56.8711 15.5413 56.8711 12.7885C56.8711 7.38032 50.3881 2.99531 42.4296 2.99531C38.4382 2.99531 34.7129 4.11593 31.9552 6.11354C31.4714 6.47896 30.794 6.35715 30.4312 5.86993C30.0683 5.38271 30.1893 4.7006 30.6731 4.33518C33.7936 2.06959 37.9544 0.802811 42.4054 0.802811C51.5735 0.802811 58.9999 6.18663 58.9999 12.7885C58.9999 16.1016 57.113 19.2442 53.799 21.5098C54.1376 22.4599 54.7182 23.2638 55.4923 23.8972C56.0003 24.3113 56.218 24.9691 56.0728 25.6268C55.9277 26.2846 55.4439 26.7718 54.815 26.9423C54.4279 27.0154 54.1134 27.0154 53.8473 27.0154Z" fill="#E37639"/>
<path d="M6.1927 38.1972C5.87823 38.1972 5.51538 38.1972 5.03157 38.0754C4.33005 37.9048 3.82206 37.3445 3.65273 36.6381C3.48339 35.9316 3.74949 35.2251 4.30586 34.7622C5.37023 33.8852 6.14432 32.7646 6.57975 31.4491C2.37064 28.6963 0 24.7985 0 20.6815C0 12.5692 9.19229 5.96736 20.4891 5.96736C31.7376 5.96736 40.9057 12.5692 40.9057 20.6815C40.9057 28.745 31.7376 35.3226 20.4891 35.3226C18.312 35.3226 16.1833 35.1033 14.1755 34.6648C12.1193 36.906 9.24067 38.1972 6.1927 38.1972ZM20.4891 8.15987C10.4018 8.15987 2.17712 13.7629 2.17712 20.6815C2.17712 24.2382 4.42681 27.6488 8.39401 30.0362C8.80525 30.2798 8.99877 30.767 8.90201 31.2299C8.46659 33.1057 7.54736 34.7379 6.21689 36.0047C8.80525 36.0047 11.2968 34.7866 12.9418 32.7646C13.2079 32.4479 13.6433 32.2774 14.0545 32.3992C16.1107 32.9108 18.2878 33.1544 20.5133 33.1544C30.5765 33.1544 38.7528 27.5757 38.7528 20.7059C38.7286 13.7873 30.5523 8.15987 20.4891 8.15987Z" fill="#E37639"/>
<path d="M14.0549 22.7035C13.1115 22.7035 12.3374 21.9239 12.3374 20.9982C12.3374 20.0481 13.1115 19.2929 14.0549 19.2929C14.9983 19.2929 15.7482 20.0725 15.7482 20.9982C15.7482 21.9483 14.9983 22.7035 14.0549 22.7035ZM14.0549 20.5353C13.7888 20.5353 13.5711 20.7546 13.5711 21.0226C13.5711 21.2905 13.7888 21.4854 14.0549 21.4854C14.2968 21.4611 14.5145 21.2662 14.5145 20.9982C14.5145 20.7302 14.2968 20.5353 14.0549 20.5353Z" fill="#E37639"/>
<path d="M20.6345 22.7035C19.6911 22.7035 18.917 21.9239 18.917 20.9982C18.917 20.0481 19.6911 19.2929 20.6345 19.2929C21.5779 19.2929 22.3278 20.0725 22.3278 20.9982C22.352 21.9483 21.5779 22.7035 20.6345 22.7035ZM20.6345 20.5353C20.3684 20.5353 20.1507 20.7546 20.1507 21.0226C20.1507 21.2905 20.3684 21.4854 20.6345 21.4854C20.9006 21.4854 21.0941 21.2662 21.0941 21.0226C21.0941 20.779 20.9006 20.5353 20.6345 20.5353Z" fill="#E37639"/>
<path d="M27.2141 22.7035C26.2707 22.7035 25.4966 21.9239 25.4966 20.9982C25.4966 20.0481 26.2707 19.2929 27.2141 19.2929C28.1575 19.2929 28.9074 20.0725 28.9074 20.9982C28.9316 21.9483 28.1575 22.7035 27.2141 22.7035ZM27.2141 20.5353C26.948 20.5353 26.7303 20.7546 26.7303 21.0226C26.7303 21.2905 26.948 21.4854 27.2141 21.4854C27.4802 21.4854 27.6737 21.2662 27.6737 21.0226C27.6737 20.779 27.4802 20.5353 27.2141 20.5353Z" fill="#E37639"/>
</g>
<defs>
<clipPath id="clip0">
<rect width="59" height="37.3944" fill="white" transform="translate(0 0.802795)"/>
</clipPath>
</defs>
</svg>
