<svg width="41" height="40" viewBox="0 0 41 40" fill="none" xmlns="http://www.w3.org/2000/svg">
<path d="M25.7291 36.7548C25.4031 36.7568 25.089 36.577 24.931 36.2688L23.6033 33.6531C22.1513 33.8388 20.6755 33.8151 19.2135 33.578C18.7295 33.5009 18.3976 33.0426 18.4786 32.5605C18.5556 32.0745 19.0041 31.7367 19.496 31.8256C20.9797 32.0647 22.4792 32.0587 23.953 31.8019C24.3363 31.7249 24.7215 31.9264 24.8974 32.2761L26.142 34.7278L30.1822 33.0268L29.2971 30.4229C29.1726 30.0535 29.301 29.6445 29.6191 29.4173C30.8302 28.5421 31.8851 27.4753 32.7505 26.2445C32.9757 25.9244 33.3807 25.794 33.7521 25.9106L36.3698 26.7641L38.0234 22.7061L35.5539 21.4892C35.2042 21.3173 35.0066 20.938 35.0699 20.5507C35.3109 19.0651 35.303 17.5656 35.0481 16.0937C34.9809 15.7085 35.1726 15.3272 35.5203 15.1494L37.972 13.9067L36.271 9.86461L33.6672 10.7497C33.2997 10.8702 32.8927 10.7438 32.6616 10.4296C31.7864 9.21858 30.7195 8.1636 29.4887 7.2963C29.1706 7.07108 29.0363 6.6641 29.1568 6.29466L30.0123 3.67894L25.9524 2.02337L24.7354 4.49487C24.5615 4.84258 24.1802 5.04607 23.797 4.97692C22.3113 4.73787 20.8098 4.74577 19.34 4.99865C18.9468 5.07175 18.5734 4.87419 18.3956 4.52648L17.151 2.07473L13.1108 3.77377L13.9959 6.37961C14.1204 6.74905 13.99 7.15603 13.6739 7.38323C12.4628 8.2604 11.4078 9.32922 10.5425 10.5581C10.3173 10.8761 9.91229 11.0085 9.54087 10.8919L6.9212 10.0365L5.26958 14.0964L7.7391 15.3114C8.08879 15.4833 8.28635 15.8646 8.22313 16.2518C7.98211 17.7375 7.99001 19.237 8.24486 20.7088C8.32784 21.1928 8.00581 21.6512 7.52179 21.7341C7.03578 21.8309 6.57744 21.4951 6.49644 21.0111C6.24356 19.561 6.20602 18.0891 6.37593 16.6212L3.74045 15.3232C3.32359 15.1158 3.13591 14.6219 3.31174 14.1912L5.58765 8.60021C5.76546 8.16755 6.24356 7.95023 6.6861 8.0905L9.4816 9.00324C10.2481 8.01148 11.1273 7.11849 12.1072 6.34405L11.1629 3.56238C11.0147 3.11984 11.23 2.64174 11.6587 2.458L17.2241 0.116893C17.6528 -0.0648637 18.1487 0.118869 18.362 0.53375L19.6877 3.14947C20.9264 2.99142 22.1789 2.98747 23.4236 3.13367L24.7235 0.496213C24.929 0.0793567 25.4209 -0.112279 25.8556 0.0675029L31.4485 2.34342C31.8792 2.51925 32.1005 2.99735 31.9582 3.44186L31.0455 6.23737C32.0373 7.00391 32.9303 7.88108 33.7047 8.86099L36.4844 7.91862C36.9309 7.77045 37.407 7.98382 37.5888 8.4145L39.9319 13.9779C40.1116 14.4085 39.9299 14.9044 39.515 15.1138L36.8953 16.4454C37.0553 17.6821 37.0613 18.9347 36.9151 20.1793L39.5525 21.4793C39.9674 21.6847 40.1551 22.1806 39.9812 22.6113L37.7053 28.2003C37.5275 28.635 37.0494 28.8503 36.6069 28.712L33.8114 27.7993C33.0448 28.793 32.1657 29.684 31.1858 30.4585L32.1301 33.2382C32.2783 33.6807 32.061 34.1628 31.6342 34.3445L26.0689 36.6856C25.9603 36.7311 25.8417 36.7548 25.7291 36.7548Z" fill="#E37639"/>
<path d="M1.77472 36.4054C1.54357 36.4074 1.3144 36.3204 1.13857 36.1426C-0.758031 34.2342 -0.0961977 30.597 1.73718 28.738L2.29825 28.173C3.84517 26.6043 6.42335 26.1065 8.21919 26.9718L15.0213 20.0986C14.3416 18.3363 14.8474 15.9656 16.3034 14.4918L16.8606 13.9287C18.7038 12.0637 22.1118 11.3051 24.0558 13.1899C24.2277 13.3578 24.3245 13.583 24.3264 13.8181C24.3284 14.0571 24.2375 14.2863 24.0696 14.4523L21.2208 17.3367L23.226 19.3182C23.5737 19.664 23.5777 20.225 23.2319 20.5747C22.8862 20.9244 22.3232 20.9244 21.9774 20.5826L19.34 17.9748C18.9923 17.631 18.9883 17.068 19.334 16.7203L22.0229 13.9979C20.8059 13.6047 19.1108 14.1777 18.123 15.1773L17.5678 15.7404C16.503 16.8171 16.1691 18.7157 16.8507 19.8042C17.07 20.1539 17.0186 20.6083 16.7302 20.9007L8.9482 28.7617C8.60246 29.1094 8.04139 29.1114 7.69368 28.7696L7.53563 28.6155C6.42928 28.009 4.59788 28.3725 3.5587 29.4235L3.00158 29.9886C1.79842 31.2075 1.27291 33.758 2.39901 34.892C2.74475 35.2398 2.74277 35.8008 2.39506 36.1466C2.22516 36.3184 1.99994 36.4054 1.77472 36.4054Z" fill="#E37639"/>
<path d="M6.94784 39.9999C5.81383 40.0059 4.72329 39.67 3.92316 38.8956C3.75326 38.7276 3.65645 38.5044 3.65448 38.2653C3.65053 38.0302 3.74338 37.8011 3.90933 37.6331L6.63569 34.8791L4.49214 32.7632C4.14443 32.4175 4.14048 31.8544 4.48424 31.5067C4.82997 31.159 5.39303 31.1551 5.74074 31.4988L8.51451 34.239C8.68244 34.405 8.77727 34.6302 8.77924 34.8653C8.78122 35.1024 8.68836 35.3296 8.52241 35.4955L5.96003 38.0856C7.24616 38.4965 9.08546 37.9433 10.0555 36.9614L10.6146 36.3984C11.6143 35.3849 11.9738 33.6444 11.4147 32.5202C11.2448 32.1784 11.31 31.7655 11.5807 31.4969L19.4753 23.6082C19.7676 23.3158 20.2161 23.2644 20.5658 23.4758C21.682 24.1574 23.5391 23.8097 24.6218 22.7152L25.1789 22.1502C26.4215 20.8957 26.5618 18.1851 25.4456 17.063C25.0999 16.7133 25.1018 16.1522 25.4495 15.8065C25.7992 15.4588 26.3623 15.4627 26.706 15.8085C28.6599 17.7781 28.1937 21.6267 26.4433 23.3988L25.8842 23.9638C24.4242 25.4416 22.0574 25.9671 20.2872 25.3072L13.2481 32.3404C13.7894 34.081 13.254 36.2542 11.879 37.647L11.3199 38.212C10.2432 39.2986 8.55402 39.99 6.94784 39.9999Z" fill="#E37639"/>
</svg>
