<svg width="75" height="75" viewBox="0 0 75 75" fill="none" xmlns="http://www.w3.org/2000/svg">
<path d="M37.5001 1.25C17.4251 1.25 1.1001 17.55 1.1001 37.625C1.1001 57.7 17.4251 73.975 37.5001 73.975C57.5751 73.975 73.8751 57.675 73.8751 37.6C73.8751 17.525 57.5751 1.25 37.5001 1.25ZM37.5001 70.15C19.5501 70.15 4.9501 55.55 4.9501 37.625C4.9501 19.7 19.5501 5.1 37.5001 5.1C55.4501 5.1 70.0501 19.7 70.0501 37.625C70.0501 55.55 55.4251 70.15 37.5001 70.15Z" fill="#F7921E"/>
<path d="M32.5503 47.0999C32.5503 46.5749 32.1253 46.1499 31.6003 46.1499H26.8753C26.3503 46.1499 25.9253 46.5749 25.9253 47.0999C25.9253 47.6249 26.3503 48.0499 26.8753 48.0499H31.6003C32.1253 48.0499 32.5503 47.6249 32.5503 47.0999Z" fill="#F7921E"/>
<path d="M53.4503 38.0249H50.4253C49.9003 38.0249 49.4753 38.4499 49.4753 38.9749C49.4753 39.4999 49.9003 39.9249 50.4253 39.9249H53.2503V41.2749H53.2003L50.1753 42.0749C49.8753 42.1499 49.6503 42.3749 49.5253 42.6499C49.4253 42.9249 49.4503 43.2499 49.6003 43.4999L50.3503 44.6999C50.7503 45.3499 50.9753 46.0999 50.9753 46.8999V51.1499C50.9753 51.9499 50.3753 52.6249 49.6503 52.6249H25.3253C24.6003 52.6249 24.0003 51.9749 24.0003 51.1499V46.9249C24.0003 46.1499 24.2253 45.3749 24.6253 44.7249L25.3753 43.5249C25.5253 43.2749 25.5753 42.9499 25.4503 42.6749C25.3503 42.3999 25.1003 42.1749 24.8003 42.0999L21.7503 41.2999H21.7003V39.9499H24.5253C25.0503 39.9499 25.4753 39.5249 25.4753 38.9999C25.4753 38.4749 25.0503 38.0499 24.5253 38.0499H21.5253C20.5753 38.0499 19.8003 38.8499 19.8003 39.8249V41.4499C19.8003 42.3749 20.5003 43.1249 21.3503 43.1999L23.0253 43.6499L22.9503 43.7499C22.3503 44.6999 22.0503 45.7999 22.0503 46.9499V51.1499C22.0503 51.9999 22.3503 52.7499 22.8253 53.3499C22.8253 53.3999 22.8003 53.4749 22.8003 53.5249V56.7749C22.8003 57.7499 23.5753 58.5499 24.5253 58.5499H29.8503C30.8003 58.5499 31.5753 57.7499 31.5753 56.7749C31.5753 56.2499 31.1503 55.8249 30.6253 55.8249C30.1503 55.8249 29.7503 56.1749 29.6753 56.6249H24.7753V54.4999C24.9503 54.5249 25.1503 54.5499 25.3253 54.5499H49.6503C49.8503 54.5499 50.0253 54.5249 50.2003 54.4999V56.6249H45.2753C45.2003 56.1749 44.8003 55.8249 44.3253 55.8249C43.8003 55.8249 43.3753 56.2499 43.3753 56.7749C43.3753 57.7499 44.1503 58.5499 45.1003 58.5499H50.4253C51.3753 58.5499 52.1503 57.7499 52.1503 56.7749V53.5249C52.1503 53.4749 52.1503 53.3999 52.1253 53.3499C52.6003 52.7499 52.9003 51.9999 52.9003 51.1499V46.9249C52.9003 45.7749 52.5753 44.6749 52.0003 43.7249L51.9253 43.6249L53.6003 43.1749C54.4753 43.0999 55.1503 42.3249 55.1503 41.4249V39.7999C55.1503 38.8249 54.3753 38.0249 53.4503 38.0249Z" fill="#F7921E"/>
<path d="M49.7754 40.6002C48.8754 38.3502 47.7254 35.5752 47.3754 35.1252C46.9254 34.5502 46.0254 33.9502 45.1004 33.9502H29.9254C29.0004 33.9502 28.1254 34.5502 27.6504 35.1252C27.3004 35.5752 26.1504 38.3502 25.2504 40.6002C25.0504 41.0752 25.2754 41.6502 25.7754 41.8502L28.8004 43.1002C28.9254 43.1502 29.0504 43.1752 29.1754 43.1752H45.8754C46.0004 43.1752 46.1254 43.1502 46.2504 43.1002L49.2754 41.8502C49.7254 41.6502 49.9504 41.1002 49.7754 40.6002ZM45.6504 41.2502H29.3254L27.3504 40.4252C28.1254 38.5002 28.9504 36.6002 29.1254 36.3002C29.3254 36.0502 29.7004 35.8502 29.8754 35.8502H45.0504C45.2504 35.8502 45.6254 36.0502 45.8004 36.2752C46.0004 36.5752 46.8254 38.4752 47.6004 40.4502L45.6504 41.2502Z" fill="#F7921E"/>
<path d="M49.0752 47.0999C49.0752 46.5749 48.6502 46.1499 48.1252 46.1499H43.4002C42.8752 46.1499 42.4502 46.5749 42.4502 47.0999C42.4502 47.6249 42.8752 48.0499 43.4002 48.0499H48.1252C48.6502 48.0499 49.0752 47.6249 49.0752 47.0999Z" fill="#F7921E"/>
<path d="M30.6752 51.2999H44.3502C44.8752 51.2999 45.3002 50.8749 45.3002 50.3499C45.3002 49.8249 44.8752 49.3999 44.3502 49.3999H30.6752C30.1502 49.3999 29.7252 49.8249 29.7252 50.3499C29.6752 50.8749 30.1002 51.2999 30.6752 51.2999Z" fill="#F7921E"/>
<path d="M32.3251 28.7502C33.7001 27.3752 35.5251 26.6252 37.5001 26.6252C39.4501 26.6252 41.3001 27.3752 42.6751 28.7502C42.8501 28.9252 43.1001 29.0252 43.3501 29.0252C43.6001 29.0252 43.8501 28.9252 44.0251 28.7502C44.4001 28.3752 44.4001 27.7752 44.0251 27.4002C42.3001 25.6752 39.9501 24.7002 37.5001 24.7002C35.0501 24.7002 32.7251 25.6502 30.9751 27.4002C30.6001 27.7752 30.6001 28.3752 30.9751 28.7502C31.3501 29.1252 31.9751 29.1252 32.3251 28.7502Z" fill="#F7921E"/>
<path d="M37.5003 19.1499C33.5503 19.1499 29.8503 20.6749 27.0503 23.4749C26.6753 23.8499 26.6753 24.4499 27.0503 24.8249C27.4253 25.1999 28.0253 25.1999 28.4003 24.8249C30.8253 22.3999 34.0503 21.0749 37.4503 21.0749C40.8753 21.0749 44.1003 22.3999 46.5003 24.8249C46.6753 24.9999 46.9253 25.0999 47.1753 25.0999C47.4253 25.0999 47.6753 24.9999 47.8503 24.8249C48.2253 24.4499 48.2253 23.8499 47.8503 23.4749C45.1503 20.6749 41.4253 19.1499 37.5003 19.1499Z" fill="#F7921E"/>
<path d="M24.6249 21.0498C28.0749 17.6248 32.6249 15.6998 37.4999 15.6998C42.3749 15.6998 46.9249 17.5998 50.3749 21.0498C50.5499 21.2248 50.7999 21.3248 51.0499 21.3248C51.2999 21.3248 51.5499 21.2248 51.7249 21.0498C52.0999 20.6748 52.0999 20.0748 51.7249 19.6998C47.8999 15.8998 42.8749 13.7998 37.4999 13.7998C32.1249 13.7998 27.0499 15.8748 23.2749 19.6998C22.8999 20.0748 22.8999 20.6748 23.2749 21.0498C23.6249 21.4248 24.2499 21.4248 24.6249 21.0498Z" fill="#F7921E"/>
</svg>
