<svg width="75" height="75" viewBox="0 0 75 75" fill="none" xmlns="http://www.w3.org/2000/svg">
<path d="M40.2499 21.1748C39.7249 21.0748 39.2249 21.3998 39.1249 21.9248C39.0249 22.4498 39.3499 22.9498 39.8749 23.0498C46.8999 24.4998 51.9749 30.7748 51.9749 37.9498C51.9749 46.3498 45.1499 53.1748 36.7499 53.1748C29.5999 53.1748 23.3249 48.0998 21.8499 41.1248C21.7499 40.5998 21.2249 40.2748 20.7249 40.3998C20.1999 40.4998 19.8749 41.0248 19.9999 41.5248C21.6499 49.3748 28.7249 55.0998 36.7999 55.0998C46.2499 55.0998 53.9499 47.3998 53.9499 37.9748C53.8749 29.8748 48.1499 22.7998 40.2499 21.1748Z" fill="#F7921E"/>
<path d="M26.7003 36.5999C27.3253 32.1749 30.9753 28.5499 35.3753 27.9499C36.7003 27.7749 37.6753 26.6749 37.6753 25.3749V19.2749C37.6753 18.5249 37.3503 17.7999 36.8003 17.2999C36.2503 16.7999 35.5253 16.5499 34.8003 16.6249C24.6753 17.5749 16.3503 25.8999 15.4003 35.9999C15.3253 36.7249 15.5753 37.4499 16.0753 37.9999C16.5753 38.5499 17.3003 38.8749 18.0503 38.8749H24.0753C25.4253 38.8999 26.5253 37.9249 26.7003 36.5999ZM17.5003 36.7499C17.4253 36.6749 17.3003 36.4749 17.3253 36.1999C18.2003 26.9999 25.7753 19.4249 35.0003 18.5499H35.0753C35.3003 18.5499 35.4753 18.6749 35.5503 18.7249C35.7003 18.8749 35.8003 19.0749 35.8003 19.2749V25.3499C35.8003 25.6999 35.5253 25.9749 35.1503 26.0249C29.9003 26.7499 25.5753 31.0999 24.8253 36.2999C24.7753 36.6749 24.4753 36.9749 24.1253 36.9749H18.1003C17.8503 36.9999 17.6253 36.8999 17.5003 36.7499Z" fill="#F7921E"/>
<path d="M29.7998 37.9499C29.7998 41.7499 32.8998 44.8749 36.7248 44.8749C40.5498 44.8749 43.6498 41.7749 43.6498 37.9499C43.6498 34.1249 40.5498 31.0249 36.7248 31.0249C32.9248 31.0249 29.7998 34.1249 29.7998 37.9499ZM41.7248 37.9499C41.7248 40.6999 39.4998 42.9499 36.7248 42.9499C33.9748 42.9499 31.7248 40.7249 31.7248 37.9499C31.7248 35.1999 33.9498 32.9499 36.7248 32.9499C39.4998 32.9499 41.7248 35.1749 41.7248 37.9499Z" fill="#F7921E"/>
<path d="M35.7502 35.3748C35.7502 35.8998 36.1752 36.3248 36.7002 36.3248C37.5752 36.3248 38.3002 37.0498 38.3002 37.9248C38.3002 38.7998 37.5752 39.5248 36.7002 39.5248C35.8252 39.5248 35.1002 38.7998 35.1002 37.9248C35.1002 37.3998 34.6752 36.9748 34.1502 36.9748C33.6252 36.9748 33.2002 37.3998 33.2002 37.9248C33.2002 39.8498 34.7752 41.4248 36.7252 41.4248C38.6502 41.4248 40.2502 39.8498 40.2502 37.9248C40.2502 35.9998 38.6752 34.4248 36.7252 34.4248C36.2002 34.4248 35.7502 34.8498 35.7502 35.3748Z" fill="#F7921E"/>
<path d="M33.325 24.4252C33.85 24.4252 34.275 24.0002 34.275 23.4752V21.7752C34.275 21.2502 33.85 20.8252 33.325 20.8252C32.8 20.8252 32.375 21.2502 32.375 21.7752V23.4752C32.375 24.0002 32.8 24.4252 33.325 24.4252Z" fill="#F7921E"/>
<path d="M22.2252 33.5752H20.5252C20.0002 33.5752 19.5752 34.0002 19.5752 34.5252C19.5752 35.0502 20.0002 35.4752 20.5252 35.4752H22.2252C22.7502 35.4752 23.1752 35.0502 23.1752 34.5252C23.2002 34.0002 22.7752 33.5752 22.2252 33.5752Z" fill="#F7921E"/>
<path d="M37.4751 1.25C17.4001 1.25 1.1001 17.55 1.1001 37.625C1.1001 57.7 17.4251 74 37.5001 74C57.5751 74 73.9001 57.7 73.9001 37.625C73.9001 17.55 57.5501 1.25 37.4751 1.25ZM37.4751 70.15C19.5251 70.15 4.9251 55.55 4.9251 37.625C4.9251 19.7 19.5251 5.1 37.4751 5.1C55.4251 5.1 70.0251 19.7 70.0251 37.625C70.0251 55.55 55.4251 70.15 37.4751 70.15Z" fill="#F7921E"/>
</svg>
