<svg width="25" height="38" viewBox="0 0 25 38" fill="none" xmlns="http://www.w3.org/2000/svg">
<path d="M18.25 18.3191V15.1702H24L12.5 1L1 15.1702H5.92857V30.1277" stroke="#E37639" stroke-width="2" stroke-miterlimit="10" stroke-linejoin="round"/>
<path d="M5.92859 31.7021V33.2766" stroke="#E37639" stroke-width="2" stroke-miterlimit="10" stroke-linejoin="round"/>
<path d="M5.92859 34.851V36.4254" stroke="#E37639" stroke-width="2" stroke-miterlimit="10" stroke-linejoin="round"/>
<path d="M1.82141 24.6171V34.0639" stroke="#E37639" stroke-width="2" stroke-miterlimit="10" stroke-linejoin="round"/>
<path d="M14.1428 24.617C15.5038 24.617 16.6071 23.5596 16.6071 22.2553C16.6071 20.9509 15.5038 19.8936 14.1428 19.8936C12.7818 19.8936 11.6785 20.9509 11.6785 22.2553C11.6785 23.5596 12.7818 24.617 14.1428 24.617Z" stroke="#E37639" stroke-width="2" stroke-miterlimit="10" stroke-linejoin="round"/>
<path d="M21.5358 30.9149C20.1722 30.9149 19.0715 29.86 19.0715 28.5532C19.0715 27.2464 20.1722 26.1915 21.5358 26.1915C22.8993 26.1915 24 27.2464 24 28.5532C24 29.86 22.8993 30.9149 21.5358 30.9149Z" stroke="#E37639" stroke-width="2" stroke-miterlimit="10" stroke-linejoin="round"/>
<path d="M13.3214 30.9148L22.3571 19.8936" stroke="#E37639" stroke-width="2" stroke-miterlimit="10" stroke-linejoin="round"/>
<path d="M18.25 32.4894V38" stroke="#E37639" stroke-width="2" stroke-miterlimit="10" stroke-linejoin="round"/>
</svg>
