<svg width="50" height="50" viewBox="0 0 50 50" fill="none" xmlns="http://www.w3.org/2000/svg">
<path d="M11 23V27.0123C11 27.5679 11.3603 28 11.7721 28H17.2279C17.6397 28 18 27.5679 18 27.0123" stroke="#E37639" stroke-width="2" stroke-miterlimit="10" stroke-linecap="round" stroke-linejoin="round"/>
<path d="M11.8404 9H8.76807C8.35843 9 8 9.33793 8 9.77241V11.3172C8 11.7517 8.35843 12.0897 8.76807 12.0897L11.8404 12.8621L11.0723 14.0207C10.5602 14.7931 10.3042 15.7103 10.3042 16.6276V20.6828C10.3042 21.9862 11.3283 23 12.6084 23H25H37.3916C38.6717 23 39.6958 21.9379 39.6958 20.6828V16.6276C39.6958 15.7103 39.4398 14.7931 38.9277 14.0207L38.1596 12.8621L41.2319 12.0897C41.6416 12.0897 42 11.7517 42 11.3172V9.77241C42 9.33793 41.6416 9 41.2319 9H38.1596" stroke="#E37639" stroke-width="2" stroke-miterlimit="10" stroke-linecap="round" stroke-linejoin="round"/>
<path d="M13 10.6207C13 10.6207 15.0177 5.37931 15.3894 4.88276C15.7611 4.38621 16.4513 4 16.9823 4C18.6814 4 31.7434 4 33.0177 4C33.6018 4 34.2389 4.38621 34.6106 4.88276C34.9823 5.37931 37 10.6207 37 10.6207L33.8142 12H25.0531H16.2389L13 10.6207Z" stroke="#E37639" stroke-width="2" stroke-miterlimit="10" stroke-linecap="round" stroke-linejoin="round"/>
<path d="M39 23V27.0123C39 27.5679 38.6397 28 38.2279 28H32.7721C32.3603 28 32 27.5679 32 27.0123" stroke="#E37639" stroke-width="2" stroke-miterlimit="10" stroke-linecap="round" stroke-linejoin="round"/>
<path d="M17.5842 46C19.5902 45.245 20.9998 43.4832 20.9998 41.4195C21.054 37.1913 12 37.1913 12 33.4664C12 32.4597 12.5964 31.5537 13.4638 31" stroke="#E37639" stroke-width="2" stroke-miterlimit="10" stroke-linecap="round" stroke-linejoin="round"/>
<path d="M38.5843 46C40.5904 45.245 42 43.4832 42 41.4195C42 37.1913 33 37.1913 33 33.4664C33 32.4597 33.5964 31.5537 34.4639 31" stroke="#E37639" stroke-width="2" stroke-miterlimit="10" stroke-linecap="round" stroke-linejoin="round"/>
</svg>
