<svg width="37" height="36" viewBox="0 0 37 36" fill="none" xmlns="http://www.w3.org/2000/svg">
<path d="M26.6667 15.7778V2.55556C26.6667 1.7 25.9667 1 25.1111 1H7.22222L1 7.22222V32.8889C1 33.7444 1.7 34.4444 2.55556 34.4444H25.1111C25.9667 34.4444 26.6667 33.7444 26.6667 32.8889V31.3333" stroke="#E37639" stroke-width="2" stroke-miterlimit="10"/>
<path d="M3.33333 8.00004H7.99999V3.33337" stroke="#E37639" stroke-width="2" stroke-miterlimit="10"/>
<path d="M7.99999 15C7.99999 15.8555 7.29999 16.5555 6.44443 16.5555H5.66665C4.8111 16.5555 4.1111 15.8555 4.1111 15V14.2222C4.1111 13.3666 4.8111 12.6666 5.66665 12.6666H6.44443C7.29999 12.6666 7.99999 13.3666 7.99999 14.2222V15Z" stroke="#E37639" stroke-width="2" stroke-miterlimit="10"/>
<path d="M15 20.4444C15 21.3 14.3 22 13.4444 22H12.6667C11.8111 22 11.1111 21.3 11.1111 20.4444V19.6666C11.1111 18.8111 11.8111 18.1111 12.6667 18.1111H13.4444C14.3 18.1111 15 18.8111 15 19.6666V20.4444Z" stroke="#E37639" stroke-width="2" stroke-miterlimit="10"/>
<path d="M6.44446 22.7777L12.6667 11.8888" stroke="#E37639" stroke-width="2" stroke-miterlimit="10"/>
<path d="M34.4444 29.7778H19.6667C18.8111 29.7778 18.1111 29.0778 18.1111 28.2223V18.8889C18.1111 18.0334 18.8111 17.3334 19.6667 17.3334H34.4444C35.3 17.3334 36 18.0334 36 18.8889V28.2223C36 29.0778 35.3 29.7778 34.4444 29.7778Z" stroke="#E37639" stroke-width="2" stroke-miterlimit="10"/>
<path d="M18.1111 25.8889H36" stroke="#E37639" stroke-width="2" stroke-miterlimit="10"/>
</svg>
