<svg width="39" height="40" viewBox="0 0 39 40" fill="none" xmlns="http://www.w3.org/2000/svg">
<path d="M9.80957 30.954H4.52386V36.2397" stroke="#E37639" stroke-width="2" stroke-miterlimit="10"/>
<path d="M36.335 11.9872C37.4186 14.3746 37.9912 16.9381 38 19.5017C38.0088 24.25 36.15 28.9983 32.5205 32.6279C28.9526 36.1957 24.2307 37.9576 19.5 38.0017C14.3288 38.0545 10.5496 36.4776 7.16672 33.5969C6.56767 33.086 4.52386 30.9541 4.52386 30.9541" stroke="#E37639" stroke-width="2" stroke-miterlimit="10"/>
<path d="M2.66503 27.0158C1.57265 24.6284 1.00884 22.0648 1.00003 19.5013C0.991222 14.7529 2.85003 10.0046 6.47955 6.37509C10.0562 2.79843 14.7781 1.04533 19.5 1.00129C24.6712 0.94843 28.4505 2.52533 31.8333 5.40604C32.4324 5.91699 34.4762 8.04889 34.4762 8.04889" stroke="#E37639" stroke-width="2" stroke-miterlimit="10"/>
<path d="M29.1905 8.04926H34.4762V2.76355" stroke="#E37639" stroke-width="2" stroke-miterlimit="10"/>
<path d="M23.0238 6.76307C21.905 6.45474 20.7246 6.28735 19.5 6.28735C12.2058 6.28735 6.28577 12.2073 6.28577 19.5016C6.28577 22.0916 7.03458 24.5142 8.32076 26.5492" stroke="#E37639" stroke-width="2" stroke-miterlimit="10"/>
<path d="M15.9762 32.2403C17.095 32.5486 18.2755 32.716 19.5 32.716C26.7943 32.716 32.7143 26.796 32.7143 19.5017C32.7143 16.9117 31.9655 14.4891 30.6793 12.4541" stroke="#E37639" stroke-width="2" stroke-miterlimit="10"/>
<path d="M19.56 13.165V14.305C20.63 14.325 21.47 14.595 22.08 15.115C22.7 15.635 23.01 16.335 23.01 17.215V17.425H21.015V17.32C21.015 16.43 20.53 15.93 19.56 15.82V18.715L19.65 18.73C20.16 18.81 20.615 18.92 21.015 19.06C21.415 19.19 21.8 19.375 22.17 19.615C22.54 19.855 22.825 20.175 23.025 20.575C23.235 20.965 23.34 21.42 23.34 21.94C23.34 22.92 22.99 23.715 22.29 24.325C21.6 24.925 20.69 25.235 19.56 25.255V26.515H18.75V25.255C17.62 25.235 16.695 24.925 15.975 24.325C15.265 23.715 14.91 22.855 14.91 21.745L14.925 21.655H17.055V21.79C17.055 22.93 17.62 23.545 18.75 23.635V20.44C18.26 20.36 17.825 20.255 17.445 20.125C17.075 19.995 16.71 19.82 16.35 19.6C15.99 19.38 15.715 19.085 15.525 18.715C15.335 18.345 15.24 17.91 15.24 17.41C15.24 16.42 15.565 15.675 16.215 15.175C16.875 14.665 17.72 14.375 18.75 14.305V13.165H19.56ZM18.75 18.535V15.835C18.27 15.855 17.895 15.985 17.625 16.225C17.355 16.465 17.22 16.78 17.22 17.17C17.22 17.35 17.25 17.515 17.31 17.665C17.38 17.805 17.45 17.92 17.52 18.01C17.6 18.09 17.725 18.17 17.895 18.25C18.065 18.32 18.195 18.37 18.285 18.4C18.375 18.43 18.53 18.475 18.75 18.535ZM19.56 20.62V23.65C20.06 23.64 20.46 23.495 20.76 23.215C21.07 22.925 21.225 22.555 21.225 22.105C21.225 21.335 20.67 20.84 19.56 20.62Z" fill="#E37639"/>
</svg>
