<svg width="50" height="50" viewBox="0 0 50 50" fill="none" xmlns="http://www.w3.org/2000/svg">
<path d="M48 25C48 26.4619 44.9788 27.5826 44.6864 28.8983C44.3941 30.3115 46.7818 32.5043 46.2458 33.7712C45.7098 35.0869 42.4449 34.9407 41.6653 36.1102C40.8856 37.2797 42.25 40.2034 41.2267 41.2267C40.2521 42.2013 37.2797 40.8856 36.1102 41.6653C34.9407 42.445 35.0869 45.6611 33.7712 46.2458C32.5042 46.7818 30.3114 44.3941 28.8983 44.6865C27.5339 44.9789 26.4131 48 25 48C23.5381 48 22.4173 44.9789 21.1017 44.6865C19.6885 44.3941 17.4957 46.7818 16.2288 46.2458C14.9131 45.7098 15.0593 42.445 13.8898 41.6653C12.7203 40.8856 9.79656 42.25 8.77325 41.2267C7.79868 40.2522 9.11436 37.2797 8.33469 36.1102C7.55503 34.9407 4.33893 35.0869 3.75418 33.7712C3.21816 32.5043 5.60588 30.3115 5.3135 28.8983C5.02113 27.5339 1.99994 26.4132 1.99994 25C1.99994 23.5381 5.02113 22.4174 5.3135 21.1017C5.60588 19.6886 3.21816 17.4958 3.75418 16.2288C4.2902 14.9131 7.55503 15.0593 8.33469 13.8898C9.11436 12.7203 7.74995 9.7966 8.77325 8.77329C9.74783 7.79872 12.7203 9.11439 13.8898 8.33473C15.0593 7.55507 14.9131 4.33896 16.2288 3.75422C17.4957 3.2182 19.6885 5.60592 21.1017 5.31354C22.4661 5.02117 23.5868 1.99998 25 1.99998C26.4618 1.99998 27.5826 5.02117 28.8983 5.31354C30.3114 5.60592 32.5042 3.2182 33.7712 3.75422C35.0869 4.29023 34.9407 7.55507 36.1102 8.33473C37.2797 9.11439 40.2034 7.74999 41.2267 8.77329C42.2013 9.74787 40.8856 12.7203 41.6653 13.8898C42.4449 15.0593 45.661 14.9131 46.2458 16.2288C46.7818 17.4958 44.3941 19.6886 44.6864 21.1017C44.9788 22.4174 48 23.5381 48 25Z" stroke="#E37639" stroke-width="2" stroke-miterlimit="10" stroke-linecap="round" stroke-linejoin="round"/>
<path d="M38.303 22.2712C38.4979 23.1483 38.5953 24.0741 38.5953 25C38.5953 32.5042 32.5042 38.5466 25.0487 38.5466C17.5932 38.5466 11.4533 32.5042 11.4533 25C11.4533 17.4957 17.5444 11.4534 25 11.4534C28.7521 11.4534 32.1631 12.964 34.5996 15.4491" stroke="#E37639" stroke-width="2" stroke-miterlimit="10" stroke-linecap="round" stroke-linejoin="round"/>
<path d="M38.0593 17.447L23.8792 31.5784L15.4491 23.1483" stroke="#E37639" stroke-width="2" stroke-miterlimit="10" stroke-linecap="round" stroke-linejoin="round"/>
</svg>
