<svg width="50" height="50" viewBox="0 0 50 50" fill="none" xmlns="http://www.w3.org/2000/svg">
<path d="M12.3758 41.0059V44.0116C12.3758 44.4278 12.6995 44.7515 13.0694 44.7515H17.9711C18.3411 44.7515 18.6648 44.4278 18.6648 44.0116" stroke="#E37639" stroke-width="2" stroke-miterlimit="10" stroke-linecap="round" stroke-linejoin="round"/>
<path d="M13.1157 27.5955H10.2949C9.92491 27.5955 9.60121 27.9192 9.60121 28.3354V29.8152C9.60121 30.2313 9.92491 30.5551 10.2949 30.5551L13.1157 31.2949L12.422 32.4048C11.9596 33.1446 11.7284 34.0232 11.7284 34.9019V38.7862C11.7284 40.0348 12.6532 41.0521 13.8093 41.0521H25H36.1908C37.3468 41.0521 38.2717 40.0348 38.2717 38.7862V34.9019C38.2717 34.0232 38.0405 33.1446 37.578 32.4048L36.8844 31.3412L39.7052 30.6013C40.0751 30.6013 40.3988 30.2776 40.3988 29.8614V28.3816C40.3988 27.9655 40.0751 27.6418 39.7052 27.6418H36.8844" stroke="#E37639" stroke-width="2" stroke-miterlimit="10" stroke-linecap="round" stroke-linejoin="round"/>
<path d="M14.5029 29.399C14.5029 29.399 16.2602 24.9597 16.5839 24.5435C16.9076 24.1273 17.5087 23.8036 17.9711 23.8036C19.4509 23.8036 30.8729 23.8036 31.9827 23.8036C32.4913 23.8036 33.0463 24.1273 33.37 24.5435C33.6937 24.9597 35.4509 29.399 35.4509 29.399L32.6301 30.5551H25H17.2775L14.5029 29.399Z" stroke="#E37639" stroke-width="2" stroke-miterlimit="10" stroke-linecap="round" stroke-linejoin="round"/>
<path d="M37.6243 41.0059V44.0116C37.6243 44.4278 37.3006 44.7515 36.9306 44.7515H31.9826C31.6127 44.7515 31.289 44.4278 31.289 44.0116" stroke="#E37639" stroke-width="2" stroke-miterlimit="10" stroke-linecap="round" stroke-linejoin="round"/>
<path d="M1.00006 45.6302L9.13877 35.9655H1.00006" stroke="#E37639" stroke-width="2" stroke-miterlimit="10" stroke-linecap="round" stroke-linejoin="round"/>
<path d="M49 45.6302L40.8613 35.9655H49" stroke="#E37639" stroke-width="2" stroke-miterlimit="10" stroke-linecap="round" stroke-linejoin="round"/>
<path d="M21.763 16.3585C21.0231 18.2082 20.6532 19.0406 19.5896 20.6591C19.1272 21.3528 19.4046 21.6302 20.1445 21.2603C22.1792 20.1967 23.659 19.2256 24.7688 18.3007C25.3699 18.3932 25.9711 18.4395 26.5722 18.4395C32.1676 18.4395 36.6994 14.925 36.6994 10.5782C36.6994 6.23139 32.1676 2.71695 26.5722 2.71695C20.9769 2.71695 16.4451 6.23139 16.4451 10.5782C16.4451 12.8903 17.7399 14.9713 19.7746 16.4048" stroke="#E37639" stroke-width="2" stroke-miterlimit="10" stroke-linecap="round" stroke-linejoin="round"/>
<path d="M24.1677 8.82099C23.7977 8.82099 23.5203 8.49729 23.5665 8.17359C23.5665 7.98862 23.6127 7.84989 23.659 7.66492C23.7515 7.29498 23.8902 6.97128 24.1214 6.64758C24.3526 6.37012 24.6763 6.13891 25.0925 5.95394C25.5087 5.76897 26.0174 5.67648 26.6648 5.67648C27.1272 5.67648 27.5434 5.72273 27.9133 5.86145C28.2833 5.95394 28.607 6.13891 28.8382 6.32388C29.1156 6.55509 29.3006 6.78631 29.4393 7.11001C29.5781 7.43371 29.6705 7.7574 29.6705 8.17359C29.6705 8.45104 29.6243 8.68226 29.5781 8.91347C29.5318 9.14468 29.4393 9.32965 29.3006 9.51463C29.2081 9.6996 29.0231 9.88457 28.8382 10.0695C28.6532 10.2545 28.4682 10.4395 28.1908 10.6245C28.052 10.7632 27.9133 10.8557 27.7746 10.9944C27.6359 11.1331 27.4971 11.2718 27.4046 11.4106C27.3122 11.5493 27.2197 11.7343 27.1272 11.873C27.0809 12.058 27.0347 12.2429 27.0347 12.4742V12.7516H26.6185C26.2486 12.7516 25.9711 12.4279 26.0174 12.1042C26.0174 11.9655 26.0636 11.873 26.0636 11.7343C26.1099 11.3643 26.2948 10.9944 26.6185 10.6707C26.8035 10.4857 26.9885 10.3008 27.2197 10.1158C27.4047 9.93081 27.6359 9.74584 27.7746 9.56087C27.9596 9.3759 28.0983 9.19093 28.237 8.95971C28.3757 8.7285 28.422 8.49729 28.422 8.21983C28.422 8.0811 28.3757 7.89613 28.3295 7.71116C28.2833 7.52619 28.1908 7.34122 28.052 7.20249C27.9133 7.06376 27.7283 6.92504 27.4971 6.78631C27.2659 6.69382 26.9885 6.64758 26.6185 6.64758C26.4798 6.64758 26.2948 6.64758 26.1099 6.69382C25.8786 6.74007 25.6937 6.83255 25.4625 6.97128C25.2775 7.11001 25.0925 7.34122 24.9538 7.61868C24.8613 7.80365 24.8151 7.98862 24.7688 8.26607C24.7226 8.58977 24.4451 8.82099 24.1677 8.82099ZM26.4336 14.0464H26.6185C26.9422 14.0464 27.2197 14.3239 27.2197 14.6476V14.925C27.2197 15.2487 26.9422 15.5262 26.6185 15.5262H26.4336C26.1099 15.5262 25.8324 15.2487 25.8324 14.925V14.6476C25.8324 14.3239 26.0636 14.0464 26.4336 14.0464Z" fill="#E37639"/>
<path fill-rule="evenodd" clip-rule="evenodd" d="M23.8555 6.44226L23.8635 6.43265C24.1351 6.10672 24.5049 5.84771 24.9562 5.64715C25.4281 5.43742 25.9868 5.34076 26.6648 5.34076C27.1397 5.34076 27.595 5.38706 28.0133 5.54047C28.4301 5.64805 28.7897 5.85517 29.0479 6.06172L29.0531 6.06592C29.3649 6.32573 29.5853 6.59827 29.7479 6.97776C29.8994 7.33126 30.0063 7.7005 30.0063 8.17359C30.0063 8.4844 29.9545 8.74308 29.909 8.97068L29.9073 8.97931C29.8515 9.25791 29.7406 9.48218 29.5862 9.69311C29.466 9.91697 29.2584 10.1243 29.0962 10.2863C29.0892 10.2933 29.0824 10.3001 29.0756 10.3069L29.0708 10.3117C28.8922 10.4903 28.6944 10.6882 28.4041 10.8856C28.3322 10.9552 28.262 11.0137 28.2014 11.0642L28.1976 11.0673C28.127 11.1262 28.069 11.1747 28.012 11.2318C27.8664 11.3773 27.7543 11.4914 27.684 11.5968C27.6454 11.6547 27.6051 11.7249 27.5574 11.8084L27.5545 11.8135C27.5196 11.8745 27.4804 11.9431 27.4395 12.0082C27.3997 12.1699 27.3704 12.3071 27.3704 12.4742V13.0873H26.6185C26.067 13.0873 25.6212 12.6112 25.6819 12.0807C25.6843 11.9882 25.6997 11.9114 25.7101 11.8594L25.7113 11.8534C25.7232 11.7941 25.7279 11.7663 25.7279 11.7343V11.7134L25.7305 11.6926C25.7872 11.2388 26.0121 10.8023 26.3811 10.4333L26.3854 10.4291C26.5646 10.2498 26.7565 10.0579 26.9956 9.86516C27.0586 9.80282 27.1292 9.73766 27.1942 9.67766C27.2261 9.64816 27.2567 9.61991 27.2844 9.59385C27.3809 9.50298 27.4552 9.42717 27.506 9.35943L27.5203 9.34035L27.5372 9.32347C27.6997 9.16099 27.8221 8.99871 27.9491 8.78698C28.0484 8.62151 28.0863 8.45449 28.0863 8.21983C28.0863 8.13203 28.0541 7.99364 28.0038 7.79258C27.9694 7.65476 27.9025 7.52767 27.8147 7.43988C27.7053 7.33051 27.5522 7.21281 27.3484 7.08869C27.1725 7.02259 26.9462 6.9833 26.6185 6.9833C26.4763 6.9833 26.3307 6.98466 26.1913 7.01952L26.1835 7.02146L26.1757 7.02302C26.0053 7.0571 25.8625 7.1237 25.6512 7.24958C25.5203 7.35199 25.3716 7.53378 25.2541 7.76881C25.1844 7.90821 25.1448 8.05338 25.1005 8.31785C25.0301 8.79567 24.6199 9.15671 24.1677 9.15671C23.6165 9.15671 23.1709 8.68109 23.231 8.15098C23.2341 7.96051 23.2767 7.79919 23.3131 7.66144C23.3202 7.63458 23.327 7.60861 23.3333 7.58349C23.4347 7.17778 23.5897 6.81444 23.8482 6.45244L23.8555 6.44226ZM23.5665 8.17359C23.5203 8.49728 23.7977 8.82098 24.1677 8.82098C24.4451 8.82098 24.7226 8.58977 24.7688 8.26607C24.8151 7.98862 24.8613 7.80364 24.9538 7.61867C25.0925 7.34122 25.2775 7.11 25.4625 6.97128C25.6937 6.83255 25.8786 6.74006 26.1099 6.69382C26.2948 6.64758 26.4798 6.64758 26.6185 6.64758C26.9885 6.64758 27.2659 6.69382 27.4971 6.78631C27.7284 6.92503 27.9133 7.06376 28.0521 7.20249C28.1908 7.34122 28.2833 7.52619 28.3295 7.71116C28.3757 7.89612 28.422 8.08111 28.422 8.21983C28.422 8.49728 28.3758 8.7285 28.237 8.95971C28.0983 9.19093 27.9596 9.3759 27.7746 9.56087C27.6821 9.68418 27.5485 9.8075 27.4149 9.93081C27.3481 9.99247 27.2813 10.0541 27.2197 10.1158C26.9885 10.3007 26.8035 10.4857 26.6185 10.6707C26.2948 10.9944 26.1099 11.3643 26.0636 11.7343C26.0636 11.8036 26.0521 11.8614 26.0405 11.9192C26.0289 11.977 26.0174 12.0349 26.0174 12.1042C25.9711 12.4279 26.2486 12.7516 26.6185 12.7516H27.0347V12.4742C27.0347 12.2429 27.081 12.058 27.1272 11.873C27.1734 11.8036 27.2197 11.7227 27.2659 11.6418C27.3122 11.5609 27.3584 11.4799 27.4047 11.4106C27.4971 11.2719 27.6359 11.1331 27.7746 10.9944C27.8439 10.925 27.9133 10.8672 27.9827 10.8094C28.0521 10.7516 28.1214 10.6938 28.1908 10.6244C28.4682 10.4395 28.6532 10.2545 28.8382 10.0695C29.0232 9.88457 29.2081 9.69959 29.3006 9.51462C29.4393 9.32965 29.5318 9.14468 29.5781 8.91347C29.6243 8.68226 29.6705 8.45104 29.6705 8.17359C29.6705 7.7574 29.5781 7.4337 29.4393 7.11C29.3006 6.78631 29.1156 6.55509 28.8382 6.32388C28.607 6.13891 28.2833 5.95394 27.9133 5.86145C27.5434 5.72272 27.1272 5.67648 26.6648 5.67648C26.0174 5.67648 25.5087 5.76897 25.0925 5.95394C24.6763 6.13891 24.3526 6.37012 24.1214 6.64758C23.8902 6.97128 23.7515 7.29497 23.659 7.66492C23.6511 7.69665 23.6431 7.72702 23.6354 7.7565C23.5982 7.89885 23.5665 8.02035 23.5665 8.17359ZM26.4336 13.7107H26.6185C27.1276 13.7107 27.5554 14.1384 27.5554 14.6476V14.925C27.5554 15.4341 27.1276 15.8619 26.6185 15.8619H26.4336C25.9244 15.8619 25.4967 15.4341 25.4967 14.925V14.6476C25.4967 14.1558 25.8613 13.7107 26.4336 13.7107ZM26.6185 14.0464H26.4336C26.0636 14.0464 25.8324 14.3239 25.8324 14.6476V14.925C25.8324 15.2487 26.1099 15.5262 26.4336 15.5262H26.6185C26.9422 15.5262 27.2197 15.2487 27.2197 14.925V14.6476C27.2197 14.3239 26.9422 14.0464 26.6185 14.0464Z" fill="#E37639"/>
</svg>
