<svg width="77" height="50" viewBox="0 0 77 50" fill="none" xmlns="http://www.w3.org/2000/svg">
<path d="M33.788 11.891C34.839 10.8401 36.3324 10.1763 37.9918 10.1763C39.6511 10.1763 41.1446 10.8401 42.1955 11.891" stroke="#E37639" stroke-width="2" stroke-miterlimit="10" stroke-linecap="round" stroke-linejoin="round"/>
<path d="M30.967 9.07008C32.737 7.30009 35.2261 6.13853 37.9917 6.13853C40.7573 6.13853 43.1911 7.24477 45.0164 9.07008" stroke="#E37639" stroke-width="2" stroke-miterlimit="10" stroke-linecap="round" stroke-linejoin="round"/>
<path d="M28.2015 6.35975C30.6905 3.8707 34.1752 2.32195 37.9918 2.32195C41.8083 2.32195 45.2377 3.8707 47.782 6.35975" stroke="#E37639" stroke-width="2" stroke-miterlimit="10" stroke-linecap="round" stroke-linejoin="round"/>
<path d="M22.8915 39.0493V42.6446C22.8915 43.1424 23.2787 43.5296 23.7212 43.5296H29.5843C30.0268 43.5296 30.4139 43.1424 30.4139 42.6446" stroke="#E37639" stroke-width="2" stroke-miterlimit="10" stroke-linecap="round" stroke-linejoin="round"/>
<path d="M23.7765 22.9534H20.4025C19.96 22.9534 19.5728 23.3406 19.5728 23.8384V25.6084C19.5728 26.1062 19.96 26.4934 20.4025 26.4934L23.7765 27.3784L22.9469 28.7059C22.3937 29.5909 22.1172 30.6419 22.1172 31.6928V36.339C22.1172 37.8324 23.2234 39.0493 24.6062 39.0493H37.9918H51.3774C52.7602 39.0493 53.8664 37.8324 53.8664 36.339V31.6928C53.8664 30.6419 53.5899 29.5909 53.0367 28.7059L52.2071 27.3784L55.5811 26.4934C56.0236 26.4934 56.4108 26.1062 56.4108 25.6084V23.8384C56.4108 23.3406 56.0236 22.9534 55.5811 22.9534H52.2071" stroke="#E37639" stroke-width="2" stroke-miterlimit="10" stroke-linecap="round" stroke-linejoin="round"/>
<path d="M25.4359 25.1659C25.4359 25.1659 27.5378 19.856 27.925 19.3581C28.3122 18.8603 29.0312 18.4732 29.5843 18.4732C31.3543 18.4732 45.0165 18.4732 46.344 18.4732C46.9524 18.4732 47.6161 18.8603 48.0033 19.3581C48.3905 19.856 50.4924 25.1659 50.4924 25.1659L47.1183 26.5487H37.9918H28.7546L25.4359 25.1659Z" stroke="#E37639" stroke-width="2" stroke-miterlimit="10" stroke-linecap="round" stroke-linejoin="round"/>
<path d="M53.092 39.0493V42.6446C53.092 43.1424 52.7048 43.5296 52.2623 43.5296H46.3438C45.9013 43.5296 45.5142 43.1424 45.5142 42.6446" stroke="#E37639" stroke-width="2" stroke-miterlimit="10" stroke-linecap="round" stroke-linejoin="round"/>
<path d="M70.46 26.9912C72.4151 26.9912 74 25.4063 74 23.4513C74 21.4962 72.4151 19.9113 70.46 19.9113C68.5049 19.9113 66.92 21.4962 66.92 23.4513C66.92 25.4063 68.5049 26.9912 70.46 26.9912Z" stroke="#E37639" stroke-width="2" stroke-miterlimit="10" stroke-linecap="round" stroke-linejoin="round"/>
<path d="M70.46 37.3347C72.4151 37.3347 74 35.7498 74 33.7947C74 31.8396 72.4151 30.2547 70.46 30.2547C68.5049 30.2547 66.92 31.8396 66.92 33.7947C66.92 35.7498 68.5049 37.3347 70.46 37.3347Z" stroke="#E37639" stroke-width="2" stroke-miterlimit="10" stroke-linecap="round" stroke-linejoin="round"/>
<path d="M70.46 47.678C72.4151 47.678 74 46.0931 74 44.138C74 42.1829 72.4151 40.598 70.46 40.598C68.5049 40.598 66.92 42.1829 66.92 44.138C66.92 46.0931 68.5049 47.678 70.46 47.678Z" stroke="#E37639" stroke-width="2" stroke-miterlimit="10" stroke-linecap="round" stroke-linejoin="round"/>
<path d="M66.92 23.4513H63.2694L57.8488 30.476" stroke="#E37639" stroke-width="2" stroke-miterlimit="10" stroke-linecap="round" stroke-linejoin="round"/>
<path d="M66.92 44.138H63.2694L57.8488 37.1134" stroke="#E37639" stroke-width="2" stroke-miterlimit="10" stroke-linecap="round" stroke-linejoin="round"/>
<path d="M66.92 33.7947H57.8488" stroke="#E37639" stroke-width="2" stroke-miterlimit="10" stroke-linecap="round" stroke-linejoin="round"/>
<path d="M5.52338 26.9912C7.47846 26.9912 9.06337 25.4063 9.06337 23.4513C9.06337 21.4962 7.47846 19.9113 5.52338 19.9113C3.5683 19.9113 1.9834 21.4962 1.9834 23.4513C1.9834 25.4063 3.5683 26.9912 5.52338 26.9912Z" stroke="#E37639" stroke-width="2" stroke-miterlimit="10" stroke-linecap="round" stroke-linejoin="round"/>
<path d="M5.52338 37.3347C7.47846 37.3347 9.06337 35.7498 9.06337 33.7947C9.06337 31.8396 7.47846 30.2547 5.52338 30.2547C3.5683 30.2547 1.9834 31.8396 1.9834 33.7947C1.9834 35.7498 3.5683 37.3347 5.52338 37.3347Z" stroke="#E37639" stroke-width="2" stroke-miterlimit="10" stroke-linecap="round" stroke-linejoin="round"/>
<path d="M5.52338 47.678C7.47846 47.678 9.06337 46.0931 9.06337 44.138C9.06337 42.1829 7.47846 40.598 5.52338 40.598C3.5683 40.598 1.9834 42.1829 1.9834 44.138C1.9834 46.0931 3.5683 47.678 5.52338 47.678Z" stroke="#E37639" stroke-width="2" stroke-miterlimit="10" stroke-linecap="round" stroke-linejoin="round"/>
<path d="M9.06342 23.4513H12.714L18.1346 30.476" stroke="#E37639" stroke-width="2" stroke-miterlimit="10" stroke-linecap="round" stroke-linejoin="round"/>
<path d="M9.06342 44.138H12.714L18.1346 37.1134" stroke="#E37639" stroke-width="2" stroke-miterlimit="10" stroke-linecap="round" stroke-linejoin="round"/>
<path d="M9.06342 33.7947H18.1346" stroke="#E37639" stroke-width="2" stroke-miterlimit="10" stroke-linecap="round" stroke-linejoin="round"/>
</svg>
