<svg width="48" height="42" viewBox="0 0 48 42" fill="none" xmlns="http://www.w3.org/2000/svg">
<path d="M16.9973 34C17.3773 33.62 17.7773 33 18.9973 33C20.2173 33 32.4873 33 33.7173 33C34.8273 33 40.9373 26.87 41.7173 26C42.4673 25.16 45.7973 20.16 46.7173 18C46.1373 17.22 44.5673 16.57 42.7173 17C40.9473 17.41 39.9073 18.68 38.7173 21L34.1373 23.38" stroke="#E37639" stroke-width="2" stroke-miterlimit="10"/>
<path d="M22.7173 27C22.7173 27 30.7173 27 31.7173 27C35.7173 27 35.7173 22 31.7173 22C30.7173 22 28.4973 22 25.7173 22C24.8873 22 23.3173 20 21.9973 20C21.4073 20 18.3473 20 16.9973 20C15.6473 20 13.9673 21.1 12.9973 22C11.4973 23.5 8.85732 26 8.85732 26" stroke="#E37639" stroke-width="2" stroke-miterlimit="10"/>
<path d="M6.9992 23.9985L2 28.9977L13.0025 40.0002L18.0017 35.001L6.9992 23.9985Z" stroke="#E37639" stroke-width="2" stroke-miterlimit="10"/>
<path d="M6.99731 29L8.99731 31" stroke="#E37639" stroke-width="2" stroke-miterlimit="10"/>
<path d="M22.2173 8C24.1503 8 25.7173 6.433 25.7173 4.5C25.7173 2.567 24.1503 1 22.2173 1C20.2843 1 18.7173 2.567 18.7173 4.5C18.7173 6.433 20.2843 8 22.2173 8Z" stroke="#E37639" stroke-width="2" stroke-miterlimit="10"/>
<path d="M32.2173 17C30.2873 17 28.7173 15.43 28.7173 13.5C28.7173 11.57 30.2873 10 32.2173 10C34.1473 10 35.7173 11.57 35.7173 13.5C35.7173 15.43 34.1473 17 32.2173 17Z" stroke="#E37639" stroke-width="2" stroke-miterlimit="10"/>
<path d="M20.7173 17L33.7173 1" stroke="#E37639" stroke-width="2" stroke-miterlimit="10"/>
</svg>
