<svg width="105" height="114" viewBox="0 0 105 114" fill="none" xmlns="http://www.w3.org/2000/svg">
<mask id="mask0" mask-type="alpha" maskUnits="userSpaceOnUse" x="0" y="0" width="105" height="114">
<rect width="105" height="114" fill="#C4C4C4"/>
</mask>
<g mask="url(#mask0)">
<path d="M19 57.5542H18.4694L18.5009 58.0839C18.807 63.2263 20.4297 70.0839 25.315 75.6627C30.2148 81.2581 38.3377 85.5 51.5042 85.5C63.7023 85.5 72.2741 81.5314 77.7921 75.4893C83.3019 69.4562 85.7167 61.4113 85.7167 53.3417C85.7167 44.8376 83.0229 37.6345 78.0365 32.5554C73.0485 27.4748 65.8127 24.5667 56.8208 24.5667C46.535 24.5667 40.242 27.8998 37.1682 30.0212L39.376 13.2417H80.0208H80.5208V12.7417V-2V-2.5H80.0208H26.0083H25.5647L25.5119 -2.05957L20.0744 43.2529L20.0072 43.8125H20.5708H39.3H39.5831L39.7287 43.5697C41.1034 41.2786 43.291 39.8275 45.6381 38.9473C47.9863 38.0667 50.462 37.7708 52.35 37.7708C55.6764 37.7708 59.0503 38.9671 61.5907 41.4639C64.1253 43.9551 65.8667 47.7773 65.8667 53.1C65.8667 55.199 65.6837 59.4514 63.8491 63.1645C62.9358 65.013 61.6191 66.7155 59.7208 67.9576C57.8247 69.1982 55.3173 70 51.9875 70C46.9811 70 43.7388 68.2689 41.6675 65.9386C39.5818 63.5922 38.6414 60.59 38.3468 57.9977L38.2964 57.5542H37.85H19Z" stroke="url(#paint0_linear)"/>
</g>
<defs>
<linearGradient id="paint0_linear" x1="19" y1="85" x2="83.4093" y2="85" gradientUnits="userSpaceOnUse">
<stop stop-color="#D87E40"/>
<stop offset="1" stop-color="#E7A94E"/>
</linearGradient>
</defs>
</svg>
