<svg width="35" height="60" viewBox="0 0 35 60" fill="none" xmlns="http://www.w3.org/2000/svg">
<path d="M21.4492 29.4152L18.7958 30.8468L13.415 30.0446V23.6642L10.416 19.8137V15.5312L12.2672 12.557L13.6741 11.7178V17.222L17.4999 19.7767L21.3257 17.3084L21.4492 11.8659L23.4238 13.4826L24.843 17.1109L23.4978 21.2823L21.1406 24.4787L21.4492 29.4152Z" fill="white"/>
<path d="M17.5 31.217C15.4487 31.2297 13.4235 30.7556 11.5909 29.8337C9.75834 28.9118 8.17055 27.5684 6.95793 25.9137C5.74531 24.2591 4.94244 22.3404 4.61526 20.3153C4.28807 18.2901 4.4459 16.2162 5.07578 14.2639C5.70566 12.3116 6.78963 10.5365 8.23868 9.08445C9.68773 7.63237 11.4605 6.54469 13.4115 5.91073C15.3625 5.27677 17.4361 5.11461 19.4619 5.43756C21.4877 5.76051 23.4081 6.55936 25.0653 7.76852C25.1262 7.80272 25.1792 7.84949 25.2208 7.90571C25.2623 7.96194 25.2914 8.02634 25.3062 8.09467C25.321 8.16299 25.3211 8.23368 25.3065 8.30204C25.2919 8.37041 25.263 8.4349 25.2216 8.49124C25.1802 8.54758 25.1274 8.5945 25.0665 8.62887C25.0056 8.66325 24.9381 8.68431 24.8685 8.69066C24.7989 8.697 24.7287 8.68849 24.6627 8.66568C24.5966 8.64288 24.5361 8.6063 24.4852 8.55836C22.0671 6.82362 19.0905 6.04966 16.1337 6.38684C13.1768 6.72402 10.4509 8.14827 8.4854 10.3829C6.51993 12.6175 5.45527 15.5029 5.49825 18.4786C5.54124 21.4543 6.68879 24.3078 8.71799 26.4847C10.7472 28.6616 13.5131 30.0065 16.4785 30.2582C19.4438 30.5098 22.3968 29.6502 24.7638 27.8463C27.1308 26.0425 28.7428 23.4232 29.2866 20.4973C29.8304 17.5714 29.2671 14.5478 27.7063 12.0139C27.6554 11.9559 27.6192 11.8865 27.6007 11.8116C27.5823 11.7366 27.5821 11.6583 27.6003 11.5833C27.6184 11.5083 27.6543 11.4387 27.705 11.3805C27.7557 11.3223 27.8196 11.2771 27.8914 11.2488C28.0035 11.1833 28.1365 11.1635 28.2629 11.1934C28.3892 11.2232 28.4992 11.3005 28.5702 11.4092C29.7766 13.3785 30.4353 15.6342 30.4783 17.9432C30.5212 20.2522 29.947 22.5309 28.8147 24.5437C27.6825 26.5566 26.0334 28.2306 24.0378 29.3929C22.0422 30.5552 19.7724 31.1637 17.463 31.1553L17.5 31.217Z" fill="#74B974"/>
<path d="M17.5 59.96C17.3319 59.9612 17.1672 59.9126 17.0266 59.8204C16.886 59.7281 16.7759 59.5964 16.7102 59.4416C15.1551 55.9491 1.4316 25.2315 1.20945 24.6638C0.168283 22.0106 -0.209101 19.1433 0.1101 16.3111C0.429302 13.4789 1.43543 10.7675 3.04102 8.4126C4.64662 6.05773 6.80308 4.13065 9.32296 2.79889C11.8428 1.46713 14.6499 0.770996 17.5 0.770996C20.3502 0.770996 23.1572 1.46713 25.677 2.79889C28.1969 4.13065 30.3534 6.05773 31.959 8.4126C33.5646 10.7675 34.5707 13.4789 34.8899 16.3111C35.2091 19.1433 34.8317 22.0106 33.7905 24.6638C33.5684 25.1945 19.8572 55.9244 18.3022 59.417C18.2381 59.5773 18.1273 59.7147 17.9844 59.8115C17.8414 59.9083 17.6727 59.96 17.5 59.96ZM17.5 2.46176C14.9287 2.46236 12.3964 3.09113 10.1235 4.29338C7.85054 5.49562 5.90572 7.23494 4.45814 9.36008C3.01056 11.4852 2.10407 13.9318 1.8175 16.4871C1.53093 19.0424 1.87295 21.629 2.81383 24.022C3.04831 24.6021 12.1068 44.9036 17.5123 56.9857C22.9549 44.9036 31.9764 24.6021 32.2109 24.0344L33.013 24.3429L32.2109 24.0344C33.1551 21.6388 33.4989 19.0486 33.2123 16.4897C32.9258 13.9307 32.0175 11.4807 30.5668 9.35334C29.1161 7.22596 27.167 5.48578 24.8894 4.28456C22.6118 3.08333 20.0749 2.45754 17.5 2.46176Z" fill="#74B974"/>
<path d="M17.4999 25.8733C15.919 25.8723 14.3738 25.4027 13.0596 24.5239C11.7454 23.6451 10.7212 22.3965 10.1163 20.9358C9.51141 19.4751 9.35305 17.8679 9.6612 16.3173C9.96936 14.7667 10.7302 13.3422 11.8476 12.2238C12.2874 11.7917 12.7714 11.407 13.2915 11.076C13.406 11.0099 13.5358 10.9752 13.6679 10.9752C13.8001 10.9752 13.9299 11.0099 14.0444 11.076C14.1602 11.1385 14.2569 11.2311 14.3242 11.3441C14.3916 11.4571 14.4271 11.5862 14.4269 11.7178V17.5676L17.5246 19.357L20.6099 17.5676V11.7054C20.6123 11.5729 20.6502 11.4434 20.7197 11.3306C20.7891 11.2177 20.8876 11.1255 21.0049 11.0637C21.117 10.9975 21.2449 10.9625 21.3751 10.9625C21.5053 10.9625 21.6332 10.9975 21.7453 11.0637C22.2677 11.3915 22.752 11.7765 23.1893 12.2114C24.3082 13.3313 25.0695 14.7581 25.3769 16.311C25.6843 17.864 25.5238 19.4732 24.9159 20.9349C24.308 22.3965 23.2799 23.6449 21.9619 24.5218C20.6439 25.3988 19.0953 25.8648 17.5123 25.8609L17.4999 25.8733ZM12.946 13.1987C12.0327 14.1117 11.4107 15.275 11.1587 16.5414C10.9066 17.8079 11.0358 19.1207 11.5298 20.3137C12.0239 21.5068 12.8607 22.5265 13.9343 23.244C15.008 23.9615 16.2703 24.3444 17.5616 24.3444C18.853 24.3444 20.1153 23.9615 21.1889 23.244C22.2626 22.5265 23.0994 21.5068 23.5934 20.3137C24.0875 19.1207 24.2167 17.8079 23.9646 16.5414C23.7125 15.275 23.0905 14.1117 22.1773 13.1987V17.9625C22.1822 18.1108 22.1409 18.257 22.0591 18.3808C21.9773 18.5046 21.859 18.5999 21.7207 18.6536L17.8825 20.8627C17.7704 20.9289 17.6425 20.9638 17.5123 20.9638C17.382 20.9638 17.2542 20.9289 17.142 20.8627L13.3039 18.6536C13.1912 18.5886 13.0977 18.495 13.0327 18.3824C12.9677 18.2697 12.9336 18.1419 12.9336 18.0118V13.1987H12.946Z" fill="#74B974"/>
<path d="M13.6743 30.4025C13.48 30.3993 13.2948 30.3198 13.1586 30.1813C13.0224 30.0428 12.9461 29.8563 12.9461 29.662V24.0591C12.9325 23.9547 12.9414 23.8485 12.9721 23.7478C13.0028 23.6471 13.0546 23.5541 13.1241 23.475C13.1936 23.3959 13.2792 23.3325 13.3751 23.2891C13.471 23.2457 13.5751 23.2232 13.6804 23.2232C13.7857 23.2232 13.8898 23.2457 13.9857 23.2891C14.0817 23.3325 14.1672 23.3959 14.2367 23.475C14.3062 23.5541 14.358 23.6471 14.3887 23.7478C14.4194 23.8485 14.4283 23.9547 14.4147 24.0591V29.662C14.4147 29.8584 14.3367 30.0468 14.1978 30.1856C14.059 30.3245 13.8706 30.4025 13.6743 30.4025Z" fill="#74B974"/>
<path d="M21.3259 30.4025C21.1316 30.3993 20.9464 30.3198 20.8102 30.1813C20.674 30.0428 20.5977 29.8563 20.5977 29.662V24.0591C20.5842 23.9547 20.593 23.8485 20.6237 23.7478C20.6544 23.6471 20.7062 23.5541 20.7757 23.475C20.8452 23.3959 20.9308 23.3325 21.0267 23.2891C21.1227 23.2457 21.2267 23.2232 21.332 23.2232C21.4373 23.2232 21.5414 23.2457 21.6373 23.2891C21.7333 23.3325 21.8188 23.3959 21.8883 23.475C21.9578 23.5541 22.0097 23.6471 22.0404 23.7478C22.071 23.8485 22.0799 23.9547 22.0663 24.0591V29.662C22.068 29.7597 22.05 29.8568 22.0134 29.9474C21.9768 30.038 21.9223 30.1203 21.8532 30.1894C21.7841 30.2585 21.7018 30.3129 21.6112 30.3496C21.5206 30.3862 21.4236 30.4042 21.3259 30.4025Z" fill="#74B974"/>
</svg>
