<svg width="54" height="50" viewBox="0 0 54 50" fill="none" xmlns="http://www.w3.org/2000/svg">
<path d="M12.79 46.3694L12.0193 30.1982L15.0587 26.199L20.3375 20.3239L21.7918 14.9723L23.9731 15.8885L25.9945 20.3239L24.104 26.5626L36.4651 26.9698L39.0972 28.744L34.7782 43.4172L35.0399 46.7184L29.2811 48.2308L14.4188 47.4164L12.79 46.3694Z" fill="white"/>
<path d="M10.2306 48.9433H2.87215C2.55129 48.951 2.23205 48.8955 1.93267 48.7798C1.63329 48.6641 1.35964 48.4905 1.12736 48.2691C0.895073 48.0476 0.708705 47.7825 0.5789 47.489C0.449095 47.1954 0.378398 46.8792 0.37085 46.5583V28.5694C0.389886 27.9226 0.663197 27.3095 1.13148 26.863C1.59976 26.4165 2.22522 26.1727 2.87215 26.1844H10.2306C10.88 26.1688 11.5092 26.4109 11.9806 26.8578C12.4521 27.3047 12.7274 27.9201 12.7464 28.5694V46.5729C12.7237 47.2197 12.4467 47.8313 11.9757 48.2751C11.5046 48.7189 10.8776 48.959 10.2306 48.9433ZM2.88669 28.4094C2.84666 28.4093 2.80804 28.4241 2.77842 28.451C2.74881 28.4779 2.73036 28.515 2.72672 28.5548V46.5583C2.72672 46.6008 2.74357 46.6415 2.77357 46.6715C2.80357 46.7015 2.84426 46.7183 2.88669 46.7183H10.2451C10.2876 46.7183 10.3283 46.7015 10.3583 46.6715C10.3883 46.6415 10.4051 46.6008 10.4051 46.5583V28.5694C10.4052 28.549 10.401 28.5288 10.3928 28.5102C10.3846 28.4915 10.3726 28.4748 10.3575 28.4611C10.3424 28.4473 10.3246 28.437 10.3053 28.4306C10.2859 28.4242 10.2654 28.4219 10.2451 28.424H2.88669V28.4094Z" fill="#74B974"/>
<path d="M28.0014 49.1178C24.2204 49.1178 19.465 49.016 16.8183 48.9578C15.2332 48.8705 11.5394 48.4924 10.5505 46.8491C10.4862 46.7214 10.4479 46.5822 10.4379 46.4395C10.428 46.2969 10.4466 46.1537 10.4926 46.0183C10.5386 45.8829 10.6112 45.758 10.706 45.651C10.8009 45.5439 10.9161 45.4569 11.045 45.3949C11.3286 45.2543 11.654 45.2225 11.9595 45.3056C12.265 45.3886 12.5294 45.5808 12.7028 45.8457C14.0201 46.4725 15.4613 46.7956 16.9201 46.791C24.0023 46.9509 31.957 47.0237 32.9168 46.791C33.1688 46.7436 33.4048 46.6334 33.603 46.4708C33.8013 46.3081 33.9554 46.0982 34.0511 45.8603C34.104 45.6642 34.1077 45.4582 34.0621 45.2604C34.0164 45.0625 33.9227 44.879 33.7893 44.7259C33.4584 44.3444 32.9967 44.1006 32.495 44.0425C32.203 44.0367 31.9232 43.924 31.7087 43.7256C31.4943 43.5272 31.3601 43.2571 31.3316 42.9663C31.3347 42.6763 31.4474 42.3982 31.647 42.1879C31.8466 41.9775 32.1184 41.8504 32.4078 41.832L33.6148 41.7157C34.9091 41.5993 35.069 41.3667 35.1854 40.9595C35.2845 40.6705 35.2901 40.3576 35.2013 40.0652C35.1126 39.7728 34.934 39.5158 34.6909 39.3307C34.2302 39.1087 33.7407 38.9521 33.2367 38.8654C32.9474 38.8654 32.67 38.7505 32.4655 38.5459C32.2609 38.3414 32.146 38.0639 32.146 37.7747C32.146 37.4854 32.2609 37.208 32.4655 37.0035C32.67 36.7989 32.9474 36.684 33.2367 36.684L34.531 36.4949C34.9041 36.4634 35.2665 36.354 35.5946 36.1736C35.9228 35.9932 36.2094 35.746 36.436 35.4479C36.6396 35.1861 36.7705 34.8953 36.3342 33.9937C35.7867 33.6547 35.1708 33.4411 34.531 33.3683C34.2456 33.3427 33.9805 33.2099 33.7889 32.9968C33.5974 32.7837 33.4936 32.506 33.4985 32.2195C33.5232 31.9363 33.6507 31.6719 33.857 31.4763C34.0633 31.2807 34.3341 31.1675 34.6182 31.1579C35.465 31.1197 36.3044 30.983 37.1195 30.7507C37.614 30.5326 37.8176 29.9945 37.7158 29.2092C37.6796 28.8492 37.5105 28.5157 37.2416 28.2737C36.9727 28.0317 36.6233 27.8986 36.2615 27.9004H23.057C22.8637 27.9055 22.672 27.8647 22.4975 27.7813C22.3231 27.6978 22.1709 27.5742 22.0536 27.4205C21.9422 27.2783 21.8712 27.1087 21.8481 26.9295C21.8251 26.7503 21.8509 26.5683 21.9227 26.4025C22.7 24.5638 23.2612 22.641 23.5951 20.6728C23.7324 19.7942 23.6338 18.8949 23.3092 18.067C22.9847 17.2391 22.446 16.5123 21.7482 15.9611C21.6543 15.904 21.5508 15.8646 21.4428 15.8447C21.439 15.9028 21.439 15.9611 21.4428 16.0192C21.2057 18.2 20.5226 20.3087 19.436 22.2143C18.6652 23.6685 13.5463 28.4239 12.5283 29.3692C12.2866 29.5741 11.98 29.6866 11.663 29.6866C11.3461 29.6866 11.0395 29.5741 10.7978 29.3692C10.6839 29.2709 10.5926 29.1492 10.53 29.0124C10.4673 28.8757 10.4349 28.727 10.4349 28.5766C10.4349 28.4262 10.4673 28.2775 10.53 28.1408C10.5926 28.004 10.6839 27.8823 10.7978 27.784C13.1043 25.7548 15.2576 23.5577 17.24 21.2109C18.1809 19.5544 18.7747 17.7236 18.9851 15.8302C19.0315 15.4069 19.191 15.0039 19.4469 14.6636C19.7028 14.3232 20.0456 14.0581 20.4394 13.896C20.8758 13.7254 21.3471 13.6627 21.8129 13.7133C22.2788 13.764 22.7256 13.9264 23.1152 14.1869C24.1816 14.9486 25.0173 15.9896 25.5305 17.1954C26.0436 18.4013 26.2142 19.7253 26.0237 21.0218C25.7675 22.6434 25.3535 24.2361 24.7876 25.7772H36.1452C37.0813 25.7102 38.0087 25.9951 38.7458 26.5762C39.4828 27.1572 39.9764 27.9925 40.1298 28.9184C40.2893 29.6589 40.1971 30.4316 39.8678 31.1138C39.5385 31.7961 38.991 32.3489 38.312 32.6848C38.4149 32.8016 38.4984 32.9342 38.5592 33.0775C38.9063 33.622 39.0822 34.2581 39.064 34.9036C39.0459 35.5491 38.8346 36.1744 38.4574 36.6985C38.0203 37.3064 37.4477 37.8043 36.785 38.1528C37.2268 38.6407 37.5234 39.2423 37.6416 39.8898C37.7598 40.5373 37.6948 41.2049 37.454 41.8175C37.1295 42.5605 36.5303 43.1494 35.7816 43.4608C36.1531 43.9159 36.394 44.4635 36.4786 45.0449C36.5631 45.6263 36.4881 46.2198 36.2615 46.7619C36.0036 47.2982 35.6275 47.7692 35.1616 48.1394C34.6957 48.5097 34.1519 48.7696 33.5712 48.8996C31.722 49.1031 29.8608 49.176 28.0014 49.1178Z" fill="#74B974"/>
<path d="M7.49667 45.5404C8.58093 45.5404 9.4599 44.707 9.4599 43.6789C9.4599 42.6509 8.58093 41.8175 7.49667 41.8175C6.41241 41.8175 5.53345 42.6509 5.53345 43.6789C5.53345 44.707 6.41241 45.5404 7.49667 45.5404Z" fill="#74B974"/>
<path d="M47.5609 44.6969C44.1434 44.6969 39.7371 44.6969 38.9954 44.6969C38.7395 44.6969 38.4939 44.5963 38.3116 44.4167C38.1292 44.2371 38.0249 43.993 38.0211 43.7371C38.0121 43.6005 38.0328 43.4635 38.0819 43.3357C38.131 43.2079 38.2073 43.0923 38.3055 42.9968C38.4037 42.9014 38.5215 42.8284 38.6506 42.783C38.7798 42.7376 38.9173 42.7207 39.0536 42.7337C43.4163 42.7337 50.5276 42.85 51.371 42.7337C51.5501 42.4693 51.6276 42.1491 51.5892 41.832V1.94222C51.5892 1.94222 51.4583 1.94222 51.3565 1.94222C40.6096 1.94222 24.3367 1.85497 23.406 1.94222C23.246 1.94222 23.2315 2.21852 23.2315 2.21852V11.7002C23.2315 11.9663 23.1257 12.2215 22.9376 12.4097C22.7494 12.5979 22.4942 12.7036 22.228 12.7036C21.9619 12.7036 21.7067 12.5979 21.5185 12.4097C21.3303 12.2215 21.2246 11.9663 21.2246 11.7002V2.14581C21.2514 1.62337 21.4615 1.12707 21.8178 0.744105C22.1742 0.361136 22.6541 0.115983 23.1733 0.0517063C24.1767 -0.0646329 46.7902 0.0517063 51.3129 0.0517063C51.9359 0.0351413 52.5443 0.241405 53.0289 0.633402C53.2087 0.796635 53.3512 0.996785 53.4466 1.22016C53.542 1.44354 53.588 1.68488 53.5815 1.92768V41.7739C53.6449 42.0928 53.6449 42.4212 53.5812 42.7401C53.5176 43.0591 53.3917 43.3623 53.2106 43.6325C53.0296 43.9027 52.7971 44.1345 52.5263 44.3146C52.2556 44.4948 51.9519 44.6197 51.6328 44.6824C51.1529 44.6824 49.5241 44.6969 47.5609 44.6969Z" fill="#74B974"/>
<path d="M39.5772 6.87207H30.5028C30.4117 6.88592 30.3186 6.87993 30.23 6.85451C30.1415 6.82908 30.0594 6.78482 29.9895 6.72475C29.9196 6.66468 29.8635 6.59022 29.8251 6.50646C29.7866 6.42271 29.7667 6.33164 29.7667 6.23948C29.7667 6.14732 29.7866 6.05624 29.8251 5.97249C29.8635 5.88873 29.9196 5.81427 29.9895 5.7542C30.0594 5.69413 30.1415 5.64987 30.23 5.62445C30.3186 5.59902 30.4117 5.59303 30.5028 5.60688H39.5772C39.6613 5.60495 39.7449 5.61959 39.8232 5.64998C39.9016 5.68036 39.9732 5.72589 40.034 5.78396C40.0948 5.84203 40.1435 5.91151 40.1774 5.98842C40.2113 6.06533 40.2298 6.14817 40.2317 6.2322C40.2278 6.40323 40.1572 6.56597 40.0349 6.68557C39.9126 6.80517 39.7483 6.87211 39.5772 6.87207Z" fill="#74B974"/>
<path d="M39.5772 10.0133H30.5028C30.4117 10.0272 30.3186 10.0212 30.23 9.99574C30.1415 9.97032 30.0594 9.92605 29.9895 9.86598C29.9196 9.80591 29.8635 9.73145 29.8251 9.6477C29.7866 9.56394 29.7667 9.47287 29.7667 9.38071C29.7667 9.28855 29.7866 9.19748 29.8251 9.11372C29.8635 9.02997 29.9196 8.95551 29.9895 8.89544C30.0594 8.83537 30.1415 8.79111 30.23 8.76568C30.3186 8.74025 30.4117 8.73426 30.5028 8.74812H39.5772C39.6684 8.73426 39.7614 8.74025 39.85 8.76568C39.9385 8.79111 40.0206 8.83537 40.0905 8.89544C40.1604 8.95551 40.2165 9.02997 40.2549 9.11372C40.2934 9.19748 40.3133 9.28855 40.3133 9.38071C40.3133 9.47287 40.2934 9.56394 40.2549 9.6477C40.2165 9.73145 40.1604 9.80591 40.0905 9.86598C40.0206 9.92605 39.9385 9.97032 39.85 9.99574C39.7614 10.0212 39.6684 10.0272 39.5772 10.0133Z" fill="#74B974"/>
<path d="M45.9031 14.2306H30.4881C30.397 14.2444 30.304 14.2385 30.2154 14.213C30.1268 14.1876 30.0448 14.1433 29.9749 14.0833C29.905 14.0232 29.8489 13.9487 29.8104 13.865C29.772 13.7812 29.7521 13.6902 29.7521 13.598C29.7521 13.5058 29.772 13.4148 29.8104 13.331C29.8489 13.2473 29.905 13.1728 29.9749 13.1127C30.0448 13.0527 30.1268 13.0084 30.2154 12.983C30.304 12.9575 30.397 12.9515 30.4881 12.9654H45.9031C45.9942 12.9515 46.0872 12.9575 46.1758 12.983C46.2644 13.0084 46.3464 13.0527 46.4163 13.1127C46.4862 13.1728 46.5423 13.2473 46.5808 13.331C46.6192 13.4148 46.6391 13.5058 46.6391 13.598C46.6391 13.6902 46.6192 13.7812 46.5808 13.865C46.5423 13.9487 46.4862 14.0232 46.4163 14.0833C46.3464 14.1433 46.2644 14.1876 46.1758 14.213C46.0872 14.2385 45.9942 14.2444 45.9031 14.2306Z" fill="#74B974"/>
<path d="M45.9031 17.1536H30.4881C30.397 17.1674 30.304 17.1614 30.2154 17.136C30.1268 17.1106 30.0448 17.0663 29.9749 17.0062C29.905 16.9462 29.8489 16.8717 29.8104 16.788C29.772 16.7042 29.7521 16.6131 29.7521 16.521C29.7521 16.4288 29.772 16.3377 29.8104 16.254C29.8489 16.1702 29.905 16.0958 29.9749 16.0357C30.0448 15.9756 30.1268 15.9314 30.2154 15.9059C30.304 15.8805 30.397 15.8745 30.4881 15.8884H45.9031C45.9942 15.8745 46.0872 15.8805 46.1758 15.9059C46.2644 15.9314 46.3464 15.9756 46.4163 16.0357C46.4862 16.0958 46.5423 16.1702 46.5808 16.254C46.6192 16.3377 46.6391 16.4288 46.6391 16.521C46.6391 16.6131 46.6192 16.7042 46.5808 16.788C46.5423 16.8717 46.4862 16.9462 46.4163 17.0062C46.3464 17.0663 46.2644 17.1106 46.1758 17.136C46.0872 17.1614 45.9942 17.1674 45.9031 17.1536Z" fill="#74B974"/>
<path d="M39.5772 20.3239H30.5028C30.4117 20.3377 30.3186 20.3317 30.23 20.3063C30.1415 20.2809 30.0594 20.2366 29.9895 20.1765C29.9196 20.1165 29.8635 20.042 29.8251 19.9582C29.7866 19.8745 29.7667 19.7834 29.7667 19.6913C29.7667 19.5991 29.7866 19.508 29.8251 19.4243C29.8635 19.3405 29.9196 19.2661 29.9895 19.206C30.0594 19.1459 30.1415 19.1017 30.23 19.0762C30.3186 19.0508 30.4117 19.0448 30.5028 19.0587H39.5772C39.6684 19.0448 39.7614 19.0508 39.85 19.0762C39.9385 19.1017 40.0206 19.1459 40.0905 19.206C40.1604 19.2661 40.2165 19.3405 40.2549 19.4243C40.2934 19.508 40.3133 19.5991 40.3133 19.6913C40.3133 19.7834 40.2934 19.8745 40.2549 19.9582C40.2165 20.042 40.1604 20.1165 40.0905 20.1765C40.0206 20.2366 39.9385 20.2809 39.85 20.3063C39.7614 20.3317 39.6684 20.3377 39.5772 20.3239Z" fill="#74B974"/>
<path d="M45.2341 39.7815C44.5091 39.7474 43.81 39.5012 43.2236 39.0735C42.6371 38.6459 42.1891 38.0555 41.935 37.3756C41.6809 36.6957 41.6319 35.9562 41.7941 35.2487C41.9563 34.5412 42.3225 33.8969 42.8474 33.3956C43.3723 32.8943 44.0328 32.558 44.747 32.4285C45.4611 32.299 46.1976 32.3819 46.8651 32.667C47.5326 32.9521 48.1018 33.4268 48.5021 34.0323C48.9024 34.6378 49.1161 35.3474 49.1169 36.0732C49.0903 37.0787 48.6671 38.0328 47.9397 38.7275C47.2123 39.4222 46.2398 39.8011 45.2341 39.7815ZM45.2341 33.6301C44.7558 33.6501 44.2938 33.8101 43.9056 34.0904C43.5175 34.3707 43.2202 34.7589 43.0508 35.2067C42.8814 35.6545 42.8473 36.1422 42.9528 36.6092C43.0582 37.0762 43.2986 37.502 43.644 37.8335C43.9894 38.1651 44.4246 38.3879 44.8955 38.4742C45.3664 38.5605 45.8523 38.5066 46.2929 38.319C46.7334 38.1315 47.1091 37.8186 47.3733 37.4194C47.6375 37.0201 47.7786 36.552 47.779 36.0732C47.7638 35.4124 47.4875 34.7844 47.0106 34.3266C46.5338 33.8688 45.8951 33.6184 45.2341 33.6301Z" fill="#74B974"/>
</svg>
