<svg width="92" height="42" viewBox="0 0 92 42" fill="none" xmlns="http://www.w3.org/2000/svg">
<path d="M29.401 32.3827H66.6342C66.6342 32.3827 66.6342 32.2461 66.6342 32.1778C66.6342 32.1094 66.6342 31.8191 66.6342 31.6312H29.6401C29.5718 31.8874 29.4864 32.1436 29.401 32.3827Z" fill="#74B974"/>
<path d="M24.021 32.9463C24.021 32.7584 24.1406 32.5706 24.1918 32.3827H24.0381C24.0381 32.5706 24.021 32.7584 24.021 32.9463Z" fill="#74B974"/>
<path d="M29.4011 32.3827C29.3134 32.6446 29.2107 32.9012 29.0936 33.1513H66.6684C66.6684 32.8951 66.6684 32.6389 66.6684 32.3827H29.4011Z" fill="#74B974"/>
<path d="M24.021 31.6996C24.021 31.8875 24.021 32.0583 24.021 32.2461C24.0294 32.3142 24.0294 32.383 24.021 32.4511H24.1747C24.1747 32.212 24.2601 31.9558 24.3113 31.6996H24.021Z" fill="#74B974"/>
<path d="M26.1217 16.328C27.044 16.328 31.553 16.0376 36.7622 15.7302C42.5863 15.3715 49.1961 14.9616 51.758 14.8762H53.0902C59.2388 14.6371 77.9579 13.9369 79.1705 13.9369C79.8344 13.8967 80.4654 13.6338 80.9613 13.1906C81.4572 12.7473 81.7891 12.1498 81.9032 11.4945C81.9032 10.4527 76.8819 7.70287 75.413 7.39544H75.1739C73.3635 7.00261 69.0765 6.08032 54.6786 6.33651C50.3902 6.38382 46.119 6.88766 41.9373 7.8395C37.6025 9.23731 33.4152 11.0564 29.4351 13.2708H29.2814C25.7289 15.2349 25.4556 15.5765 25.5752 16.0035C25.6138 16.1131 25.6896 16.2056 25.7895 16.265C25.8894 16.3243 26.007 16.3466 26.1217 16.328ZM29.6401 13.9198L29.8109 13.8344C33.7346 11.6448 37.8651 9.84839 42.1423 8.47144C46.2608 7.5244 50.4698 7.0262 54.6957 6.98553H59.4267C69.9818 6.98553 73.4318 7.71995 75.0202 8.07861H75.2422C77.3975 8.83876 79.3906 9.99754 81.1176 11.4945C81.0165 11.9521 80.771 12.3651 80.4174 12.6726C80.0637 12.9801 79.6206 13.1659 79.1534 13.2024C77.9237 13.2024 59.8707 13.8856 53.056 14.1418H51.7409C49.1448 14.1418 42.5522 14.6371 36.7281 14.9787C32.5778 15.252 28.6495 15.4911 26.8903 15.5594C27.693 14.9446 29.0765 14.1931 29.6401 13.8685V13.9198ZM26.1217 15.6277V16.0035V15.6277Z" fill="#74B974"/>
<path d="M23.9527 33.1513H22.6375C22.4412 33.1424 22.2562 33.057 22.1221 32.9133C21.988 32.7697 21.9155 32.5792 21.9202 32.3827C21.9179 32.2863 21.9347 32.1903 21.9695 32.1003C22.0043 32.0104 22.0566 31.9281 22.1232 31.8583C22.1898 31.7886 22.2695 31.7326 22.3578 31.6936C22.446 31.6546 22.5411 31.6334 22.6375 31.6312H24.021C23.932 30.1962 23.4932 28.8047 22.743 27.5782C21.9928 26.3517 20.9539 25.3273 19.717 24.5945C18.617 24.9362 17.6074 25.5198 16.7622 26.3024C18.0035 26.6299 19.1103 27.3398 19.9256 28.3315C20.7409 29.3232 21.2233 30.5463 21.3046 31.8276C21.3859 33.1088 21.0618 34.3831 20.3783 35.4698C19.6948 36.5566 18.6866 37.4006 17.4966 37.8823C18.4078 38.5414 19.4507 38.9959 20.5538 39.2145C21.1928 38.7194 21.7667 38.1455 22.2618 37.5065C21.8143 37.5047 21.3681 37.459 20.9296 37.3699C22.3304 36.2917 23.3819 34.8243 23.9527 33.1513Z" fill="#74B974"/>
<path d="M22.6376 32.3827H24.0381C24.0465 32.3147 24.0465 32.2458 24.0381 32.1778C24.0381 31.9899 24.0381 31.8191 24.0381 31.6312H22.6547C22.5582 31.6334 22.4632 31.6546 22.3749 31.6936C22.2866 31.7326 22.2069 31.7886 22.1403 31.8584C22.0737 31.9281 22.0215 32.0104 21.9867 32.1003C21.9518 32.1903 21.9351 32.2863 21.9373 32.3827C21.9327 32.5792 22.0052 32.7697 22.1392 32.9133C22.2733 33.057 22.4584 33.1424 22.6547 33.1513H23.9698C23.9625 33.0832 23.9625 33.0145 23.9698 32.9463C23.9698 32.7585 23.9698 32.5706 23.9698 32.3827H22.6376Z" fill="#74B974"/>
<path d="M15.191 38.3263C13.5648 38.3263 12.0052 37.6803 10.8553 36.5304C9.70543 35.3805 9.05943 33.821 9.05943 32.1948C9.05943 30.5686 9.70543 29.009 10.8553 27.8591C12.0052 26.7093 13.5648 26.0633 15.191 26.0633C15.7223 26.0663 16.2509 26.141 16.7623 26.2853C17.6074 25.5027 18.617 24.9191 19.717 24.5773C18.354 23.7442 16.7884 23.3011 15.191 23.2964C13.0573 23.3021 10.9978 24.0801 9.39336 25.4868C7.78894 26.8934 6.74812 28.8334 6.46336 30.948H8.73493V32.4851L6.4292 32.3997C6.47727 34.0217 6.97311 35.5988 7.86185 36.9566C8.75059 38.3143 9.9976 39.3997 11.4649 40.0927C12.9322 40.7857 14.5626 41.0592 16.1758 40.8831C17.7889 40.707 19.3219 40.0881 20.6051 39.0949C19.502 38.8762 18.4591 38.4218 17.5479 37.7627C16.8085 38.1081 16.0067 38.2999 15.191 38.3263Z" fill="#74B974"/>
<path d="M91.8264 23.9797C91.8219 23.7815 91.7425 23.5924 91.6044 23.4502C90.9895 22.8524 90.9895 22.8524 91.092 21.5032V21.2811C91.2737 18.9153 91.1763 16.5362 90.8016 14.1932C90.7669 14.0609 90.7027 13.9383 90.6138 13.8345C88.0083 10.992 85.0054 8.54134 81.6983 6.55864L81.8179 6.0975C81.844 5.99068 81.8485 5.87968 81.8308 5.77111C81.8132 5.66254 81.774 5.55863 81.7154 5.46556C81.5883 5.29214 81.3981 5.1756 81.1859 5.14105C74.0809 4.21876 51.6726 2.42542 42.2789 4.97025C36.4719 6.54156 25.8485 12.0411 24.5334 12.7414C23.6282 12.861 20.4002 13.4246 15.4471 14.4494C8.92278 15.662 5.01158 16.8234 3.49151 18.0019C2.51118 19.3193 1.77111 20.7995 1.30534 22.3742L0.622162 22.972C0.36597 23.1086 -0.0610152 23.5356 0.00730264 25.1069C0.0514352 26.7878 0.527894 28.4289 1.39074 29.8721C1.12146 30.0205 0.897236 30.2388 0.741719 30.504C0.669793 30.6441 0.632276 30.7992 0.632276 30.9566C0.632276 31.1141 0.669793 31.2692 0.741719 31.4092C1.01499 31.9899 1.86896 32.2291 2.62046 32.3657L6.48041 32.5023L8.78614 32.5877V31.0506H6.51457L3.09868 30.931C3.20595 30.8421 3.29325 30.7315 3.35487 30.6065C3.40515 30.4871 3.4237 30.3567 3.40874 30.2281C3.39378 30.0994 3.3458 29.9768 3.26948 29.8721C2.27368 28.4577 1.68312 26.7982 1.56153 25.0728C1.53146 24.7604 1.53146 24.4458 1.56153 24.1334L2.44966 23.2965C2.54791 23.2071 2.62393 23.096 2.6717 22.972C3.07287 21.6173 3.64691 20.32 4.37964 19.112C5.26777 18.4118 7.94925 17.2675 15.6692 15.8328C23.6965 14.3298 24.67 14.1248 24.7042 14.1248C24.8257 14.1252 24.9445 14.0895 25.0458 14.0224C25.1824 14.0224 36.694 7.925 42.6205 6.31953C50.7503 4.11628 70.7504 5.27768 80.0758 6.43908V6.62696C80.0319 6.79326 80.0451 6.96946 80.1132 7.12737C80.1813 7.28529 80.3004 7.4158 80.4515 7.49801C83.7503 9.4236 86.7485 11.8232 89.3499 14.6201C89.6425 16.7878 89.7112 18.9798 89.5548 21.1616V21.4519C89.4524 23.0403 89.4524 23.4673 90.3576 24.4237C90.6116 25.6616 90.4866 26.9472 89.9989 28.1129C89.8623 28.6595 89.0766 29.1548 88.8034 29.2743C87.2855 29.8317 85.6884 30.143 84.0723 30.1966C84.1836 30.6908 84.2521 31.1937 84.2773 31.6996C86.0282 31.6139 87.7558 31.2626 89.4011 30.6577C90.3224 30.2489 91.0462 29.4944 91.4165 28.557C92.0136 27.1079 92.1565 25.5117 91.8264 23.9797Z" fill="#74B974"/>
<path d="M22.6718 37.8311C24.103 37.8326 25.5052 37.4271 26.7148 36.662C27.9243 35.897 28.8915 34.8038 29.5035 33.51H24.3797C24.2207 35.0805 23.6295 36.5763 22.6718 37.8311Z" fill="#74B974"/>
<path d="M67.6591 37.8311C66.2274 37.8346 64.8243 37.43 63.6144 36.6647C62.4044 35.8994 61.4376 34.8051 60.8273 33.51H65.9511C66.1101 35.0805 66.7013 36.5763 67.6591 37.8311Z" fill="#74B974"/>
<path d="M24.1919 32.3827C24.1919 32.5706 24.0723 32.7584 24.0211 32.9463C24.0127 33.0144 24.0127 33.0832 24.0211 33.1513H29.1449C29.262 32.9012 29.3647 32.6446 29.4523 32.3827H24.1919Z" fill="#74B974"/>
<path d="M24.3284 31.6996C24.3284 31.9558 24.3284 32.212 24.1918 32.4511H29.401C29.401 32.212 29.5718 31.9558 29.6401 31.6996H24.3284Z" fill="#74B974"/>
<path d="M23.9526 33.1512C23.376 34.8118 22.3249 36.2667 20.9296 37.3357C21.3681 37.4248 21.8143 37.4705 22.2618 37.4723C23.2081 36.2111 23.798 34.7187 23.9697 33.1512H23.9526Z" fill="#74B974"/>
<path d="M24.0039 33.1512C23.9955 33.0832 23.9955 33.0143 24.0039 32.9463C23.9965 33.0144 23.9965 33.0831 24.0039 33.1512Z" fill="#74B974"/>
<path d="M83.2525 30.9652C83.2383 30.764 83.3037 30.5652 83.4347 30.4119C83.5657 30.2585 83.7518 30.1628 83.9527 30.1453H84.0723C83.5793 28.0836 82.3611 26.268 80.6401 25.0302C78.9192 23.7924 76.8103 23.2151 74.6989 23.4037C72.5874 23.5922 70.6142 24.5341 69.1398 26.0572C67.6654 27.5804 66.7882 29.5831 66.6683 31.6996H67.9835C68.0799 31.7018 68.175 31.723 68.2632 31.762C68.3515 31.8009 68.4312 31.8569 68.4978 31.9267C68.5644 31.9965 68.6167 32.0787 68.6515 32.1687C68.6863 32.2587 68.7031 32.3546 68.7008 32.4511C68.7055 32.6475 68.633 32.838 68.4989 32.9817C68.3648 33.1253 68.1798 33.2108 67.9835 33.2196H66.7025C66.8951 35.5095 67.9728 37.6341 69.7067 39.1421C71.4406 40.6502 73.694 41.4229 75.9885 41.2962C78.2829 41.1694 80.4376 40.1532 81.9948 38.4634C83.5521 36.7736 84.3892 34.5433 84.3285 32.2461C84.3285 32.0582 84.3285 31.8875 84.3285 31.6996H84.1235C84.0172 31.714 83.909 31.7059 83.8059 31.6759C83.7029 31.6459 83.6072 31.5947 83.5252 31.5255C83.4431 31.4563 83.3764 31.3707 83.3295 31.2742C83.2825 31.1777 83.2563 31.0724 83.2525 30.9652ZM75.4643 38.3264C74.2516 38.3264 73.0661 37.9668 72.0578 37.2931C71.0494 36.6193 70.2635 35.6617 69.7995 34.5413C69.3354 33.4209 69.214 32.1881 69.4505 30.9987C69.6871 29.8093 70.2711 28.7168 71.1286 27.8592C71.9861 27.0017 73.0787 26.4178 74.2681 26.1812C75.4575 25.9446 76.6903 26.066 77.8107 26.5301C78.9311 26.9942 79.8887 27.7801 80.5624 28.7884C81.2362 29.7967 81.5958 30.9822 81.5958 32.1949C81.5958 33.8211 80.9498 35.3806 79.7999 36.5305C78.65 37.6804 77.0904 38.3264 75.4643 38.3264Z" fill="#74B974"/>
<path d="M68.7008 32.3827C68.7031 32.2863 68.6863 32.1903 68.6515 32.1003C68.6167 32.0104 68.5644 31.9281 68.4978 31.8584C68.4312 31.7886 68.3515 31.7326 68.2632 31.6936C68.175 31.6546 68.0799 31.6334 67.9835 31.6312H66.6683C66.6683 31.8191 66.6683 31.9899 66.6683 32.1778C66.6683 32.3656 66.6683 32.3144 66.6683 32.3827C66.6683 32.6389 66.6683 32.8951 66.6683 33.1513H67.9493C68.0494 33.1513 68.1486 33.1313 68.2409 33.0925C68.3332 33.0537 68.4168 32.9968 68.4868 32.9252C68.5568 32.8536 68.6118 32.7687 68.6486 32.6756C68.6853 32.5824 68.7031 32.4828 68.7008 32.3827Z" fill="#74B974"/>
<path d="M83.9528 30.1453C83.7518 30.1627 83.5658 30.2584 83.4348 30.4118C83.3038 30.5652 83.2383 30.7639 83.2525 30.9651C83.2699 31.166 83.3657 31.3521 83.519 31.4831C83.6724 31.6141 83.8711 31.6795 84.0723 31.6653H84.2773C84.2521 31.1594 84.1836 30.6565 84.0723 30.1623L83.9528 30.1453Z" fill="#74B974"/>
<path d="M38.3165 21.7764C38.3838 21.6533 38.419 21.5153 38.419 21.375C38.419 21.2348 38.3838 21.0967 38.3165 20.9736C38.2311 20.837 36.1816 17.5578 33.4318 17.5578H32.9535C26.3287 17.5385 19.71 17.9607 13.1414 18.8216C10.1696 19.2999 7.31729 22.6133 7.19773 22.7499C7.16097 22.7835 7.13161 22.8244 7.11152 22.87C7.09143 22.9156 7.08105 22.9648 7.08105 23.0146C7.08105 23.0645 7.09143 23.1137 7.11152 23.1593C7.13161 23.2049 7.16097 23.2458 7.19773 23.2794C7.26812 23.3493 7.36328 23.3885 7.46246 23.3885C7.56165 23.3885 7.65681 23.3493 7.72719 23.2794C7.72719 23.2794 10.5111 20.0343 13.2097 19.6073C19.7369 18.7304 26.3165 18.3024 32.9023 18.3263H33.3634C35.3105 18.3263 37.0868 20.5125 37.6162 21.4348C37.1722 22.4083 31.8946 23.8088 27.7614 24.6287C27.9663 24.8507 28.1371 25.0898 28.325 25.3118C31.3652 24.714 37.5821 23.2794 38.3165 21.7764Z" fill="#74B974"/>
<path d="M26.3609 25.2948C26.3807 25.3836 26.4306 25.4628 26.5023 25.5188C26.5739 25.5749 26.6628 25.6044 26.7537 25.6022C27.0612 25.6022 27.5736 25.4656 28.2055 25.3289C28.0176 25.1069 27.8468 24.8678 27.6419 24.6458L26.6 24.8507C26.5164 24.8875 26.4474 24.9512 26.4041 25.0316C26.3608 25.1121 26.3456 25.2047 26.3609 25.2948Z" fill="#74B974"/>
<path d="M74.1833 16.328C67.5907 16.328 62.0057 16.533 60.5198 17.4894C59.3925 18.2068 57.2918 20.2734 57.3772 21.691C57.3844 21.913 57.456 22.1281 57.5834 22.3101C57.7108 22.492 57.8884 22.633 58.0945 22.7158C59.5975 23.3648 64.9263 25.0386 65.1654 25.1069C65.1814 25.1145 65.1989 25.1184 65.2166 25.1184C65.2344 25.1184 65.2519 25.1145 65.2679 25.1069C65.3589 25.1031 65.4455 25.0664 65.5115 25.0035C65.5774 24.9407 65.6183 24.856 65.6265 24.7653C65.6598 24.661 65.6518 24.5479 65.6041 24.4494C65.5565 24.3509 65.4728 24.2744 65.3703 24.2358C65.3703 24.2358 59.8366 22.5279 58.3678 21.8618C58.1628 21.7593 58.1457 21.6568 58.1457 21.5885C58.1457 20.8541 59.5462 19.0437 60.8784 18.1726C62.2106 17.3016 69.5548 17.1649 74.2858 17.1137C79.0168 17.0625 79.4096 17.4382 84.004 22.9549C84.0361 22.9942 84.0764 23.0258 84.1222 23.0476C84.168 23.0693 84.2181 23.0806 84.2688 23.0806C84.3194 23.0806 84.3695 23.0693 84.4153 23.0476C84.4611 23.0258 84.5015 22.9942 84.5335 22.9549C84.5986 22.8688 84.6338 22.7639 84.6338 22.656C84.6338 22.5481 84.5986 22.4431 84.5335 22.3571C80.0416 16.9429 79.1535 16.2256 74.1833 16.328Z" fill="#74B974"/>
<path d="M57.4114 4.6286C54.11 2.01182 49.9579 0.707476 45.7532 0.966228C41.5484 1.22498 37.5877 3.02858 34.632 6.03041C31.6764 9.03224 29.9344 13.0205 29.7408 17.2288C29.5473 21.437 30.9158 25.5683 33.5835 28.8288C36.2511 32.0892 40.0296 34.2488 44.1929 34.8924C48.3561 35.536 52.6104 34.6182 56.138 32.3155C59.6657 30.0128 62.2179 26.4876 63.3041 22.4174C64.3904 18.3471 63.9341 14.019 62.0228 10.2648" fill="white"/>
<path d="M46.8562 31.2384C46.2853 31.2397 45.7148 31.2054 45.1482 31.1359C41.6702 30.68 38.5136 28.8675 36.3667 26.0935C34.2198 23.3195 33.2569 19.8092 33.6879 16.328C33.9875 13.9019 34.9515 11.6057 36.4734 9.69272C37.9953 7.77972 40.016 6.32426 42.3126 5.48687C44.6092 4.64949 47.0925 4.46272 49.4886 4.94718C51.8846 5.43164 54.1003 6.5685 55.8912 8.23235C55.9851 8.32813 56.0376 8.4569 56.0376 8.59102C56.0376 8.72513 55.9851 8.85391 55.8912 8.94969C55.7934 9.03971 55.6654 9.08968 55.5325 9.08968C55.3996 9.08968 55.2716 9.03971 55.1738 8.94969C52.9767 6.90994 50.1093 5.74438 47.1122 5.67274C44.1151 5.60109 41.1953 6.62831 38.9032 8.56075C36.6112 10.4932 35.1052 13.1973 34.6692 16.1634C34.2332 19.1296 34.8973 22.1527 36.5363 24.663C38.1753 27.1733 40.676 28.9973 43.567 29.7911C46.4579 30.585 49.5394 30.2939 52.2306 28.9727C54.9217 27.6515 57.0366 25.3914 58.1765 22.6186C59.3165 19.8458 59.4027 16.7518 58.4189 13.9198C58.3792 13.7928 58.3888 13.6555 58.4458 13.5352C58.5028 13.4149 58.6029 13.3205 58.7264 13.2708C58.7903 13.2494 58.8578 13.2408 58.925 13.2455C58.9923 13.2503 59.0579 13.2682 59.1182 13.2984C59.1785 13.3285 59.2323 13.3703 59.2764 13.4212C59.3205 13.4722 59.3542 13.5313 59.3754 13.5953C60.0772 15.5946 60.2893 17.7331 59.9941 19.8313C59.6989 21.9296 58.9048 23.9265 57.6786 25.6546C56.4524 27.3826 54.8297 28.7915 52.9467 29.7631C51.0636 30.7346 48.9751 31.2405 46.8562 31.2384Z" fill="#74B974"/>
<path d="M47.6248 25.8242C47.394 25.8237 47.1728 25.7315 47.0099 25.568L38.7947 17.4553C38.7128 17.3745 38.6477 17.2785 38.6029 17.1725C38.5582 17.0666 38.5347 16.9529 38.534 16.8379C38.5332 16.7229 38.555 16.6089 38.5983 16.5024C38.6416 16.3959 38.7054 16.2989 38.7861 16.217C38.8669 16.1352 38.963 16.07 39.0689 16.0253C39.1748 15.9805 39.2885 15.9571 39.4035 15.9563C39.5185 15.9555 39.6325 15.9774 39.739 16.0207C39.8456 16.0639 39.9425 16.1278 40.0244 16.2085L47.5052 23.5697L62.2277 2.01547C62.2927 1.9212 62.3756 1.84066 62.4717 1.77847C62.5679 1.71628 62.6753 1.67366 62.788 1.65304C62.9006 1.63242 63.0162 1.6342 63.1281 1.65829C63.2401 1.68238 63.3461 1.72831 63.4403 1.79344C63.6346 1.9252 63.7688 2.12853 63.8136 2.35896C63.8584 2.5894 63.8102 2.82819 63.6794 3.02316L48.3762 25.4314C48.3013 25.5384 48.2049 25.6286 48.0932 25.6962C47.9814 25.7639 47.8568 25.8075 47.7272 25.8242H47.6248Z" fill="#74B974" stroke="#74B974" stroke-miterlimit="10"/>
<path d="M46.8563 35.8669C42.1 35.8669 37.5386 33.9775 34.1754 30.6143C30.8123 27.2512 28.9229 22.6897 28.9229 17.9335C28.9229 13.1773 30.8123 8.61583 34.1754 5.25266C37.5386 1.88949 42.1 8.37952e-05 46.8563 8.37952e-05C50.8908 -0.012334 54.8082 1.35574 57.9579 3.87712C58.05 3.94714 58.127 4.03515 58.184 4.13581C58.2411 4.23647 58.2771 4.34768 58.2899 4.46268C58.3027 4.57769 58.2919 4.69409 58.2584 4.80482C58.2248 4.91555 58.1691 5.0183 58.0946 5.10684C58.0231 5.19698 57.9345 5.27208 57.8338 5.32779C57.7332 5.3835 57.6225 5.41873 57.5082 5.43143C57.3938 5.44414 57.2781 5.43407 57.1677 5.4018C57.0573 5.36954 56.9543 5.31573 56.8648 5.24347C54.0128 3.00237 50.4834 1.7978 46.8563 1.82758C43.667 1.82761 40.5492 2.77251 37.8965 4.543C35.2437 6.3135 33.175 8.83021 31.9514 11.7754C30.7278 14.7207 30.4043 17.9624 31.0215 21.0914C31.6388 24.2204 33.1692 27.0964 35.4196 29.3563C37.67 31.6162 40.5395 33.1588 43.6658 33.7892C46.7922 34.4197 50.0352 34.1098 52.9856 32.8987C55.936 31.6875 58.4614 29.6295 60.2431 26.9842C62.0248 24.339 62.9829 21.2252 62.9964 18.036C63.0226 15.4975 62.4368 12.99 61.2884 10.726C61.1912 10.5165 61.1777 10.2778 61.2508 10.0587C61.3238 9.83964 61.4778 9.65676 61.6812 9.54749C61.7832 9.4943 61.8947 9.46183 62.0092 9.45194C62.1238 9.44205 62.2392 9.45494 62.3488 9.48987C62.4583 9.5248 62.5599 9.58108 62.6476 9.65546C62.7353 9.72985 62.8074 9.82085 62.8597 9.92324C64.2332 12.6532 64.8848 15.6893 64.7525 18.7424C64.6202 21.7955 63.7085 24.7639 62.1041 27.3648C60.4997 29.9658 58.2561 32.1126 55.587 33.6009C52.9179 35.0892 49.9122 35.8693 46.8563 35.8669Z" fill="#74B974"/>
<path d="M48.3763 22.8183L62.2107 2.81824" stroke="white" stroke-width="0.4" stroke-linecap="round" stroke-linejoin="round"/>
</svg>
