<svg width="41" height="59" viewBox="0 0 41 59" fill="none" xmlns="http://www.w3.org/2000/svg">
<path d="M20.732 35.5841C18.7442 35.5881 16.7753 35.1995 14.938 34.4406C13.1008 33.6817 11.4315 32.5675 10.0259 31.162C8.62037 29.7564 7.50618 28.0871 6.74732 26.2499C5.98845 24.4127 5.59984 22.4437 5.6038 20.4559C5.59771 17.6664 6.36303 14.9295 7.81515 12.5477C9.26727 10.166 11.3497 8.23208 13.8321 6.9598C16.3146 5.68752 19.1006 5.1264 21.882 5.33846C24.6635 5.55051 27.3321 6.52749 29.5931 8.1614C29.6558 8.20334 29.7093 8.25763 29.7503 8.32095C29.7913 8.38427 29.819 8.45529 29.8316 8.52967C29.8442 8.60405 29.8416 8.68022 29.8237 8.75353C29.8059 8.82685 29.7733 8.89575 29.728 8.95604C29.6835 9.01807 29.627 9.07053 29.5618 9.11029C29.4966 9.15005 29.4241 9.1763 29.3486 9.18749C29.2731 9.19867 29.1961 9.19457 29.1221 9.17542C29.0482 9.15626 28.9789 9.12245 28.9184 9.07599C26.1 7.05834 22.6324 6.16014 19.1889 6.55584C15.7454 6.95154 12.5719 8.6129 10.2847 11.2172C7.99746 13.8216 6.75978 17.1831 6.81201 20.6488C6.86424 24.1145 8.20266 27.4372 10.5673 29.9714C12.932 32.5057 16.1541 34.0706 19.608 34.3624C23.0618 34.6541 26.5008 33.6518 29.2571 31.5502C32.0133 29.4485 33.8902 26.3975 34.523 22.9896C35.1559 19.5818 34.4996 16.0603 32.6817 13.1092C32.6408 13.0466 32.613 12.9765 32.5999 12.9029C32.5868 12.8293 32.5888 12.7538 32.6056 12.681C32.6224 12.6082 32.6537 12.5395 32.6977 12.4791C32.7417 12.4187 32.7974 12.3679 32.8616 12.3295C32.9914 12.2503 33.147 12.2247 33.2954 12.2583C33.4438 12.2919 33.5732 12.382 33.6562 12.5095C35.0733 14.805 35.8507 17.4377 35.908 20.1347C35.9653 22.8318 35.3003 25.4951 33.982 27.8487C32.6638 30.2024 30.7401 32.1607 28.4104 33.5208C26.0807 34.8808 23.4297 35.5932 20.732 35.5841Z" fill="#74B974"/>
<path d="M20.7319 40.7118C16.0498 40.7056 11.5148 39.0763 7.89914 36.1016C4.28351 33.1269 1.81096 28.9908 0.902644 24.3977C-0.0056721 19.8046 0.706427 15.0386 2.91765 10.9116C5.12887 6.78462 8.70244 3.55183 13.0297 1.76391C17.3569 -0.0240195 22.1701 -0.256496 26.6495 1.10607C31.1289 2.46864 34.9974 5.34198 37.5961 9.23666C40.1948 13.1313 41.3629 17.8065 40.9014 22.4657C40.44 27.125 38.3776 31.4802 35.0655 34.7895C33.1824 36.6698 30.9473 38.1606 28.4879 39.1768C26.0285 40.193 23.393 40.7146 20.7319 40.7118ZM20.7319 2.19409C17.7273 2.19283 14.7687 2.93295 12.1186 4.34883C9.46854 5.76471 7.20873 7.81261 5.53958 10.3109C3.87042 12.8093 2.84349 15.6809 2.54984 18.6711C2.25619 21.6613 2.70488 24.6779 3.85614 27.4532C5.0074 30.2285 6.82566 32.6769 9.1497 34.5812C11.4737 36.4856 14.2318 37.7871 17.1792 38.3703C20.1267 38.9536 23.1726 38.8006 26.0467 37.9249C28.9209 37.0492 31.5346 35.4778 33.6561 33.3501C36.2116 30.7973 37.9519 27.5435 38.6566 24.0007C39.3613 20.458 38.9987 16.7858 37.6147 13.4494C36.2306 10.1129 33.8875 7.26232 30.882 5.25866C27.8765 3.255 24.344 2.18844 20.7319 2.19409Z" fill="#74B974"/>
<path d="M14.4347 28.8821L15.4243 21.9252L10.8513 17.0674L17.3284 15.823L20.7169 9.54077L24.0454 15.733L30.7624 16.9624L25.9496 21.5804L26.8492 28.8821L20.3421 24.9988L14.4347 28.8821Z" fill="white"/>
<path d="M14.3598 29.9467C14.1832 29.95 14.01 29.8975 13.865 29.7968C13.7344 29.7033 13.6329 29.575 13.5719 29.4265C13.5109 29.278 13.493 29.1154 13.5201 28.9571L14.6446 22.3751L9.83178 17.6672C9.71298 17.5571 9.62854 17.4151 9.58863 17.2581C9.54873 17.1012 9.55507 16.936 9.60688 16.7826C9.65677 16.6283 9.74952 16.4914 9.8743 16.3879C9.99908 16.2843 10.1507 16.2184 10.3116 16.1979L16.9686 15.2233L19.9672 9.22598C20.0365 9.08088 20.1446 8.95782 20.2796 8.87048C20.4146 8.78313 20.5712 8.73492 20.7319 8.7312C20.8934 8.73137 21.0515 8.77814 21.1871 8.8659C21.3228 8.95366 21.4302 9.07869 21.4966 9.22598L24.4952 15.2233L31.1672 16.1979C31.331 16.2192 31.4853 16.2867 31.6121 16.3924C31.7389 16.4982 31.8329 16.6379 31.8832 16.7952C31.9336 16.9524 31.9381 17.1208 31.8962 17.2805C31.8544 17.4402 31.768 17.5848 31.647 17.6972L26.7292 22.3751L27.8687 29.0171C27.8941 29.1753 27.8754 29.3373 27.8145 29.4855C27.7537 29.6336 27.6531 29.7621 27.5239 29.8567C27.3887 29.9404 27.233 29.9847 27.0741 29.9847C26.9151 29.9847 26.7594 29.9404 26.6243 29.8567L20.7319 26.7231L14.7346 29.8717C14.6184 29.9294 14.4891 29.9552 14.3598 29.9467ZM12.2757 17.5922L16.2339 21.4005C16.3317 21.4971 16.4057 21.6151 16.4499 21.7452C16.4942 21.8754 16.5075 22.014 16.4888 22.1502L15.5592 27.5178L20.3871 24.9989C20.5091 24.9248 20.6491 24.8856 20.7919 24.8856C20.9346 24.8856 21.0747 24.9248 21.1967 24.9989L26.0095 27.5178L25.0949 22.1502C25.0725 22.0139 25.084 21.8742 25.1285 21.7434C25.1729 21.6127 25.249 21.4949 25.3498 21.4005L29.2481 17.5922L23.8655 16.8126C23.7271 16.7971 23.5951 16.7462 23.4822 16.6647C23.3692 16.5833 23.2792 16.4742 23.2208 16.3478L20.7319 11.46L18.348 16.3778C18.2895 16.5041 18.1995 16.6133 18.0866 16.6947C17.9736 16.7761 17.8416 16.8271 17.7033 16.8426L12.2757 17.5922Z" fill="#74B974"/>
<path d="M15.8742 58.239C15.7116 58.2399 15.5513 58.2006 15.4074 58.1248C15.2636 58.049 15.1407 57.9389 15.0495 57.8042L11.2112 52.2117L4.97404 54.8505C4.80002 54.9287 4.60711 54.9549 4.41855 54.9259C4.22999 54.897 4.05381 54.8142 3.91123 54.6874C3.76865 54.5607 3.66574 54.3954 3.6149 54.2116C3.56405 54.0277 3.56744 53.8331 3.62465 53.6511L8.48247 37.0385C8.57625 36.809 8.7516 36.6223 8.97476 36.5143C9.19793 36.4063 9.45316 36.3846 9.69134 36.4535C9.92952 36.5223 10.1338 36.6768 10.2649 36.8872C10.3961 37.0976 10.4447 37.3491 10.4016 37.5933L6.12852 52.1817L11.1813 50.0377C11.3946 49.9519 11.6307 49.9408 11.8511 50.0061C12.0716 50.0715 12.2635 50.2094 12.3957 50.3975L15.4993 54.8955L19.7724 40.367C19.8662 40.1375 20.0415 39.9508 20.2647 39.8428C20.4879 39.7348 20.7431 39.7131 20.9813 39.782C21.2195 39.8508 21.4238 40.0053 21.5549 40.2157C21.686 40.4261 21.7347 40.6776 21.6916 40.9218L16.8337 57.5193C16.782 57.7002 16.6797 57.8625 16.539 57.9873C16.3982 58.1121 16.2248 58.1942 16.0391 58.224L15.8742 58.239Z" fill="#74B974"/>
<path d="M25.5898 58.239H25.4249C25.2391 58.2092 25.0657 58.1271 24.925 58.0023C24.7842 57.8774 24.682 57.7151 24.6302 57.5343L19.7724 40.8917C19.7336 40.7667 19.7203 40.6352 19.7334 40.505C19.7465 40.3747 19.7857 40.2485 19.8487 40.1338C19.9117 40.019 19.9971 39.9181 20.0999 39.8371C20.2027 39.7561 20.3208 39.6967 20.4471 39.6623C20.5731 39.6233 20.7056 39.6099 20.8368 39.6228C20.9681 39.6357 21.0954 39.6748 21.2113 39.7377C21.3273 39.8005 21.4295 39.8859 21.5119 39.9888C21.5944 40.0918 21.6555 40.2101 21.6915 40.337L25.9646 54.9254L29.0682 50.4275C29.2004 50.2393 29.3923 50.1014 29.6128 50.0361C29.8333 49.9707 30.0693 49.9819 30.2827 50.0676L35.3354 52.2117L31.0623 37.6232C31.0235 37.4982 31.0102 37.3667 31.0234 37.2364C31.0365 37.1062 31.0757 36.98 31.1387 36.8652C31.2016 36.7505 31.2871 36.6496 31.3899 36.5686C31.4927 36.4876 31.6107 36.4281 31.737 36.3937C31.863 36.3547 31.9955 36.3413 32.1268 36.3543C32.258 36.3672 32.3853 36.4063 32.5013 36.4691C32.6172 36.532 32.7194 36.6174 32.8019 36.7203C32.8843 36.8232 32.9454 36.9416 32.9815 37.0684L37.8393 53.681C37.8965 53.863 37.8999 54.0576 37.849 54.2415C37.7982 54.4254 37.6953 54.5906 37.5527 54.7174C37.4101 54.8441 37.2339 54.9269 37.0454 54.9559C36.8568 54.9848 36.6639 54.9586 36.4899 54.8805L30.2527 52.2117L26.4144 57.8042C26.3233 57.9388 26.2003 58.0489 26.0565 58.1247C25.9127 58.2006 25.7524 58.2398 25.5898 58.239Z" fill="#74B974"/>
</svg>
