<svg width="37" height="48" viewBox="0 0 37 48" fill="none" xmlns="http://www.w3.org/2000/svg">
<path d="M20.2201 37.1479C24.7549 37.1479 28.4312 33.4394 28.4312 28.8648C28.4312 24.2901 24.7549 20.5817 20.2201 20.5817C15.6853 20.5817 12.009 24.2901 12.009 28.8648C12.009 33.4394 15.6853 37.1479 20.2201 37.1479Z" fill="white"/>
<path d="M28.6822 47.5714H3.44638C2.957 47.5532 2.47654 47.4339 2.03474 47.2208C1.59294 47.0077 1.19919 46.7054 0.877889 46.3326C0.556584 45.9598 0.314556 45.5244 0.166789 45.0535C0.0190211 44.5825 -0.0313399 44.0859 0.0188223 43.5945V4.47139C-0.00548412 3.33416 0.314214 2.21644 0.935347 1.26707C1.22132 0.867011 1.59913 0.542818 2.03644 0.322244C2.47375 0.10167 2.95753 -0.00871562 3.44638 0.000537263H33.2021C33.7434 0.0233177 34.2743 0.158048 34.7618 0.396372C35.2494 0.634695 35.6832 0.971529 36.0363 1.38598C36.3895 1.80043 36.6545 2.28366 36.8149 2.8057C36.9752 3.32774 37.0276 3.87744 36.9686 4.42073V36.8059C37.0064 36.9538 37.0101 37.1083 36.9795 37.2579C36.9489 37.4074 36.8848 37.5478 36.7921 37.6685C36.6994 37.7892 36.5806 37.8869 36.4447 37.9541C36.3088 38.0213 36.1595 38.0562 36.0081 38.0562C35.8568 38.0562 35.7075 38.0213 35.5716 37.9541C35.4357 37.8869 35.3168 37.7892 35.2241 37.6685C35.1314 37.5478 35.0673 37.4074 35.0368 37.2579C35.0062 37.1083 35.0099 36.9538 35.0477 36.8059V4.47139C35.0617 4.21751 35.0233 3.96346 34.9349 3.72533C34.8465 3.4872 34.7101 3.27018 34.5342 3.08802C34.3584 2.90586 34.1469 2.76252 33.9133 2.66708C33.6796 2.57164 33.4289 2.52619 33.177 2.5336H3.44638C3.23497 2.51187 3.02155 2.54463 2.82612 2.62881C2.63068 2.71298 2.45963 2.84582 2.32897 3.01488C2.06208 3.45267 1.92284 3.95746 1.9272 4.47139V43.6072C1.91634 43.8113 1.94819 44.0155 2.0207 44.2064C2.0932 44.3973 2.20472 44.5706 2.34802 44.7152C2.49131 44.8597 2.66317 44.9722 2.8524 45.0454C3.04164 45.1185 3.24402 45.1506 3.44638 45.1397H28.6948C28.8404 45.1583 28.9809 45.2061 29.1081 45.2801C29.2352 45.3542 29.3465 45.4531 29.4353 45.571C29.5242 45.6889 29.5888 45.8235 29.6255 45.9669C29.6622 46.1103 29.6702 46.2597 29.649 46.4062C29.6701 46.6892 29.5808 46.9693 29.4003 47.187C29.2197 47.4046 28.9621 47.5425 28.6822 47.5714Z" fill="#74B974"/>
<path d="M31.1304 8.30898H5.02827C4.90661 8.32384 4.7832 8.31249 4.66621 8.27568C4.54922 8.23886 4.4413 8.17743 4.34958 8.09543C4.25786 8.01343 4.18444 7.91274 4.13415 7.8C4.08387 7.68726 4.05786 7.56504 4.05786 7.44141C4.05786 7.31778 4.08387 7.19556 4.13415 7.08282C4.18444 6.97008 4.25786 6.86939 4.34958 6.78739C4.4413 6.70539 4.54922 6.64396 4.66621 6.60715C4.7832 6.57033 4.90661 6.55898 5.02827 6.57384H31.0676C31.2778 6.5995 31.4714 6.70193 31.6119 6.86178C31.7523 7.02163 31.8298 7.22782 31.8298 7.44141C31.8298 7.655 31.7523 7.86119 31.6119 8.02104C31.4714 8.18089 31.2778 8.28332 31.0676 8.30898H31.1304Z" fill="#74B974"/>
<path d="M31.1304 11.3993H5.02827C4.90661 11.4142 4.7832 11.4028 4.66621 11.366C4.54922 11.3292 4.4413 11.2678 4.34958 11.1858C4.25786 11.1038 4.18444 11.0031 4.13415 10.8903C4.08387 10.7776 4.05786 10.6554 4.05786 10.5317C4.05786 10.4081 4.08387 10.2859 4.13415 10.1732C4.18444 10.0604 4.25786 9.95972 4.34958 9.87772C4.4413 9.79573 4.54922 9.73429 4.66621 9.69748C4.7832 9.66067 4.90661 9.64931 5.02827 9.66417H31.0676C31.2778 9.68984 31.4714 9.79227 31.6119 9.95212C31.7523 10.112 31.8298 10.3182 31.8298 10.5317C31.8298 10.7453 31.7523 10.9515 31.6119 11.1114C31.4714 11.2712 31.2778 11.3737 31.0676 11.3993H31.1304Z" fill="#74B974"/>
<path d="M31.1304 14.439H5.02827C4.90661 14.4538 4.7832 14.4425 4.66621 14.4057C4.54922 14.3689 4.4413 14.3074 4.34958 14.2254C4.25786 14.1434 4.18444 14.0427 4.13415 13.93C4.08387 13.8173 4.05786 13.695 4.05786 13.5714C4.05786 13.4478 4.08387 13.3256 4.13415 13.2128C4.18444 13.1001 4.25786 12.9994 4.34958 12.9174C4.4413 12.8354 4.54922 12.774 4.66621 12.7372C4.7832 12.7003 4.90661 12.689 5.02827 12.7038H31.0676C31.2778 12.7295 31.4714 12.8319 31.6119 12.9918C31.7523 13.1516 31.8298 13.3578 31.8298 13.5714C31.8298 13.785 31.7523 13.9912 31.6119 14.151C31.4714 14.3109 31.2778 14.4133 31.0676 14.439H31.1304Z" fill="#74B974"/>
<path d="M31.1304 17.5041H5.02827C4.90661 17.5189 4.7832 17.5076 4.66621 17.4707C4.54922 17.4339 4.4413 17.3725 4.34958 17.2905C4.25786 17.2085 4.18444 17.1078 4.13415 16.9951C4.08387 16.8823 4.05786 16.7601 4.05786 16.6365C4.05786 16.5129 4.08387 16.3906 4.13415 16.2779C4.18444 16.1651 4.25786 16.0645 4.34958 15.9825C4.4413 15.9005 4.54922 15.839 4.66621 15.8022C4.7832 15.7654 4.90661 15.7541 5.02827 15.7689H31.0676C31.2778 15.7946 31.4714 15.897 31.6119 16.0568C31.7523 16.2167 31.8298 16.4229 31.8298 16.6365C31.8298 16.8501 31.7523 17.0563 31.6119 17.2161C31.4714 17.376 31.2778 17.4784 31.0676 17.5041H31.1304Z" fill="#74B974"/>
<path d="M9.72401 26.091H3.87331C3.72014 26.091 3.57324 26.0296 3.46493 25.9204C3.35662 25.8111 3.29578 25.6629 3.29578 25.5084C3.29898 25.3549 3.36086 25.2086 3.46848 25.1C3.5761 24.9914 3.72115 24.929 3.87331 24.9258H9.72401C9.87718 24.9258 10.0241 24.9872 10.1324 25.0964C10.2407 25.2057 10.3015 25.3539 10.3015 25.5084C10.3033 25.5854 10.2895 25.6619 10.2611 25.7334C10.2327 25.8048 10.1902 25.8698 10.1362 25.9242C10.0822 25.9786 10.0179 26.0215 9.94704 26.0502C9.87619 26.0788 9.80032 26.0927 9.72401 26.091Z" fill="#74B974"/>
<path d="M9.30965 29.5613H3.87327C3.79116 29.5737 3.70737 29.568 3.62763 29.5447C3.54789 29.5214 3.47406 29.481 3.41119 29.4263C3.34832 29.3716 3.29787 29.3039 3.26329 29.2277C3.22871 29.1516 3.21082 29.0688 3.21082 28.9851C3.21082 28.9013 3.22871 28.8186 3.26329 28.7424C3.29787 28.6663 3.34832 28.5985 3.41119 28.5439C3.47406 28.4892 3.54789 28.4488 3.62763 28.4255C3.70737 28.4022 3.79116 28.3965 3.87327 28.4088H9.30965C9.39177 28.3965 9.47556 28.4022 9.5553 28.4255C9.63504 28.4488 9.70886 28.4892 9.77174 28.5439C9.83461 28.5985 9.88506 28.6663 9.91963 28.7424C9.95421 28.8186 9.97211 28.9013 9.97211 28.9851C9.97211 29.0688 9.95421 29.1516 9.91963 29.2277C9.88506 29.3039 9.83461 29.3716 9.77174 29.4263C9.70886 29.481 9.63504 29.5214 9.5553 29.5447C9.47556 29.568 9.39177 29.5737 9.30965 29.5613Z" fill="#74B974"/>
<path d="M9.72397 32.9304H3.87327C3.79116 32.9427 3.70737 32.937 3.62763 32.9137C3.54789 32.8904 3.47406 32.85 3.41119 32.7953C3.34832 32.7406 3.29787 32.6729 3.26329 32.5967C3.22871 32.5206 3.21082 32.4378 3.21082 32.3541C3.21082 32.2703 3.22871 32.1876 3.26329 32.1114C3.29787 32.0353 3.34832 31.9676 3.41119 31.9129C3.47406 31.8582 3.54789 31.8178 3.62763 31.7945C3.70737 31.7712 3.79116 31.7655 3.87327 31.7778H9.72397C9.80609 31.7655 9.88988 31.7712 9.96962 31.7945C10.0494 31.8178 10.1232 31.8582 10.1861 31.9129C10.2489 31.9676 10.2994 32.0353 10.334 32.1114C10.3685 32.1876 10.3864 32.2703 10.3864 32.3541C10.3864 32.4378 10.3685 32.5206 10.334 32.5967C10.2994 32.6729 10.2489 32.7406 10.1861 32.7953C10.1232 32.85 10.0494 32.8904 9.96962 32.9137C9.88988 32.937 9.80609 32.9427 9.72397 32.9304Z" fill="#74B974"/>
<path d="M20.3581 26.091H14.5451C14.4688 26.0927 14.3929 26.0788 14.3221 26.0502C14.2512 26.0215 14.1869 25.9786 14.1329 25.9242C14.0789 25.8698 14.0364 25.8048 14.008 25.7334C13.9796 25.6619 13.9658 25.5854 13.9675 25.5084C13.9675 25.3539 14.0284 25.2057 14.1367 25.0964C14.245 24.9872 14.3919 24.9258 14.5451 24.9258H20.3581C20.5091 24.9291 20.6528 24.9919 20.7584 25.1008C20.864 25.2097 20.9231 25.356 20.9231 25.5084C20.9248 25.5843 20.9114 25.6598 20.8838 25.7304C20.8561 25.801 20.8148 25.8653 20.7621 25.9196C20.7095 25.9739 20.6466 26.017 20.5773 26.0464C20.5079 26.0759 20.4334 26.091 20.3581 26.091Z" fill="#74B974"/>
<path d="M20.3581 29.5613H14.9217C14.8396 29.5737 14.7558 29.568 14.6761 29.5447C14.5963 29.5214 14.5225 29.481 14.4596 29.4263C14.3968 29.3716 14.3463 29.3039 14.3118 29.2277C14.2772 29.1516 14.2593 29.0688 14.2593 28.9851C14.2593 28.9013 14.2772 28.8186 14.3118 28.7424C14.3463 28.6663 14.3968 28.5985 14.4596 28.5439C14.5225 28.4892 14.5963 28.4488 14.6761 28.4255C14.7558 28.4022 14.8396 28.3965 14.9217 28.4088H20.3581C20.4951 28.4293 20.6201 28.4988 20.7106 28.6046C20.801 28.7104 20.8507 28.8454 20.8507 28.9851C20.8507 29.1247 20.801 29.2598 20.7106 29.3655C20.6201 29.4713 20.4951 29.5408 20.3581 29.5613Z" fill="#74B974"/>
<path d="M20.3581 32.9304H15.336C15.2539 32.9427 15.1701 32.937 15.0904 32.9137C15.0107 32.8904 14.9368 32.85 14.874 32.7953C14.8111 32.7406 14.7606 32.6729 14.7261 32.5967C14.6915 32.5206 14.6736 32.4378 14.6736 32.3541C14.6736 32.2703 14.6915 32.1876 14.7261 32.1114C14.7606 32.0353 14.8111 31.9676 14.874 31.9129C14.9368 31.8582 15.0107 31.8178 15.0904 31.7945C15.1701 31.7712 15.2539 31.7655 15.336 31.7778H20.3581C20.4951 31.7984 20.6201 31.8678 20.7106 31.9736C20.801 32.0794 20.8507 32.2144 20.8507 32.3541C20.8507 32.4938 20.801 32.6288 20.7106 32.7346C20.6201 32.8403 20.4951 32.9098 20.3581 32.9304Z" fill="#74B974"/>
<path d="M20.2201 38.3384C18.3621 38.3409 16.5452 37.7874 14.9992 36.748C13.4531 35.7085 12.2475 34.2298 11.5348 32.499C10.822 30.7681 10.6343 28.8629 10.9952 27.0243C11.3562 25.1858 12.2496 23.4965 13.5625 22.1704C14.8754 20.8442 16.5487 19.9407 18.3708 19.5741C20.1928 19.2075 22.0818 19.3944 23.7985 20.111C25.5153 20.8277 26.9827 22.042 28.0152 23.6002C29.0477 25.1584 29.5988 26.9905 29.5988 28.8648C29.5988 31.3751 28.6111 33.7829 26.8526 35.5592C25.0941 37.3355 22.7086 38.335 20.2201 38.3384ZM20.2201 21.1389C18.7054 21.1389 17.2246 21.592 15.9652 22.441C14.7057 23.2899 13.7241 24.4965 13.1444 25.9082C12.5648 27.3199 12.4131 28.8733 12.7086 30.372C13.0041 31.8707 13.7335 33.2473 14.8046 34.3277C15.8757 35.4082 17.2403 36.144 18.726 36.4421C20.2116 36.7402 21.7515 36.5872 23.1509 36.0025C24.5504 35.4177 25.7465 34.4275 26.588 33.157C27.4296 31.8865 27.8787 30.3928 27.8787 28.8648C27.8754 26.8168 27.0675 24.8536 25.6319 23.4055C24.1963 21.9573 22.2503 21.1423 20.2201 21.1389Z" fill="#74B974"/>
<path d="M35.1858 44.9117C35.0715 44.9138 34.9581 44.8925 34.8523 44.8489C34.7466 44.8054 34.6507 44.7406 34.5706 44.6584L25.669 35.7927C25.5839 35.7111 25.5161 35.6128 25.4698 35.504C25.4235 35.3951 25.3997 35.2779 25.3997 35.1594C25.3997 35.041 25.4235 34.9237 25.4698 34.8149C25.5161 34.706 25.5839 34.6078 25.669 34.5262C25.7479 34.4369 25.8446 34.3655 25.9528 34.3166C26.061 34.2677 26.1782 34.2424 26.2967 34.2424C26.4153 34.2424 26.5325 34.2677 26.6407 34.3166C26.7489 34.3655 26.8456 34.4369 26.9245 34.5262L35.8261 43.3919C35.9128 43.4725 35.982 43.5704 36.0294 43.6794C36.0768 43.7884 36.1012 43.9061 36.1012 44.0251C36.1012 44.1441 36.0768 44.2619 36.0294 44.3708C35.982 44.4798 35.9128 44.5777 35.8261 44.6584C35.7441 44.7451 35.6443 44.8127 35.5337 44.8564C35.4231 44.9002 35.3043 44.919 35.1858 44.9117Z" fill="#74B974"/>
<path d="M26.3595 29.3461C26.2829 29.3461 26.2094 29.3154 26.1553 29.2607C26.1011 29.2061 26.0707 29.132 26.0707 29.0548C26.0717 28.5987 26.0211 28.1441 25.92 27.6996C25.9052 27.624 25.9207 27.5456 25.963 27.4815C26.0054 27.4175 26.0712 27.3729 26.146 27.3576C26.1823 27.3483 26.2202 27.3465 26.2572 27.3524C26.2942 27.3583 26.3296 27.3717 26.3613 27.3918C26.3931 27.412 26.4204 27.4384 26.4416 27.4696C26.4629 27.5007 26.4776 27.5359 26.485 27.5729C26.5998 28.0584 26.6588 28.5556 26.6608 29.0548C26.6575 29.1332 26.6244 29.2073 26.5682 29.2616C26.512 29.3159 26.4372 29.3461 26.3595 29.3461Z" fill="#74B974"/>
<path d="M25.8824 26.927C25.8261 26.9266 25.7712 26.9096 25.7244 26.8781C25.6775 26.8466 25.6408 26.802 25.6188 26.7497C25.1691 25.6776 24.4157 24.7632 23.4531 24.1211C22.4905 23.479 21.3615 23.1378 20.2075 23.1401C19.8966 23.1355 19.5859 23.1567 19.2784 23.2034C19.2021 23.2147 19.1245 23.196 19.0614 23.1512C18.9984 23.1065 18.9547 23.039 18.9395 22.9628C18.9283 22.8858 18.9468 22.8074 18.9912 22.7438C19.0356 22.6802 19.1024 22.6362 19.178 22.6208C19.5188 22.5698 19.863 22.5444 20.2075 22.5448C21.4759 22.5427 22.7166 22.9192 23.7733 23.6269C24.83 24.3345 25.6556 25.3417 26.1461 26.5217C26.1696 26.5928 26.1674 26.67 26.1398 26.7395C26.1122 26.8091 26.0611 26.8666 25.9954 26.9017C25.9606 26.9199 25.9217 26.9286 25.8824 26.927Z" fill="#74B974"/>
<path d="M34.4325 45.279C34.2461 45.2793 34.0614 45.2425 33.8891 45.1708C33.7167 45.0991 33.5601 44.9938 33.4281 44.861L27.0375 38.4144C26.9032 38.2801 26.7965 38.1203 26.7237 37.9443C26.6509 37.7682 26.6134 37.5793 26.6134 37.3885C26.6134 37.1977 26.6509 37.0088 26.7237 36.8327C26.7965 36.6566 26.9032 36.4968 27.0375 36.3626L27.5774 35.818C27.7105 35.6824 27.8689 35.5748 28.0434 35.5014C28.218 35.4279 28.4052 35.3901 28.5944 35.3901C28.7835 35.3901 28.9708 35.4279 29.1453 35.5014C29.3199 35.5748 29.4783 35.6824 29.6113 35.818L35.9894 42.2646C36.2539 42.5369 36.4021 42.9029 36.4021 43.2842C36.4021 43.6654 36.2539 44.0315 35.9894 44.3037L35.462 44.8484C35.189 45.1239 34.8187 45.2788 34.4325 45.279ZM28.5567 35.97C28.4425 35.9678 28.329 35.9892 28.2233 36.0328C28.1175 36.0763 28.0216 36.1411 27.9415 36.2233L27.4016 36.7679C27.3181 36.8504 27.2518 36.949 27.2065 37.0577C27.1612 37.1664 27.1379 37.2832 27.1379 37.4012C27.1379 37.5191 27.1612 37.6359 27.2065 37.7446C27.2518 37.8533 27.3181 37.9519 27.4016 38.0344L33.7922 44.4811C33.874 44.5653 33.9717 44.6322 34.0795 44.6779C34.1873 44.7236 34.303 44.7472 34.42 44.7472C34.5369 44.7472 34.6526 44.7236 34.7604 44.6779C34.8682 44.6322 34.9659 44.5653 35.0477 44.4811L35.5876 43.9364C35.7443 43.7679 35.8337 43.5469 35.8387 43.3159C35.833 43.0887 35.7434 42.8719 35.5876 42.7079L29.197 36.2233C29.114 36.1379 29.0141 36.0712 28.9037 36.0276C28.7934 35.9839 28.6751 35.9643 28.5567 35.97Z" fill="#74B974"/>
<path d="M34.671 45.1524C34.634 45.1554 34.5968 45.1502 34.5621 45.1371C34.5274 45.124 34.4959 45.1032 34.4701 45.0764L26.937 37.4772C26.9079 37.4522 26.8845 37.4212 26.8685 37.3862C26.8524 37.3512 26.8441 37.3131 26.8441 37.2745C26.8441 37.236 26.8524 37.1979 26.8685 37.1629C26.8845 37.1279 26.9079 37.0969 26.937 37.0719C26.9628 37.0443 26.994 37.0223 27.0285 37.0073C27.0631 36.9922 27.1003 36.9845 27.1379 36.9845C27.1755 36.9845 27.2127 36.9922 27.2473 37.0073C27.2818 37.0223 27.313 37.0443 27.3388 37.0719L34.8719 44.6711C34.8992 44.6971 34.921 44.7285 34.9359 44.7634C34.9508 44.7982 34.9585 44.8358 34.9585 44.8737C34.9585 44.9117 34.9508 44.9492 34.9359 44.9841C34.921 45.0189 34.8992 45.0503 34.8719 45.0764C34.8472 45.1048 34.816 45.1267 34.7809 45.1399C34.7459 45.1532 34.7081 45.1575 34.671 45.1524Z" fill="#74B974"/>
</svg>
