<svg width="49" height="50" viewBox="0 0 49 50" fill="none" xmlns="http://www.w3.org/2000/svg">
<path d="M15.5036 27.6235C15.1542 27.6235 14.819 27.4847 14.5719 27.2375C14.3247 26.9904 14.1859 26.6553 14.1859 26.3058V12.1524C14.1859 11.8029 14.3247 11.4677 14.5719 11.2206C14.819 10.9735 15.1542 10.8347 15.5036 10.8347H25.6876C26.0371 10.8347 26.3722 10.9735 26.6193 11.2206C26.8665 11.4677 27.0053 11.8029 27.0053 12.1524C27.0053 12.5019 26.8665 12.837 26.6193 13.0842C26.3722 13.3313 26.0371 13.4701 25.6876 13.4701H16.8051V26.322C16.8051 26.6672 16.668 26.9982 16.4239 27.2423C16.1798 27.4864 15.8488 27.6235 15.5036 27.6235Z" fill="#74B974"/>
<path d="M37.0591 49.7321H26.2895C26.1165 49.7321 25.9451 49.698 25.7853 49.6318C25.6254 49.5655 25.4801 49.4685 25.3578 49.3461C25.2354 49.2238 25.1383 49.0785 25.0721 48.9186C25.0059 48.7587 24.9718 48.5874 24.9718 48.4143V1.31773C24.9718 0.968245 25.1106 0.633076 25.3578 0.385954C25.6049 0.138832 25.94 0 26.2895 0H37.0591C37.4086 0 37.7438 0.138832 37.9909 0.385954C38.238 0.633076 38.3768 0.968245 38.3768 1.31773V48.4957C38.3524 48.8295 38.2033 49.1419 37.9592 49.371C37.7151 49.6 37.3938 49.7289 37.0591 49.7321ZM27.591 47.1454H35.7251V2.63546H27.591V47.1454Z" fill="#74B974"/>
<path d="M47.6822 49.7321H37.0591C36.886 49.7321 36.7147 49.698 36.5548 49.6318C36.3949 49.5656 36.2496 49.4685 36.1273 49.3461C36.0049 49.2238 35.9079 49.0785 35.8416 48.9186C35.7754 48.7588 35.7413 48.5874 35.7413 48.4144V23.4588C35.7413 23.1094 35.8802 22.7742 36.1273 22.5271C36.3744 22.2799 36.7096 22.1411 37.0591 22.1411H47.6822C48.0317 22.1411 48.3669 22.2799 48.614 22.5271C48.8611 22.7742 49 23.1094 49 23.4588V48.4144C48.9957 48.7625 48.8556 49.0952 48.6093 49.3415C48.3631 49.5877 48.0304 49.7279 47.6822 49.7321ZM38.3768 47.1454H46.3808V24.7766H38.3768V47.1454Z" fill="#74B974"/>
<path d="M36.2132 5.72644H26.7288V6.47478H36.2132V5.72644Z" fill="#74B974"/>
<path d="M36.2132 11.7131H26.7288V12.4615H36.2132V11.7131Z" fill="#74B974"/>
<path d="M36.2294 17.6999H15.8127V18.4482H36.2294V17.6999Z" fill="#74B974"/>
<path d="M36.2294 23.6866H15.8127V24.4349H36.2294V23.6866Z" fill="#74B974"/>
<path d="M47.2756 29.6733H26.8589V30.4216H47.2756V29.6733Z" fill="#74B974"/>
<path d="M47.2756 35.8064H26.8589V36.5547H47.2756V35.8064Z" fill="#74B974"/>
<path d="M47.2756 41.7932H26.8589V42.5415H47.2756V41.7932Z" fill="#74B974"/>
<path d="M3.2699 48.9675C3.01256 48.9701 2.76336 48.8774 2.57036 48.7072C2.44894 48.6138 2.3479 48.4966 2.27347 48.3628C2.19903 48.229 2.15277 48.0813 2.13753 47.9289C2.12229 47.7765 2.1384 47.6226 2.18485 47.4767C2.23131 47.3308 2.30714 47.1959 2.40768 47.0803L16.8051 29.2991C16.9906 29.0705 17.2594 28.9249 17.5523 28.8943C17.8452 28.8638 18.1382 28.9509 18.3668 29.1365C18.5955 29.322 18.7411 29.5908 18.7716 29.8836C18.8021 30.1765 18.7151 30.4695 18.5295 30.6982L4.13211 48.5445C4.02942 48.6753 3.89857 48.7812 3.7493 48.8544C3.60002 48.9277 3.43616 48.9663 3.2699 48.9675Z" fill="#74B974"/>
<path d="M4.88048 38.6046C3.91521 38.6046 2.97162 38.3183 2.16903 37.7821C1.36644 37.2458 0.740898 36.4836 0.371506 35.5918C0.00211464 34.7 -0.0945351 33.7187 0.0937792 32.772C0.282094 31.8253 0.746914 30.9556 1.42946 30.2731C2.11201 29.5905 2.98163 29.1257 3.92835 28.9374C4.87507 28.7491 5.85637 28.8457 6.74816 29.2151C7.63995 29.5845 8.40217 30.2101 8.93845 31.0127C9.47472 31.8153 9.76096 32.7588 9.76096 33.7241C9.76096 35.0185 9.24677 36.2599 8.3315 37.1751C7.41623 38.0904 6.17486 38.6046 4.88048 38.6046ZM4.88048 31.17C4.36889 31.17 3.86878 31.3217 3.44341 31.6059C3.01804 31.8901 2.6865 32.2941 2.49072 32.7668C2.29495 33.2394 2.24372 33.7595 2.34353 34.2613C2.44334 34.763 2.68969 35.2239 3.05144 35.5857C3.41319 35.9474 3.87409 36.1938 4.37585 36.2936C4.87761 36.3934 5.3977 36.3422 5.87035 36.1464C6.343 35.9506 6.74698 35.6191 7.0312 35.1937C7.31543 34.7683 7.46713 34.2682 7.46713 33.7566C7.46713 33.0706 7.19461 32.4127 6.70952 31.9276C6.22443 31.4425 5.5665 31.17 4.88048 31.17Z" fill="#74B974"/>
<path d="M16.4147 49.244C15.4494 49.244 14.5058 48.9578 13.7032 48.4215C12.9006 47.8852 12.2751 47.123 11.9057 46.2312C11.5363 45.3394 11.4396 44.3581 11.628 43.4114C11.8163 42.4647 12.2811 41.595 12.9636 40.9125C13.6462 40.2299 14.5158 39.7651 15.4625 39.5768C16.4092 39.3885 17.3905 39.4851 18.2823 39.8545C19.1741 40.2239 19.9364 40.8495 20.4726 41.6521C21.0089 42.4547 21.2951 43.3982 21.2951 44.3635C21.2951 45.6579 20.7809 46.8993 19.8657 47.8145C18.9504 48.7298 17.709 49.244 16.4147 49.244ZM16.4147 41.8257C15.9031 41.8257 15.403 41.9774 14.9776 42.2616C14.5522 42.5458 14.2207 42.9498 14.0249 43.4224C13.8291 43.8951 13.7779 44.4152 13.8777 44.9169C13.9775 45.4187 14.2239 45.8796 14.5856 46.2414C14.9474 46.6031 15.4083 46.8495 15.91 46.9493C16.4118 47.0491 16.9319 46.9978 17.4045 46.8021C17.8772 46.6063 18.2812 46.2748 18.5654 45.8494C18.8496 45.424 19.0013 44.9239 19.0013 44.4123C18.997 43.7276 18.7232 43.0722 18.239 42.588C17.7548 42.1038 17.0994 41.8299 16.4147 41.8257Z" fill="#74B974"/>
</svg>
