<svg width="38" height="55" viewBox="0 0 38 55" fill="none" xmlns="http://www.w3.org/2000/svg">
<path d="M9.42306 54.12C9.13597 54.1162 8.86169 54.0005 8.65867 53.7975C8.45565 53.5945 8.33993 53.3202 8.33618 53.0331V50.3087C8.33618 50.0204 8.45069 49.744 8.65452 49.5401C8.85835 49.3363 9.1348 49.2218 9.42306 49.2218C9.71131 49.2218 9.98776 49.3363 10.1916 49.5401C10.3954 49.744 10.5099 50.0204 10.5099 50.3087V53.0331C10.5062 53.3202 10.3905 53.5945 10.1874 53.7975C9.98442 54.0005 9.71015 54.1162 9.42306 54.12Z" fill="#74B974"/>
<path d="M9.42302 47.8161C9.13593 47.8123 8.86165 47.6966 8.65863 47.4936C8.45561 47.2906 8.3399 47.0163 8.33614 46.7292V18.7748H1.09031C0.876988 18.7725 0.668929 18.7082 0.49142 18.5899C0.31391 18.4716 0.17459 18.3042 0.0903898 18.1082C0.00424107 17.9134 -0.021098 17.6971 0.0176867 17.4877C0.0564713 17.2783 0.157573 17.0854 0.307764 16.9344L16.0022 0.66024C16.1041 0.55558 16.2257 0.472214 16.36 0.414993C16.4944 0.357771 16.6388 0.327837 16.7848 0.326931C16.9332 0.325899 17.0804 0.354895 17.2173 0.412173C17.3543 0.469451 17.4783 0.55383 17.5818 0.66024L33.2038 17.0358C33.346 17.1917 33.4417 17.3842 33.4801 17.5917C33.5185 17.7991 33.4981 18.0132 33.4212 18.2096C33.3395 18.4045 33.2028 18.5714 33.0278 18.6897C32.8528 18.8081 32.647 18.873 32.4358 18.8763L25.5957 18.9487V20.9486C25.6134 21.1008 25.5986 21.2551 25.5524 21.4013C25.5063 21.5475 25.4297 21.6823 25.3277 21.7967C25.2257 21.9112 25.1007 22.0028 24.9608 22.0656C24.821 22.1283 24.6694 22.1607 24.5161 22.1607C24.3628 22.1607 24.2112 22.1283 24.0713 22.0656C23.9314 22.0028 23.8064 21.9112 23.7045 21.7967C23.6025 21.6823 23.5259 21.5475 23.4797 21.4013C23.4335 21.2551 23.4188 21.1008 23.4364 20.9486V17.8763C23.4364 17.5906 23.5489 17.3163 23.7496 17.1129C23.9504 16.9095 24.2231 16.7933 24.5088 16.7895H29.9287L16.8862 3.05136L3.84373 16.659H9.56793C9.85502 16.6628 10.1293 16.7785 10.3323 16.9815C10.5353 17.1845 10.6511 17.4588 10.6548 17.7459V46.7292C10.6562 46.885 10.6241 47.0393 10.5606 47.1816C10.4972 47.3238 10.4039 47.4508 10.2871 47.5539C10.1703 47.657 10.0326 47.7337 9.88356 47.779C9.73448 47.8242 9.57742 47.8369 9.42302 47.8161Z" fill="#74B974"/>
<path d="M24.4943 54.12C24.2073 54.1162 23.933 54.0005 23.73 53.7975C23.5269 53.5945 23.4112 53.3202 23.4075 53.0331V50.3087C23.4075 50.0204 23.522 49.744 23.7258 49.5401C23.9296 49.3363 24.2061 49.2218 24.4943 49.2218C24.7826 49.2218 25.059 49.3363 25.2629 49.5401C25.4667 49.744 25.5812 50.0204 25.5812 50.3087V53.0331C25.5775 53.3202 25.4618 53.5945 25.2587 53.7975C25.0557 54.0005 24.7814 54.1162 24.4943 54.12Z" fill="#74B974"/>
<path d="M5.14792 46.6712C4.95575 46.6712 4.77145 46.5949 4.63557 46.459C4.49968 46.3231 4.42334 46.1388 4.42334 45.9466V32.3969C4.42334 32.2048 4.49968 32.0205 4.63557 31.8846C4.77145 31.7487 4.95575 31.6724 5.14792 31.6724C5.34009 31.6724 5.5244 31.7487 5.66028 31.8846C5.79617 32.0205 5.87251 32.2048 5.87251 32.3969V45.9466C5.87251 46.1388 5.79617 46.3231 5.66028 46.459C5.5244 46.5949 5.34009 46.6712 5.14792 46.6712Z" fill="#74B974"/>
<path d="M24.4944 45.4395C24.1562 45.4395 23.8318 45.3051 23.5926 45.066C23.3535 44.8268 23.2191 44.5024 23.2191 44.1642V35.846H19.7991C19.6322 35.8423 19.4678 35.8054 19.3153 35.7377C19.1628 35.6699 19.0253 35.5725 18.9107 35.4512C18.7961 35.3299 18.7068 35.187 18.6478 35.0309C18.5889 34.8748 18.5615 34.7085 18.5673 34.5417C18.5786 34.2086 18.72 33.8931 18.961 33.6629C19.2021 33.4327 19.5237 33.306 19.857 33.31H23.2191V25.7018C23.2191 25.3636 23.3535 25.0392 23.5926 24.8001C23.8318 24.5609 24.1562 24.4266 24.4944 24.4266H31.8416C34.0154 24.5425 37.9861 25.8757 37.9861 29.8609C38.0394 30.6098 37.9394 31.3616 37.6923 32.0705C37.4452 32.7794 37.0561 33.4304 36.5488 33.9838C36.0415 34.5372 35.4267 34.9813 34.7419 35.2891C34.0572 35.5968 33.3169 35.7616 32.5662 35.7735C31.5083 35.8895 28.5665 35.904 25.7696 35.875V44.1497C25.766 44.4881 25.6309 44.8119 25.3929 45.0526C25.1549 45.2932 24.8327 45.432 24.4944 45.4395ZM25.7551 33.3534C28.5665 33.3534 31.3634 33.3534 32.2619 33.2665C34.4936 33.0201 35.4356 32.0057 35.4356 29.8754C35.4356 27.2524 31.8996 26.9771 31.7547 26.9771H25.7551V33.3534Z" fill="#74B974"/>
<path d="M29.407 39.8167H19.7991C19.4608 39.8167 19.1365 39.6823 18.8973 39.4432C18.6582 39.204 18.5238 38.8797 18.5238 38.5414C18.5238 38.2032 18.6582 37.8789 18.8973 37.6397C19.1365 37.4005 19.4608 37.2662 19.7991 37.2662H29.3636C29.7018 37.2662 30.0262 37.4005 30.2653 37.6397C30.5045 37.8789 30.6388 38.2032 30.6388 38.5414C30.6388 38.8797 30.5045 39.204 30.2653 39.4432C30.0262 39.6823 29.7018 39.8167 29.3636 39.8167H29.407Z" fill="#74B974"/>
</svg>
