<svg width="60" height="50" viewBox="0 0 60 50" fill="none" xmlns="http://www.w3.org/2000/svg">
<path d="M42.1174 3.48657C37.2155 2.96709 32.2876 2.73243 27.3586 2.78377C22.4397 2.73296 17.522 2.96762 12.6303 3.48657C12.5315 3.50169 12.4425 3.55497 12.3825 3.63495C12.3226 3.71493 12.2963 3.81525 12.3095 3.91436C12.3269 4.00343 12.3743 4.08384 12.4438 4.14221C12.5133 4.20058 12.6007 4.2334 12.6914 4.2352C17.5559 3.69483 22.4494 3.4601 27.3433 3.5324C32.2215 3.48132 37.0985 3.71599 41.9493 4.2352C42.0415 4.23552 42.1304 4.20111 42.1984 4.13883C42.2663 4.07654 42.3083 3.99094 42.316 3.89908C42.3319 3.81809 42.3211 3.73413 42.2853 3.65977C42.2495 3.5854 42.1906 3.52464 42.1174 3.48657Z" fill="#74B974"/>
<path d="M39.7187 37.8015L39.2451 38.0001L38.8173 38.1071C38.1297 38.214 27.0836 38.1987 27.0225 38.214C26.9613 38.2293 16.1749 38.214 15.4874 38.1224C15.2582 38.1224 14.6776 37.8626 14.6776 37.8626L13.9137 38.5501C14.3524 38.7471 14.8074 38.9055 15.2735 39.0238C15.6096 39.0238 38.7103 39.0238 39.0312 39.0238C39.502 38.9047 39.9619 38.7463 40.4062 38.5501L39.7187 37.8015Z" fill="#74B974"/>
<path d="M10.9345 35.4792C9.03427 35.3908 7.15406 35.0517 5.34263 34.4709C4.28843 33.7222 5.34263 29.8874 5.60237 29.1693C5.64915 28.9818 5.73627 28.8067 5.85765 28.6563C5.97903 28.5059 6.13175 28.3838 6.30517 28.2984C6.71899 28.1438 7.17472 28.1438 7.58854 28.2984C7.58854 28.2984 13.3179 29.6124 14.2193 29.7346C14.7999 29.8263 14.9679 29.5207 14.9832 29.4902C15.2766 28.9962 15.5418 28.4861 15.7777 27.9623C15.81 27.9238 15.8277 27.8751 15.8277 27.8248C15.8277 27.7745 15.81 27.7258 15.7777 27.6873C15.7156 27.6286 15.643 27.582 15.5638 27.5498C15.5638 27.5498 9.84972 25.6859 7.92466 25.0442C5.63292 24.265 5.63292 22.9205 5.63292 22.8594C5.58712 21.6372 5.75781 20.4165 6.1371 19.2537C6.22649 19.0775 6.35361 18.9232 6.50941 18.8018C6.66521 18.6803 6.84587 18.5946 7.03852 18.5509C7.74283 18.43 8.46725 18.5597 9.08581 18.9176L15.6707 21.4079C16.3124 21.6524 23.2029 21.7135 27.3892 21.683C27.4879 21.6829 27.5828 21.721 27.654 21.7894C27.7252 21.8577 27.7672 21.951 27.7711 22.0496C27.7672 22.1483 27.7252 22.2415 27.654 22.3099C27.5828 22.3783 27.4879 22.4164 27.3892 22.4163C23.3781 22.5077 19.3649 22.3955 15.3652 22.0802L8.73441 19.5746C8.27252 19.3063 7.73843 19.1888 7.20658 19.2384C7.02433 19.2966 6.87125 19.4223 6.77879 19.5898C6.45987 20.6438 6.32043 21.7439 6.36628 22.8441C6.36628 22.8441 6.36628 23.7455 8.15384 24.3719C9.94139 24.9983 15.793 26.8928 15.793 26.8928C15.9661 26.9552 16.1266 27.0484 16.2666 27.1679C16.416 27.29 16.5229 27.4562 16.5723 27.6428C16.6217 27.8293 16.6109 28.0267 16.5416 28.2068C16.3032 28.7918 16.0223 29.3586 15.7013 29.9027C15.5497 30.1605 15.3197 30.3632 15.045 30.4813C14.7702 30.5995 14.4649 30.6269 14.1735 30.5596C13.2415 30.4221 7.66493 29.1387 7.43576 29.0318C7.19872 28.9467 6.93944 28.9467 6.7024 29.0318C6.62355 29.075 6.55438 29.1338 6.4992 29.2048C6.44401 29.2757 6.40397 29.3573 6.38156 29.4443C5.83154 31.2777 5.48014 33.707 5.84682 34.0278C7.57862 34.561 9.36944 34.8792 11.1789 34.9751C11.819 34.7438 12.4463 34.4786 13.0582 34.1806C14.4026 33.5847 14.861 33.4167 15.1666 33.5083C15.4721 33.6 16.5874 34.0889 16.6944 34.1042C16.7382 34.1224 16.7779 34.1493 16.811 34.1833C16.8442 34.2172 16.8701 34.2576 16.8872 34.3018C16.9044 34.3461 16.9124 34.3934 16.9107 34.4408C16.9091 34.4882 16.8979 34.5348 16.8777 34.5778C16.8318 34.6659 16.7546 34.7335 16.6613 34.7675C16.5679 34.8014 16.4653 34.7991 16.3735 34.7612C16.0985 34.6389 15.3041 34.2875 14.9985 34.1806C14.4773 34.3706 13.9672 34.59 13.4707 34.8375C12.8443 35.1126 12.1415 35.4181 11.5303 35.6473C11.4248 35.6644 11.3167 35.6583 11.2138 35.6292C11.1109 35.6002 11.0155 35.549 10.9345 35.4792Z" fill="#74B974"/>
<path d="M8.33708 32.5916C8.0741 32.5797 7.82042 32.4908 7.60751 32.3359C7.39459 32.1811 7.23181 31.9672 7.13936 31.7207C7.0469 31.4742 7.02884 31.206 7.08741 30.9494C7.14599 30.6927 7.27862 30.4589 7.46886 30.277C7.6591 30.095 7.89857 29.9729 8.15757 29.9258C8.41657 29.8786 8.68371 29.9086 8.92584 30.0119C9.16797 30.1152 9.37445 30.2873 9.51965 30.5069C9.66486 30.7265 9.74241 30.9839 9.74269 31.2471C9.73872 31.4277 9.69921 31.6058 9.62641 31.7711C9.55362 31.9364 9.44896 32.0857 9.31843 32.2106C9.1879 32.3355 9.03405 32.4334 8.86567 32.4988C8.69728 32.5641 8.51767 32.5957 8.33708 32.5916ZM8.33708 30.6819C8.22562 30.6937 8.11996 30.7375 8.03286 30.808C7.94575 30.8785 7.88092 30.9728 7.8462 31.0793C7.81147 31.1859 7.80834 31.3002 7.83717 31.4086C7.86601 31.5169 7.92558 31.6145 8.00869 31.6897C8.09181 31.7649 8.19491 31.8144 8.30555 31.8323C8.4162 31.8502 8.52966 31.8357 8.63223 31.7905C8.73481 31.7453 8.82211 31.6714 8.8836 31.5777C8.9451 31.484 8.97815 31.3745 8.97877 31.2624C8.97486 31.1821 8.95514 31.1034 8.92076 31.0308C8.88637 30.9581 8.83799 30.8929 8.77838 30.839C8.71877 30.7851 8.64911 30.7434 8.57339 30.7165C8.49766 30.6895 8.41736 30.6777 8.33708 30.6819Z" fill="#74B974"/>
<path d="M14.2499 25.4414H14.0665C14.0294 25.4182 13.9973 25.3877 13.9724 25.3517C13.9475 25.3157 13.9302 25.2749 13.9216 25.232C13.913 25.1891 13.9133 25.1448 13.9225 25.102C13.9317 25.0592 13.9495 25.0187 13.9749 24.983C13.9749 24.983 15.8694 22.2482 16.1902 21.6371C16.2349 21.5602 16.3082 21.5042 16.3941 21.4813C16.4801 21.4584 16.5715 21.4705 16.6486 21.5149C16.6874 21.5342 16.7219 21.5612 16.75 21.5942C16.7781 21.6272 16.7992 21.6656 16.812 21.707C16.8249 21.7484 16.8292 21.792 16.8247 21.8351C16.8203 21.8783 16.8071 21.92 16.7861 21.9579C16.4347 22.5079 14.6166 25.1816 14.5249 25.3039C14.4965 25.3502 14.4557 25.3877 14.4071 25.412C14.3585 25.4363 14.304 25.4465 14.2499 25.4414Z" fill="#74B974"/>
<path d="M27.3586 24.8914C26.1974 24.8914 24.9293 24.5247 24.9293 23.6997C24.9293 22.8747 26.1821 22.5233 27.3586 22.5233C28.535 22.5233 29.7878 22.8899 29.7878 23.6997C29.7878 24.5094 28.535 24.8914 27.3586 24.8914ZM27.3586 23.1955C26.1821 23.1955 25.5557 23.5775 25.5099 23.715C25.4641 23.8525 26.1669 24.2344 27.3586 24.2344C28.5503 24.2344 29.192 23.8677 29.192 23.7761C29.192 23.6844 28.5503 23.1955 27.3586 23.1955Z" fill="#74B974"/>
<path d="M6.41207 13.4021H5.2662C4.11331 13.4917 2.95379 13.4404 1.81331 13.2493C1.55358 13.1424 0.285485 12.6077 0.025755 11.7215C-0.127028 11.1715 0.438269 10.1937 0.713278 9.82702C1.50775 8.7881 3.58559 8.80337 4.60923 8.81865H4.74674C5.02499 8.79126 5.30389 8.86386 5.53347 9.02344C5.76305 9.18303 5.92828 9.41916 5.99956 9.68951C5.99956 9.68951 6.09123 10.377 6.24401 11.2173C6.62043 11.2432 6.99818 11.2432 7.3746 11.2173C7.42476 11.2113 7.47561 11.2152 7.52426 11.2289C7.5729 11.2425 7.61839 11.2656 7.65811 11.2968C7.69783 11.328 7.73102 11.3667 7.75578 11.4108C7.78053 11.4548 7.79637 11.5033 7.80239 11.5535C7.80841 11.6036 7.80449 11.6545 7.79086 11.7031C7.77722 11.7518 7.75414 11.7972 7.72293 11.837C7.69172 11.8767 7.65299 11.9099 7.60895 11.9346C7.56491 11.9594 7.51643 11.9752 7.46627 11.9813C5.93844 12.1646 5.60232 11.9813 5.54121 11.6451C5.35787 10.6062 5.25092 9.81174 5.25092 9.81174C5.25092 9.81174 5.17453 9.59784 4.76202 9.59784H4.5634C3.81476 9.59784 1.84387 9.59784 1.29385 10.3006C1.00367 10.6569 0.813799 11.0841 0.743832 11.5382C0.85078 11.9354 1.61469 12.3632 2.07304 12.5465C3.12961 12.6398 4.19047 12.6755 5.25092 12.6535H6.77875C6.88005 12.6535 6.9772 12.6937 7.04883 12.7654C7.12046 12.837 7.16071 12.9342 7.16071 13.0355C7.16071 13.1368 7.12046 13.2339 7.04883 13.3055C6.9772 13.3772 6.88005 13.4174 6.77875 13.4174C6.6582 13.3921 6.5343 13.3869 6.41207 13.4021Z" fill="#74B974"/>
<path d="M5.40376 13.3563C5.31841 13.3582 5.23507 13.3302 5.16814 13.2772C5.1012 13.2242 5.05485 13.1495 5.03708 13.066C4.94477 12.7557 4.77061 12.476 4.5329 12.2563C3.39752 11.8884 2.22354 11.6526 1.03418 11.5535C0.932874 11.5413 0.840551 11.4894 0.777516 11.4092C0.714481 11.3289 0.685898 11.227 0.698054 11.1257C0.71021 11.0244 0.762111 10.932 0.842337 10.869C0.922564 10.806 1.02454 10.7774 1.12584 10.7895C2.46601 10.8596 3.78638 11.1433 5.03708 11.6298C5.39023 11.9552 5.64442 12.3735 5.77044 12.8368C5.7841 12.885 5.78774 12.9355 5.78115 12.9851C5.77455 13.0348 5.75785 13.0826 5.73209 13.1255C5.70632 13.1684 5.67203 13.2057 5.63133 13.2348C5.59062 13.264 5.54437 13.2846 5.49543 13.2952L5.40376 13.3563Z" fill="#74B974"/>
<path d="M6.70231 19.1926C6.62894 19.1865 6.55909 19.1585 6.50187 19.1122C6.44464 19.0658 6.40269 19.0034 6.38147 18.9329C5.75028 17.5247 5.49246 15.9778 5.63283 14.4411C5.63283 14.1508 5.87729 13.9827 6.0759 14.0285C6.27452 14.0744 6.44258 14.0285 6.41202 14.3647C6.32746 15.7336 6.54119 17.1046 7.03843 18.3828C7.09422 18.498 7.11243 18.6278 7.0905 18.7539C7.06857 18.88 7.00761 18.9961 6.91621 19.0856C6.8902 19.1176 6.85767 19.1437 6.82078 19.1622C6.7839 19.1806 6.74352 19.191 6.70231 19.1926Z" fill="#74B974"/>
<path d="M2.60781 24.5553C2.53825 24.5775 2.46348 24.5775 2.39391 24.5553C2.3087 24.499 2.24845 24.412 2.22569 24.3124C2.20293 24.2128 2.2194 24.1083 2.27169 24.0206C3.10935 22.9484 4.25593 22.1591 5.55652 21.7594C5.60358 21.7396 5.65414 21.7294 5.7052 21.7295C5.75626 21.7296 5.80678 21.7399 5.85379 21.7598C5.90079 21.7798 5.94332 21.8089 5.97886 21.8456C6.0144 21.8823 6.04223 21.9257 6.0607 21.9733C6.0805 22.0203 6.09066 22.0709 6.09058 22.122C6.0905 22.173 6.08019 22.2235 6.06025 22.2705C6.0403 22.3175 6.01114 22.3601 5.97448 22.3956C5.93782 22.4312 5.8944 22.459 5.8468 22.4775C4.71701 22.8405 3.71144 23.5127 2.94393 24.4178C2.90372 24.4668 2.85194 24.505 2.79326 24.529C2.73458 24.5531 2.67085 24.5621 2.60781 24.5553Z" fill="#74B974"/>
<path d="M14.9831 33.8292C14.908 33.8486 14.8291 33.8486 14.7539 33.8292C14.7126 33.8002 14.6775 33.7634 14.6505 33.7208C14.6235 33.6781 14.6052 33.6306 14.5967 33.5809C14.5882 33.5312 14.5896 33.4803 14.6008 33.4311C14.6121 33.3819 14.633 33.3355 14.6623 33.2944L18.5888 27.8554C18.8316 27.5062 19.15 27.2164 19.5203 27.0074C19.8907 26.7984 20.3034 26.6757 20.7278 26.6484H27.5266C27.6279 26.6484 27.725 26.6886 27.7967 26.7602C27.8683 26.8319 27.9085 26.929 27.9085 27.0303C27.9085 27.1316 27.8683 27.2288 27.7967 27.3004C27.725 27.372 27.6279 27.4123 27.5266 27.4123H20.7278C20.423 27.4293 20.1265 27.5167 19.8613 27.6679C19.5962 27.819 19.3698 28.0296 19.1999 28.2832L15.2887 33.6611C15.2568 33.7133 15.2118 33.7562 15.1582 33.7857C15.1046 33.8152 15.0443 33.8302 14.9831 33.8292Z" fill="#74B974"/>
<path d="M27.3586 30.7582H17.2291C17.1278 30.7582 17.0307 30.718 16.959 30.6464C16.8874 30.5747 16.8472 30.4776 16.8472 30.3763C16.8472 30.275 16.8874 30.1778 16.959 30.1062C17.0307 30.0346 17.1278 29.9943 17.2291 29.9943H27.3586C27.4599 29.9943 27.5571 30.0346 27.6287 30.1062C27.7003 30.1778 27.7406 30.275 27.7406 30.3763C27.7406 30.4776 27.7003 30.5747 27.6287 30.6464C27.5571 30.718 27.4599 30.7582 27.3586 30.7582Z" fill="#74B974"/>
<path d="M43.9814 35.4792C43.8241 35.499 43.665 35.499 43.5078 35.4792C42.8966 35.25 42.1938 34.9445 41.5674 34.6695C41.0253 34.3983 40.4635 34.1684 39.8868 33.982C39.6424 34.0736 38.8479 34.4097 38.5729 34.5472C38.4811 34.5852 38.3785 34.5875 38.2852 34.5535C38.1918 34.5196 38.1146 34.452 38.0687 34.3639C38.0462 34.3214 38.033 34.2744 38.0302 34.2264C38.0274 34.1783 38.0349 34.1302 38.0523 34.0853C38.0697 34.0403 38.0965 33.9997 38.131 33.9661C38.1654 33.9324 38.2067 33.9066 38.252 33.8903C38.252 33.8903 39.291 33.4167 39.7799 33.2944C40.2688 33.1722 40.5591 33.3708 41.8883 33.9667C42.4994 34.2417 43.1869 34.5472 43.7675 34.7611C45.5828 34.6729 47.3797 34.3546 49.1149 33.8139C49.4816 33.5542 49.1149 31.1249 48.5801 29.2304C48.5606 29.1402 48.5218 29.0553 48.4664 28.9815C48.411 28.9077 48.3404 28.8467 48.2593 28.8026C48.0346 28.7385 47.7965 28.7385 47.5718 28.8026C47.2968 28.8026 41.7202 30.1624 40.7882 30.3304C40.4936 30.3901 40.1878 30.3559 39.9137 30.2326C39.6396 30.1092 39.4111 29.903 39.2604 29.6429C38.9311 29.1039 38.6302 28.5481 38.359 27.9776C38.3174 27.8412 38.3039 27.6977 38.3193 27.556C38.3348 27.4142 38.3788 27.277 38.4488 27.1528C38.5188 27.0285 38.6133 26.9197 38.7265 26.833C38.8397 26.7463 38.9694 26.6835 39.1076 26.6484C39.1076 26.6484 44.8217 24.7692 46.7468 24.1275C48.6718 23.4858 48.5343 22.676 48.5343 22.5996C48.5867 21.4941 48.4471 20.3879 48.1218 19.3301C48.0293 19.1626 47.8763 19.0369 47.694 18.9787C47.1954 18.9329 46.6946 19.0395 46.2578 19.2843L39.566 21.8205C35.5663 22.1362 31.5531 22.2484 27.542 22.1566C27.4447 22.1566 27.3515 22.1179 27.2827 22.0492C27.2139 21.9804 27.1753 21.8871 27.1753 21.7899C27.1753 21.6926 27.2139 21.5994 27.2827 21.5306C27.3515 21.4618 27.4447 21.4232 27.542 21.4232C32.7977 21.4232 38.6951 21.4232 39.2604 21.1482L45.9064 18.6273C46.5072 18.2818 47.2117 18.1625 47.8926 18.2912C48.0853 18.3349 48.2659 18.4205 48.4217 18.542C48.5775 18.6635 48.7047 18.8178 48.794 18.994C49.1743 20.1565 49.345 21.3774 49.2982 22.5996C49.2982 22.5996 49.2982 23.99 47.0065 24.7692C45.1273 25.4108 39.3673 27.2901 39.3673 27.2901C39.3673 27.2901 39.0007 27.4429 39.0771 27.6873C39.3032 28.2158 39.5688 28.7265 39.8715 29.2151C39.8715 29.2151 40.0701 29.5818 40.6507 29.4901C41.5521 29.3679 47.2662 28.054 47.312 28.0387C47.7167 27.8916 48.1602 27.8916 48.5649 28.0387C48.7383 28.124 48.891 28.2462 49.0124 28.3966C49.1338 28.547 49.2209 28.722 49.2677 28.9096C49.4052 29.3679 50.5969 33.493 49.5274 34.2264C47.7454 34.8978 45.879 35.3195 43.9814 35.4792Z" fill="#74B974"/>
<path d="M46.3953 32.5916C46.1323 32.5797 45.8787 32.4908 45.6657 32.3359C45.4528 32.1811 45.29 31.9672 45.1976 31.7207C45.1051 31.4742 45.0871 31.206 45.1456 30.9494C45.2042 30.6927 45.3368 30.4589 45.5271 30.277C45.7173 30.095 45.9568 29.9729 46.2158 29.9258C46.4748 29.8786 46.7419 29.9086 46.9841 30.0119C47.2262 30.1152 47.4327 30.2873 47.5779 30.5069C47.7231 30.7265 47.8006 30.9839 47.8009 31.2471C47.7969 31.4277 47.7574 31.6058 47.6846 31.7711C47.6118 31.9364 47.5072 32.0857 47.3767 32.2106C47.2461 32.3355 47.0923 32.4334 46.9239 32.4988C46.7555 32.5641 46.5759 32.5957 46.3953 32.5916ZM46.3953 30.6819C46.2839 30.6937 46.1782 30.7375 46.0911 30.808C46.004 30.8785 45.9392 30.9728 45.9044 31.0793C45.8697 31.1859 45.8666 31.3002 45.8954 31.4086C45.9242 31.5169 45.9838 31.6145 46.0669 31.6897C46.15 31.7649 46.2531 31.8144 46.3638 31.8323C46.4744 31.8502 46.5879 31.8357 46.6905 31.7905C46.793 31.7453 46.8803 31.6714 46.9418 31.5777C47.0033 31.484 47.0364 31.3745 47.037 31.2624C47.0331 31.1821 47.0134 31.1034 46.979 31.0308C46.9446 30.9581 46.8962 30.8929 46.8366 30.839C46.777 30.7851 46.7073 30.7434 46.6316 30.7165C46.5559 30.6895 46.4756 30.6777 46.3953 30.6819Z" fill="#74B974"/>
<path d="M40.5437 25.1817C40.4916 25.1829 40.44 25.1726 40.3924 25.1515C40.3449 25.1303 40.3026 25.0989 40.2687 25.0594C40.177 24.9372 38.3742 22.4468 38.038 21.9274C38.0143 21.8935 37.9986 21.8547 37.992 21.8139C37.9853 21.7731 37.988 21.7313 37.9997 21.6917C38.0115 21.652 38.032 21.6156 38.0598 21.5849C38.0876 21.5543 38.1219 21.5304 38.1603 21.5149C38.2354 21.4692 38.3256 21.4547 38.4113 21.4747C38.497 21.4947 38.5714 21.5475 38.6186 21.6218C38.9394 22.126 40.8034 24.6775 40.8187 24.6775C40.8435 24.7107 40.8609 24.7488 40.8698 24.7893C40.8787 24.8298 40.8788 24.8717 40.8701 24.9122C40.8614 24.9527 40.8441 24.9909 40.8195 25.0242C40.7948 25.0575 40.7633 25.0852 40.727 25.1053C40.7035 25.1301 40.675 25.1498 40.6434 25.1629C40.6119 25.1761 40.5779 25.1825 40.5437 25.1817Z" fill="#74B974"/>
<path d="M50.2607 43.6378H46.3953C46.1325 43.632 45.8735 43.5737 45.6335 43.4662C45.3936 43.3588 45.1775 43.2044 44.9982 43.0122C44.8188 42.82 44.6797 42.5939 44.589 42.3471C44.4983 42.1003 44.458 41.8379 44.4703 41.5753L44.348 39.0544L45.7536 38.9168L45.9981 41.5753C45.9893 41.6921 46.0255 41.8078 46.0994 41.8988C46.1733 41.9897 46.2792 42.0489 46.3953 42.0642H50.2607C50.3769 42.0489 50.4828 41.9897 50.5566 41.8988C50.6305 41.8078 50.6668 41.6921 50.6579 41.5753C50.6579 41.5753 50.8871 39.8335 51.0093 37.0682C51.0093 36.3348 51.2385 34.7153 51.3913 32.9736C51.5441 31.2319 51.5135 27.0151 51.5135 27.0151C51.5135 27.0151 52.1858 27.3665 52.1858 27.7943C52.1858 27.7943 52.5219 31.4152 52.5219 34.532C52.5432 36.8842 52.431 39.2358 52.1858 41.5753C52.1981 41.8379 52.1577 42.1003 52.067 42.3471C51.9764 42.5939 51.8373 42.82 51.6579 43.0122C51.4785 43.2044 51.2625 43.3588 51.0225 43.4662C50.7826 43.5737 50.5236 43.632 50.2607 43.6378Z" fill="#74B974"/>
<path d="M7.98572 44.0503H4.39533C3.75233 44.0304 3.14312 43.7577 2.69981 43.2915C2.2565 42.8253 2.01483 42.2032 2.0272 41.56C1.80561 39.3415 1.70361 37.1128 1.72164 34.8834C1.72164 31.95 2.0272 28.4665 2.0272 28.4359C2.04268 28.2845 2.117 28.1453 2.23416 28.0481C2.35132 27.951 2.50195 27.9037 2.65361 27.9165C2.97445 27.9165 2.83695 28.9707 2.80639 29.2763C2.80639 29.2763 2.80639 31.9958 2.80639 34.8834C2.82563 37.0943 2.96333 39.3027 3.2189 41.4989C3.20644 41.6715 3.2282 41.8449 3.28295 42.0091C3.3377 42.1733 3.42435 42.3251 3.53792 42.4557C3.6515 42.5863 3.78976 42.6932 3.94477 42.7702C4.09978 42.8472 4.26847 42.8928 4.44116 42.9045H8.03156C8.37065 42.8847 8.6885 42.7329 8.91698 42.4816C9.14546 42.2303 9.26638 41.8994 9.25382 41.56L9.33021 39.146C9.33021 38.8405 10.4914 38.8863 10.4761 39.146L10.3691 41.5294C10.3835 41.8528 10.3327 42.1757 10.2197 42.479C10.1068 42.7823 9.934 43.0598 9.71165 43.295C9.48929 43.5301 9.22192 43.7182 8.92542 43.848C8.62892 43.9777 8.30936 44.0466 7.98572 44.0503Z" fill="#74B974"/>
<path d="M47.8773 13.4021H47.5259C47.4246 13.4021 47.3275 13.3619 47.2558 13.2903C47.1842 13.2186 47.144 13.1215 47.144 13.0202C47.1477 12.9201 47.1892 12.8251 47.26 12.7543C47.3309 12.6835 47.4258 12.642 47.5259 12.6382H49.0537C50.1193 12.6717 51.1859 12.636 52.2469 12.5313C52.69 12.3632 53.4539 11.9201 53.5608 11.5229C53.4776 11.0728 53.2892 10.6488 53.0108 10.2854C52.4608 9.55202 50.4593 9.56729 49.7413 9.58257H49.5121C49.069 9.58257 49.0232 9.81175 49.0232 9.81175C49.0232 9.81175 48.9315 10.6062 48.7482 11.6299C48.7482 11.9965 48.3662 12.1493 46.8231 11.966C46.7218 11.9538 46.6295 11.9019 46.5665 11.8217C46.5034 11.7415 46.4748 11.6395 46.487 11.5382C46.4992 11.4369 46.5511 11.3446 46.6313 11.2815C46.7115 11.2185 46.8135 11.1899 46.9148 11.2021C47.2912 11.228 47.669 11.228 48.0454 11.2021C48.1982 10.3007 48.2898 9.67424 48.2898 9.67424C48.3551 9.39943 48.5184 9.15784 48.749 8.99473C48.9796 8.83161 49.2618 8.75815 49.5426 8.7881H49.7413C50.7496 8.7881 52.7969 8.7881 53.6372 9.79647C54.0741 10.332 54.3164 10.9999 54.3247 11.691C54.0956 12.5771 52.7969 13.1119 52.5372 13.2188C51.3967 13.4099 50.2372 13.4612 49.0843 13.3716L47.8773 13.4021Z" fill="#74B974"/>
<path d="M49.5121 13.3563H49.4204C49.3258 13.3278 49.2452 13.265 49.1943 13.1803C49.1435 13.0955 49.126 12.9948 49.1454 12.8979C49.2752 12.4362 49.5288 12.0188 49.8788 11.6909C51.1295 11.2044 52.4498 10.9207 53.79 10.8506C53.8913 10.8385 53.9933 10.8671 54.0735 10.9301C54.1538 10.9931 54.2057 11.0855 54.2178 11.1868C54.23 11.2881 54.2014 11.39 54.1383 11.4703C54.0753 11.5505 53.983 11.6024 53.8817 11.6146C52.6941 11.6988 51.5202 11.9192 50.383 12.2715C50.1531 12.4949 49.9847 12.7738 49.8941 13.0813C49.868 13.1618 49.8169 13.232 49.7482 13.2814C49.6795 13.3309 49.5968 13.3571 49.5121 13.3563Z" fill="#74B974"/>
<path d="M47.862 18.9481C47.8254 18.9492 47.7891 18.943 47.755 18.9299C47.7209 18.9168 47.6897 18.897 47.6633 18.8717C47.5739 18.7809 47.5143 18.665 47.4924 18.5394C47.4706 18.4139 47.4876 18.2846 47.5411 18.1689C48.0688 16.9901 48.2946 15.6984 48.1981 14.4105C48.1636 14.2909 48.1761 14.1627 48.2328 14.052C48.2896 13.9413 48.3865 13.8564 48.5036 13.8146C48.7023 13.8146 48.9162 13.9369 48.9467 14.2272C49.083 15.7637 48.8253 17.3096 48.1981 18.719C48.1709 18.7861 48.1245 18.8437 48.0647 18.8844C48.0049 18.9252 47.9344 18.9474 47.862 18.9481Z" fill="#74B974"/>
<path d="M51.8954 24.4178C51.8308 24.4169 51.7675 24.3996 51.7114 24.3675C51.6552 24.3354 51.6082 24.2896 51.5746 24.2344C50.8513 23.3463 49.8851 22.688 48.7939 22.3399C48.7186 22.2937 48.6616 22.2228 48.6327 22.1393C48.6038 22.0558 48.6047 21.9648 48.6354 21.8819C48.666 21.799 48.7244 21.7293 48.8007 21.6847C48.877 21.6401 48.9664 21.6232 49.0537 21.6371C50.2988 22.0162 51.4009 22.7616 52.2163 23.7761C52.2438 23.8178 52.2626 23.8647 52.2713 23.9139C52.2801 23.9631 52.2787 24.0136 52.2673 24.0622C52.2558 24.1108 52.2346 24.1566 52.2048 24.1968C52.175 24.2369 52.1373 24.2705 52.0941 24.2956C52.0446 24.3587 51.9741 24.402 51.8954 24.4178Z" fill="#74B974"/>
<path d="M39.8867 33.8292C39.8276 33.828 39.7695 33.8137 39.7167 33.7873C39.6638 33.7609 39.6175 33.723 39.5811 33.6764L35.6546 28.2373C35.4799 27.9872 35.2527 27.7783 34.9887 27.6252C34.7248 27.4722 34.4306 27.3786 34.1268 27.3512H27.3585C27.2572 27.3512 27.1601 27.311 27.0884 27.2393C27.0168 27.1677 26.9766 27.0705 26.9766 26.9692C26.9766 26.8679 27.0168 26.7708 27.0884 26.6992C27.1601 26.6275 27.2572 26.5873 27.3585 26.5873H34.1573C34.582 26.6135 34.9951 26.7358 35.3656 26.9448C35.7361 27.1539 36.0543 27.4443 36.2963 27.7943L40.2075 33.2333C40.2369 33.2744 40.2577 33.3208 40.269 33.37C40.2803 33.4192 40.2817 33.4701 40.2731 33.5198C40.2646 33.5695 40.2463 33.6171 40.2193 33.6597C40.1923 33.7023 40.1572 33.7391 40.1159 33.7681C40.0454 33.8064 39.9669 33.8273 39.8867 33.8292Z" fill="#74B974"/>
<path d="M37.5034 30.7582H27.3739C27.2726 30.7582 27.1754 30.718 27.1038 30.6464C27.0322 30.5747 26.9919 30.4776 26.9919 30.3763C26.9919 30.275 27.0322 30.1778 27.1038 30.1062C27.1754 30.0346 27.2726 29.9943 27.3739 29.9943H37.5034C37.6047 29.9943 37.7018 30.0346 37.7735 30.1062C37.8451 30.1778 37.8853 30.275 37.8853 30.3763C37.8853 30.4776 37.8451 30.5747 37.7735 30.6464C37.7018 30.718 37.6047 30.7582 37.5034 30.7582Z" fill="#74B974"/>
<path d="M16.3124 34.1653H38.2978" stroke="#74B974" stroke-width="0.5" stroke-miterlimit="10"/>
<path d="M5.34265 33.0347L10.9651 33.7375C11.3782 33.7939 11.7988 33.7247 12.172 33.5389L14.1429 32.5611C14.4387 32.4079 14.695 32.1883 14.8916 31.9194L17.3514 28.5582C17.5773 28.3612 17.7403 28.1022 17.8201 27.8133C17.8999 27.5243 17.893 27.2183 17.8001 26.9333C17.7073 26.6483 17.5327 26.3969 17.2981 26.2104C17.0634 26.024 16.7791 25.9106 16.4805 25.8845L8.97888 23.8525L7.86357 24.4178" stroke="#74B974" stroke-width="0.5" stroke-linecap="round" stroke-linejoin="round"/>
<path d="M49.4815 33.0347L43.8591 33.7375C43.4459 33.7939 43.0254 33.7247 42.6521 33.5389L40.6812 32.5611C40.3854 32.4079 40.1291 32.1883 39.9326 31.9194L37.4728 28.5582C37.2463 28.3603 37.0832 28.0999 37.0041 27.8098C36.9249 27.5196 36.9331 27.2125 37.0278 26.927C37.1224 26.6415 37.2992 26.3903 37.536 26.2048C37.7728 26.0194 38.059 25.9079 38.3589 25.8845L45.8605 23.8525L46.9758 24.4178" stroke="#74B974" stroke-width="0.5" stroke-linecap="round" stroke-linejoin="round"/>
<path d="M52.1093 21.2704C51.5452 19.4481 50.7164 17.7184 49.6495 16.1369C49.1301 15.3578 47.5106 13.0813 47.5106 13.0813L42.7285 4.55602C42.3164 3.76753 41.7406 3.07614 41.0397 2.5281C40.3389 1.98005 39.5291 1.58799 38.6645 1.37814C37.1366 0.873954 17.1679 0.873954 15.6554 1.37814C14.7908 1.58799 13.981 1.98005 13.2801 2.5281C12.5793 3.07614 12.0035 3.76753 11.5914 4.55602L6.80928 13.0813C6.80928 13.0813 5.18978 15.3272 4.74671 16.1369C3.69218 17.728 2.88353 19.4689 2.34803 21.301C2.13957 23.6536 2.20623 26.0224 2.54664 28.3596L3.11194 34.4709C3.29528 37.8779 4.93005 38.2599 5.54118 38.2446H5.75508C7.82824 38.6856 9.94618 38.8804 12.065 38.8252C13.2748 38.6556 14.4298 38.2113 15.4415 37.5265C16.236 37.0376 17.0457 36.5793 17.2596 36.4723H37.1214C37.3353 36.5793 38.145 37.0376 38.9395 37.5265C39.9238 38.2592 41.0634 38.7558 42.2701 38.9779C44.389 39.0332 46.5069 38.8383 48.5801 38.3974H48.794C49.4051 38.3974 51.0399 38.0307 51.2232 34.6236L51.7885 28.5123C52.1842 26.1198 52.2919 23.6886 52.1093 21.2704Z" stroke="#74B974" stroke-miterlimit="10"/>
<path d="M47.1133 13.5702L41.6743 3.91434C41.6503 3.87011 41.6178 3.83106 41.5787 3.79942C41.5396 3.76779 41.4946 3.7442 41.4463 3.73C41.398 3.7158 41.3474 3.71128 41.2974 3.7167C41.2474 3.72211 41.1989 3.73736 41.1548 3.76156C40.9715 3.8685 40.8645 3.92962 40.9715 4.11296L46.3189 13.6772C42.8895 14.0591 39.4413 14.2479 35.9908 14.2424H18.2985C14.848 14.2467 11.3999 14.058 7.97043 13.6772L13.3331 4.15879C13.44 3.97545 13.3331 3.8685 13.1345 3.76156C13.0904 3.73736 13.0419 3.72211 12.9919 3.7167C12.9419 3.71128 12.8913 3.7158 12.843 3.73C12.7947 3.7442 12.7497 3.76779 12.7106 3.79942C12.6715 3.83106 12.639 3.87011 12.615 3.91434L7.17595 13.5396C7.13049 13.6242 7.10669 13.7187 7.10669 13.8147C7.10669 13.9106 7.13049 14.0051 7.17595 14.0897C7.21882 14.1746 7.28141 14.2481 7.35849 14.3039C7.43558 14.3598 7.52491 14.3963 7.61902 14.4105C11.1697 14.8122 14.7405 15.0111 18.3138 15.0064H35.9908C39.5641 15.0117 43.1349 14.8128 46.6856 14.4105C46.7824 14.3986 46.8748 14.3632 46.9547 14.3072C47.0346 14.2513 47.0996 14.1766 47.1439 14.0897C47.1796 14.0067 47.1954 13.9165 47.1901 13.8263C47.1848 13.7361 47.1585 13.6484 47.1133 13.5702Z" fill="#74B974"/>
<path d="M47.8009 48.3435C53.6231 48.3435 58.3429 43.6237 58.3429 37.8015C58.3429 31.9793 53.6231 27.2595 47.8009 27.2595C41.9787 27.2595 37.2589 31.9793 37.2589 37.8015C37.2589 43.6237 41.9787 48.3435 47.8009 48.3435Z" fill="white"/>
<path d="M47.8009 49.1074C45.5648 49.1074 43.3789 48.4444 41.5197 47.2021C39.6604 45.9597 38.2113 44.194 37.3556 42.1281C36.4999 40.0622 36.276 37.789 36.7122 35.5959C37.1485 33.4027 38.2253 31.3882 39.8064 29.807C41.3876 28.2259 43.4021 27.1491 45.5952 26.7128C47.7884 26.2766 50.0616 26.5005 52.1275 27.3562C54.1934 28.2119 55.9591 29.661 57.2014 31.5203C58.4438 33.3795 59.1068 35.5654 59.1068 37.8015C59.1028 40.7988 57.9103 43.6722 55.7909 45.7916C53.6715 47.9109 50.7982 49.1034 47.8009 49.1074ZM47.8009 28.0234C45.867 28.0234 43.9765 28.5969 42.3685 29.6713C40.7605 30.7458 39.5072 32.2729 38.7671 34.0596C38.0271 35.8463 37.8334 37.8124 38.2107 39.7091C38.588 41.6059 39.5193 43.3482 40.8868 44.7157C42.2543 46.0832 43.9965 47.0145 45.8933 47.3917C47.7901 47.769 49.7561 47.5754 51.5428 46.8353C53.3295 46.0952 54.8567 44.8419 55.9311 43.2339C57.0055 41.6259 57.579 39.7355 57.579 37.8015C57.575 35.2095 56.5435 32.7247 54.7106 30.8918C52.8777 29.059 50.393 28.0275 47.8009 28.0234Z" fill="#74B974"/>
<path d="M53.7136 37.221C53.5229 35.7126 52.7419 34.3414 51.542 33.4078C50.3421 32.4742 48.821 32.0544 47.312 32.2403C46.6657 32.3292 46.04 32.5309 45.4634 32.8361L44.6689 31.843L43.7522 35.2042L47.1134 34.8987L46.4259 34.0431C46.7689 33.9021 47.1282 33.8046 47.4954 33.7528C48.0431 33.6844 48.599 33.7245 49.1313 33.871C49.6635 34.0175 50.1617 34.2675 50.5973 34.6066C51.0329 34.9457 51.3974 35.3673 51.6699 35.8474C51.9425 36.3274 52.1178 36.8565 52.1858 37.4043C52.2735 38.1304 52.1735 38.8668 51.8955 39.5433C51.8235 39.7301 51.8262 39.9375 51.903 40.1224C51.9798 40.3073 52.1248 40.4555 52.308 40.5364C52.4036 40.558 52.5028 40.558 52.5983 40.5364C52.7484 40.5325 52.8946 40.4878 53.0211 40.407C53.1476 40.3263 53.2497 40.2125 53.3164 40.078C53.689 39.1748 53.8257 38.1916 53.7136 37.221Z" fill="#74B974"/>
<path d="M49.0537 41.9572L48.5037 42.0794C47.3981 42.2135 46.2844 41.9048 45.4056 41.2207C44.5269 40.5366 43.9544 39.5326 43.8132 38.4279C43.7507 37.8117 43.8078 37.1891 43.9813 36.5945C44.0094 36.4942 44.0174 36.3893 44.005 36.2859C43.9926 36.1825 43.9599 36.0825 43.9088 35.9917C43.8577 35.9009 43.7893 35.8211 43.7073 35.7567C43.6254 35.6924 43.5316 35.6448 43.4313 35.6167C43.331 35.5886 43.2261 35.5806 43.1227 35.593C43.0192 35.6055 42.9193 35.6381 42.8285 35.6892C42.7377 35.7403 42.6578 35.8087 42.5935 35.8907C42.5291 35.9726 42.4816 36.0664 42.4535 36.1667C42.2267 36.9604 42.1541 37.7902 42.2396 38.6113C42.4125 40.0112 43.0958 41.2982 44.1586 42.2257C45.2214 43.1532 46.589 43.656 47.9995 43.6378C48.2335 43.653 48.4683 43.653 48.7023 43.6378C49.2276 43.5687 49.7414 43.4299 50.2301 43.2253L51.1468 44.2642L52.0635 40.903L48.5495 41.3613L49.0537 41.9572Z" fill="#74B974"/>
</svg>
