<svg width="105" height="109" viewBox="0 0 105 109" fill="none" xmlns="http://www.w3.org/2000/svg">
<mask id="mask0" mask-type="alpha" maskUnits="userSpaceOnUse" x="0" y="0" width="105" height="109">
<rect width="105" height="109" fill="#C4C4C4"/>
</mask>
<g mask="url(#mask0)">
<path d="M18.0058 52.4032H17.5133L17.5059 52.8957C17.3815 61.1849 19.2404 67.3952 22.2145 72.0393C25.188 76.6822 29.2535 79.7246 33.4861 81.7158C41.5939 85.5302 50.3627 85.5072 53.3873 85.4993C53.5133 85.4989 53.6294 85.4986 53.735 85.4986C57.2115 85.4986 65.6153 85.0364 73.1683 81.4696C76.951 79.6832 80.5382 77.1097 83.1795 73.4089C85.8245 69.7032 87.5 64.8961 87.5 58.6828C87.5 51.3714 85.1162 46.2542 81.5553 42.8428C78.3968 39.8169 74.3496 38.1685 70.3175 37.4894C72.8618 36.6974 76.0575 35.3031 78.7895 32.8134C82.0799 29.8148 84.6663 25.2543 84.6663 18.3483C84.6663 13.2207 83.2257 6.99504 78.5384 2.04885C73.8443 -2.90459 65.9652 -6.5 53.2421 -6.5C38.9549 -6.5 30.5365 -1.8119 25.7089 4.51826C20.9009 10.8228 19.7235 18.6679 19.7235 24.8658V25.3658H20.2235H38.3345H38.8345V24.8658C38.8345 18.1852 40.5975 14.3855 43.0813 12.2399C45.5786 10.0826 48.9105 9.50247 52.2565 9.50247C57.697 9.50247 61.0007 11.128 62.9483 13.217C64.9052 15.3159 65.5553 17.9492 65.5553 20.0699C65.5553 22.5735 64.9814 24.4438 64.0825 25.8491C63.1832 27.2551 61.9371 28.2288 60.54 28.904C57.7258 30.2641 54.348 30.3913 52.1333 30.3913H45.6035H45.1035V30.8913V45.033V45.533H45.6035H54.2278C59.856 45.533 63.0839 47.1902 64.9184 49.3671C66.7666 51.5605 67.2802 54.3744 67.2802 56.8382C67.2802 58.3366 67.0372 61.5063 65.1488 64.2893C63.284 67.0375 59.7549 69.4962 52.9957 69.4962C46.8589 69.4962 43.0428 67.1645 40.7422 63.9704C38.4226 60.7497 37.6024 56.5929 37.6024 52.9032V52.4032H37.1024H18.0058Z" stroke="url(#paint0_linear)"/>
</g>
<defs>
<linearGradient id="paint0_linear" x1="18" y1="85" x2="85.1166" y2="85" gradientUnits="userSpaceOnUse">
<stop stop-color="#D87E40"/>
<stop offset="1" stop-color="#E7A94E"/>
</linearGradient>
</defs>
</svg>
