<svg width="105" height="114" viewBox="0 0 105 114" fill="none" xmlns="http://www.w3.org/2000/svg">
<mask id="mask0" mask-type="alpha" maskUnits="userSpaceOnUse" x="0" y="0" width="105" height="114">
<rect width="105" height="114" fill="#C4C4C4"/>
</mask>
<g mask="url(#mask0)">
<path d="M86.3759 69.9194V69.4194H85.8759H44.3117C47.9632 63.3974 53.6535 60.1798 62.4592 55.2007L62.548 55.1505L62.5498 55.1495C72.3227 49.5681 78.3193 44.3925 81.8688 39.1903C85.4286 33.973 86.5 28.7686 86.5 23.1944C86.5 16.395 84.6975 11.2381 81.9029 7.33788C79.1116 3.44229 75.3534 0.831939 71.4878 -0.917168C63.7703 -4.40921 55.5525 -4.5 53.4926 -4.5C39.548 -4.5 30.7744 -0.13451 25.4947 5.88363C20.2271 11.8881 18.5 19.4668 18.5 25.7903V28.3861V28.8861H19H37.9833H38.4833V28.3861V25.2958C38.4833 21.0222 39.9002 17.6069 42.3609 15.2588C44.8244 12.908 48.3827 11.5806 52.7481 11.5806C56.3956 11.5806 59.7439 12.4898 62.1709 14.4802C64.5819 16.4575 66.1444 19.5511 66.1444 24.0597C66.1444 26.8317 65.5937 29.0906 64.5332 31.098C63.4698 33.1107 61.8793 34.8979 59.7597 36.7047C57.6373 38.5138 55.0045 40.3262 51.8695 42.3987C51.0706 42.9268 50.2393 43.4717 49.3766 44.0373C46.862 45.6856 44.0798 47.5093 41.0505 49.6057C31.8513 55.8603 26.2964 60.9729 23.0475 65.9695C19.7843 70.988 18.8722 75.8509 18.8722 81.5389V85V85.5H19.3722H85.8759H86.3759V85V69.9194Z" stroke="url(#paint0_linear)"/>
</g>
<defs>
<linearGradient id="paint0_linear" x1="19" y1="85" x2="84.1712" y2="85" gradientUnits="userSpaceOnUse">
<stop stop-color="#D87E40"/>
<stop offset="1" stop-color="#E7A94E"/>
</linearGradient>
</defs>
</svg>
