<svg width="47" height="32" viewBox="0 0 47 32" fill="none" xmlns="http://www.w3.org/2000/svg">
<path d="M15.272 18.0818H9.02145C8.48017 18.0818 8.04199 17.6436 8.04199 17.1023C8.04199 16.561 8.48017 16.1357 9.02145 16.1357H15.272C15.8132 16.1357 16.2514 16.5739 16.2514 17.1023C16.2514 17.6436 15.8132 18.0818 15.272 18.0818Z" fill="#E37639"/>
<path d="M13.0419 31.9999H6.0052C4.90975 31.9999 4.02051 31.0848 4.02051 29.9507V25.6463C4.02051 25.105 4.45869 24.6797 4.99997 24.6797C5.54125 24.6797 5.97943 25.1179 5.97943 25.6463V29.9507L13.0547 30.0538C13.0547 29.5125 13.5058 29.0357 14.0471 29.0357C14.5884 29.0357 15.0394 29.4223 15.0394 29.9636C15.0137 31.072 14.1244 31.9999 13.0419 31.9999Z" fill="#E37639"/>
<path d="M39.1784 26.6902H7.01087C4.80709 26.6902 3.01571 24.8086 3.01571 22.4888V16.9085C3.01571 15.4522 3.41522 14.0345 4.17559 12.8102L4.47201 12.3205L1.81716 11.6116C0.811921 11.5472 0 10.658 0 9.57539V7.42316C0 6.28905 0.889247 5.37402 1.9847 5.37402H6.00564C6.54692 5.37402 6.9851 5.8122 6.9851 6.3406C6.9851 6.88188 6.54692 7.32006 6.00564 7.32006H1.9847L1.94603 9.57539C2.03625 9.57539 2.15224 9.69138 2.22956 9.71716L6.2505 10.7868C6.54692 10.8642 6.79178 11.0832 6.90777 11.3668C7.02376 11.6503 6.99799 11.9725 6.83045 12.2302L5.8381 13.8283C5.27104 14.7433 4.97463 15.8001 4.97463 16.8956V22.4759C4.97463 23.7131 5.88965 24.7313 7.02376 24.7313H39.1784C40.2996 24.7313 41.2275 23.7131 41.2275 22.4759V16.8956C41.2275 15.8001 40.9311 14.7433 40.3641 13.8283L39.3588 12.2431C39.1913 11.9854 39.1655 11.6632 39.2815 11.3797C39.3975 11.0961 39.6424 10.877 39.9388 10.7997L43.9597 9.73004C44.0371 9.70427 44.1273 9.69138 44.2046 9.69138L44.2433 7.43604L40.1836 7.33294C39.6424 7.33294 39.2042 6.89476 39.2042 6.35348C39.2042 5.82509 39.6424 5.38691 40.1836 5.38691H44.2046C45.3 5.38691 46.1764 6.30193 46.1764 7.43604V9.58828C46.1764 10.658 45.3645 11.5472 44.3464 11.6245L41.7044 12.3333L42.0008 12.8231C42.7612 14.0474 43.1607 15.4522 43.1607 16.9213V22.5017C43.1736 24.7957 41.3822 26.6902 39.1784 26.6902Z" fill="#E37639"/>
<path d="M34.1526 11.6246H12.0375C11.9086 11.6246 11.7797 11.5989 11.6637 11.5473L7.64278 9.87193C7.15305 9.66573 6.90819 9.11156 7.11439 8.60894C8.09385 6.18607 9.79502 2.03625 10.2719 1.43053C10.942 0.592831 12.0761 0 13.0427 0H33.1474C34.114 0 35.2481 0.592831 35.9183 1.44342C36.3951 2.04913 38.0963 6.19895 39.0757 8.62183C39.269 9.11156 39.0371 9.67861 38.5473 9.88482L34.5264 11.5602C34.4104 11.5989 34.2815 11.6246 34.1526 11.6246ZM12.2308 9.67861H33.9593L36.9106 8.45429C35.8152 5.74788 34.6424 3.02859 34.3846 2.62908C34.1011 2.26822 33.5212 1.94603 33.1474 1.94603H13.0427C12.669 1.94603 12.089 2.28111 11.7926 2.65485C11.5349 3.02859 10.375 5.76077 9.27951 8.46718L12.2308 9.67861Z" fill="#E37639"/>
<path d="M37.1684 18.0818H30.9179C30.3895 18.0818 29.9385 17.6436 29.9385 17.1023C29.9385 16.561 30.3767 16.1357 30.9179 16.1357H37.1684C37.7097 16.1357 38.1479 16.5739 38.1479 17.1023C38.1479 17.6436 37.7097 18.0818 37.1684 18.0818Z" fill="#E37639"/>
<path d="M40.1835 31.9999H33.1468C32.0514 31.9999 31.1621 31.0848 31.1621 29.9507C31.1621 29.4094 31.6003 28.9713 32.1416 28.9713C32.6828 28.9713 33.121 29.4094 33.121 29.9507L40.1963 30.0538L40.235 25.6463C40.235 25.105 40.6732 24.6797 41.2145 24.6797C41.7557 24.6797 42.181 25.1179 42.181 25.6463V29.9507C42.1553 31.072 41.2789 31.9999 40.1835 31.9999Z" fill="#E37639"/>
<path d="M32.1419 22.3855H14.0476C13.5063 22.3855 13.0811 21.9473 13.0811 21.406C13.0811 20.8647 13.5192 20.4395 14.0476 20.4395H32.1419C32.6831 20.4395 33.1213 20.8776 33.1213 21.406C33.1084 21.9473 32.6831 22.3855 32.1419 22.3855Z" fill="#E37639"/>
</svg>
