<svg width="37" height="41" viewBox="0 0 37 41" fill="none" xmlns="http://www.w3.org/2000/svg">
<path d="M31.2 34L26.2 32.8C25.4 32.6 24.6 32.2 24.4 31.4C27.4 30 30.4 27.8 30.4 24V21.8C30.4 21.2 30 20.8 29.4 20.8C28.8 20.8 28.4 21.2 28.4 21.8V24C28.4 26.6 26.4 28.2 24.2 29.4V28.4C26 27.4 27.6 26 27.6 24V21L29 19.6C29.2 19.4 29.2 19.2 29.2 19V15.6C29.2 15.4 29.2 15.2 29 15L27.6 13.6V10.6C27.6 5.79999 24.6 2.79999 19.8 2.79999H16.4C11.6 2.79999 8.6 5.79999 8.6 10.6V13.6L7.2 15C7 15.2 7 15.4 7 15.6V19C7 19.2 7 19.4 7.2 19.6L8.6 21V24C8.6 26 10.2 27.4 12 28.4V30.8C12 31.8 11 32.4 10 32.6L5 34C2.4 34.6 0.2 37.2 0 39.4C0 40 0.4 40.4 1 40.4C1.6 40.4 2 40 2 39.4C2 38.2 3.6 36.4 5.6 35.8L10.6 34.4C12.2 34 14 32.6 14 30.8V29.2C15.8 29.8 17.6 30 18.2 30C18.8 30 20.6 29.8 22.4 29.2V30.2C20.6 30.8 19 31 18.2 31C17.6 31 17.2 31.4 17.2 32C17.2 32.6 17.6 33 18.2 33C19.2 33 20.8 32.8 22.6 32.2C23.2 33.4 24.4 34.4 25.6 34.8L30.6 36.2C32.6 36.6 34.2 38.6 34.2 39.8C34.2 40.4 34.6 40.8 35.2 40.8C35.8 40.8 36.2 40.4 36.2 39.8C36.2 37.2 33.8 34.8 31.2 34ZM10.6 24V20.6V13.8V10.4C10.6 6.79999 12.8 4.59999 16.4 4.59999H19.8C23.4 4.59999 25.6 6.79999 25.6 10.4V13.8V20.6V24C25.6 26.6 19.6 28.2 18 28.2C16.6 28.2 10.6 26.8 10.6 24Z" fill="#E37639"/>
<path d="M7.00027 13.6C7.60027 13.6 8.00027 13.2 8.00027 12.6V10.4C8.00027 5.2 11.4003 1.8 16.6003 1.8H20.0003C25.2003 1.8 28.6003 5.2 28.6003 10.4V12.6C28.6003 13.2 29.0003 13.6 29.6003 13.6C30.2003 13.6 30.6003 13.2 30.6003 12.6V10.4C30.6003 4.2 26.4003 0 20.2003 0H16.8003C10.6003 0 6.40027 4.2 6.40027 10.4V12.6C6.00027 13.2 6.40027 13.6 7.00027 13.6Z" fill="#E37639"/>
</svg>
