<svg width="41" height="41" viewBox="0 0 41 41" fill="none" xmlns="http://www.w3.org/2000/svg">
<g clip-path="url(#clip0)">
<path d="M36.9156 -0.00048828H23.6255C23.3306 -0.00048828 23.0478 0.116649 22.8393 0.325156C22.6308 0.533662 22.5137 0.816457 22.5137 1.11133C22.5067 1.26163 22.5302 1.41178 22.583 1.5527C22.6357 1.69362 22.7165 1.82237 22.8204 1.93115C22.9244 2.03993 23.0493 2.12649 23.1877 2.18557C23.3261 2.24465 23.475 2.27502 23.6255 2.27486H36.9156C37.1649 2.27477 37.4044 2.37201 37.5831 2.54586C37.7618 2.71972 37.8655 2.95647 37.8723 3.20569V16.4958C37.8723 16.7907 37.9894 17.0735 38.1979 17.282C38.4064 17.4905 38.6892 17.6076 38.9841 17.6076C39.2789 17.6076 39.5617 17.4905 39.7703 17.282C39.9788 17.0735 40.0959 16.7907 40.0959 16.4958V3.20569C40.0993 2.78587 40.0196 2.36953 39.8613 1.98069C39.703 1.59185 39.4693 1.23819 39.1736 0.940128C38.8779 0.642064 38.5262 0.405489 38.1386 0.244048C37.7511 0.0826081 37.3354 -0.000502155 36.9156 -0.00048828" fill="#E37639"/>
<path d="M25.6682 14.4517C25.7655 14.5605 25.8852 14.6469 26.0192 14.705C26.1531 14.763 26.298 14.7913 26.4439 14.7878C26.5932 14.7885 26.7412 14.7591 26.8789 14.7013C27.0166 14.6436 27.1413 14.5587 27.2455 14.4517L29.5467 12.1764L31.822 14.4517C31.9262 14.5587 32.0509 14.6436 32.1886 14.7013C32.3263 14.7591 32.4742 14.7885 32.6236 14.7878C32.7695 14.7913 32.9144 14.763 33.0483 14.705C33.1823 14.6469 33.302 14.5605 33.3992 14.4517C33.5024 14.3506 33.5844 14.2299 33.6404 14.0967C33.6964 13.9635 33.7252 13.8205 33.7252 13.676C33.7252 13.5315 33.6964 13.3885 33.6404 13.2553C33.5844 13.1221 33.5024 13.0014 33.3992 12.9003L31.1239 10.5991L33.4251 8.29792C33.5283 8.19681 33.6103 8.07612 33.6663 7.94293C33.7222 7.80974 33.751 7.66671 33.751 7.52224C33.751 7.37776 33.7222 7.23474 33.6663 7.10154C33.6103 6.96835 33.5283 6.84766 33.4251 6.74655C33.3218 6.64257 33.1989 6.56006 33.0636 6.50375C32.9282 6.44744 32.7831 6.41846 32.6365 6.41846C32.4899 6.41846 32.3448 6.44744 32.2094 6.50375C32.0741 6.56006 31.9512 6.64257 31.8479 6.74655L29.5725 9.0219L27.2713 6.74655C27.168 6.64257 27.0451 6.56006 26.9098 6.50375C26.7744 6.44744 26.6293 6.41846 26.4827 6.41846C26.3361 6.41846 26.191 6.44744 26.0556 6.50375C25.9203 6.56006 25.7974 6.64257 25.6941 6.74655C25.5909 6.84766 25.5089 6.96835 25.4529 7.10154C25.397 7.23474 25.3681 7.37776 25.3681 7.52224C25.3681 7.66671 25.397 7.80974 25.4529 7.94293C25.5089 8.07612 25.5909 8.19681 25.6941 8.29792L27.9953 10.5991L25.6682 12.9262C25.565 13.0273 25.4831 13.148 25.4271 13.2812C25.3711 13.4144 25.3423 13.5574 25.3423 13.7019C25.3423 13.8464 25.3711 13.9894 25.4271 14.1226C25.4831 14.2558 25.565 14.3765 25.6682 14.4776" fill="#E37639"/>
<path d="M10.6456 24.0176C10.3507 24.0176 10.0679 24.1347 9.85943 24.3432C9.65093 24.5517 9.53379 24.8345 9.53379 25.1294V28.439H6.30176C6.00689 28.439 5.72409 28.5561 5.51559 28.7646C5.30708 28.9731 5.18994 29.2559 5.18994 29.5508C5.18994 29.8457 5.30708 30.1285 5.51559 30.337C5.72409 30.5455 6.00689 30.6626 6.30176 30.6626H9.53379V33.8947C9.53379 34.1895 9.65093 34.4723 9.85943 34.6808C10.0679 34.8893 10.3507 35.0065 10.6456 35.0065C10.9405 35.0065 11.2233 34.8893 11.4318 34.6808C11.6403 34.4723 11.7574 34.1895 11.7574 33.8947V30.5851H15.0153C15.3102 30.5851 15.593 30.4679 15.8015 30.2594C16.01 30.0509 16.1271 29.7681 16.1271 29.4732C16.1271 29.1784 16.01 28.8956 15.8015 28.6871C15.593 28.4786 15.3102 28.3614 15.0153 28.3614H11.7574V25.1294C11.7574 24.8345 11.6403 24.5517 11.4318 24.3432C11.2233 24.1347 10.9405 24.0176 10.6456 24.0176Z" fill="#E37639"/>
<path d="M16.5666 37.8H3.25065C3.00378 37.8 2.76702 37.702 2.59246 37.5274C2.4179 37.3528 2.31983 37.1161 2.31983 36.8692V23.5791C2.31983 23.2842 2.20269 23.0014 1.99418 22.7929C1.78568 22.5844 1.50288 22.4673 1.20801 22.4673C0.913137 22.4673 0.630342 22.5844 0.421835 22.7929C0.213329 23.0014 0.0961914 23.2842 0.0961914 23.5791L0.0961914 36.8692C0.0961914 37.7058 0.428535 38.5082 1.02011 39.0998C1.61169 39.6913 2.41404 40.0237 3.25065 40.0237H16.5666C16.8615 40.0237 17.1443 39.9065 17.3528 39.698C17.5613 39.4895 17.6784 39.2067 17.6784 38.9119C17.6784 38.617 17.5613 38.3342 17.3528 38.1257C17.1443 37.9172 16.8615 37.8 16.5666 37.8Z" fill="#E37639"/>
<path d="M36.9413 18.9258H3.32822C3.08135 18.9258 2.84459 18.8277 2.67003 18.6532C2.49547 18.4786 2.3974 18.2418 2.3974 17.995V3.15348C2.39658 2.91948 2.48393 2.69376 2.64205 2.52127C2.80018 2.34877 3.01746 2.24216 3.25065 2.22266H18.0404C18.2897 2.22257 18.5292 2.3198 18.7079 2.49366C18.8866 2.66752 18.9904 2.90426 18.9971 3.15348V16.4694C19.0375 16.7319 19.1705 16.9713 19.3721 17.1442C19.5736 17.3171 19.8304 17.4122 20.096 17.4122C20.3616 17.4122 20.6184 17.3171 20.8199 17.1442C21.0215 16.9713 21.1545 16.7319 21.1949 16.4694V3.15348C21.1949 2.31687 20.8625 1.51452 20.271 0.922944C19.6794 0.331367 18.877 -0.000976562 18.0404 -0.000976562L3.25065 -0.000976562C2.41404 -0.000976562 1.61169 0.331367 1.02011 0.922944C0.428535 1.51452 0.0961914 2.31687 0.0961914 3.15348L0.0961914 17.9433C0.0961914 18.7799 0.428535 19.5822 1.02011 20.1738C1.61169 20.7654 2.41404 21.0977 3.25065 21.0977H36.8638C37.1131 21.0976 37.3526 21.1949 37.5313 21.3687C37.7099 21.5426 37.8137 21.7793 37.8204 22.0285V36.8183C37.8137 37.0675 37.7099 37.3043 37.5313 37.4781C37.3526 37.652 37.1131 37.7492 36.8638 37.7491H22.1516C22.0272 37.7526 21.9033 37.7311 21.7874 37.6858C21.6715 37.6406 21.5658 37.5726 21.4766 37.4858C21.3874 37.399 21.3165 37.2952 21.2681 37.1806C21.2197 37.0659 21.1948 36.9427 21.1949 36.8183V23.5799C21.1949 23.285 21.0777 23.0022 20.8692 22.7937C20.6607 22.5852 20.3779 22.4681 20.0831 22.4681C19.7882 22.4681 19.5054 22.5852 19.2969 22.7937C19.0884 23.0022 18.9712 23.285 18.9712 23.5799V36.87C18.9781 37.709 19.3161 38.5113 19.9118 39.1021C20.5075 39.693 21.3125 40.0245 22.1516 40.0245H36.9155C37.7545 40.0245 38.5595 39.693 39.1552 39.1021C39.7509 38.5113 40.089 37.709 40.0958 36.87V22.0802C40.0958 21.666 40.0142 21.2558 39.8557 20.8731C39.6971 20.4904 39.4648 20.1426 39.1719 19.8497C38.879 19.5568 38.5312 19.3244 38.1485 19.1659C37.7658 19.0074 37.3556 18.9258 36.9413 18.9258Z" fill="#E37639"/>
<path d="M25.2539 32.5288H33.7089C34.0038 32.5288 34.2866 32.4117 34.4951 32.2032C34.7036 31.9947 34.8207 31.7119 34.8207 31.417C34.8207 31.1221 34.7036 30.8393 34.4951 30.6308C34.2866 30.4223 34.0038 30.3052 33.7089 30.3052H25.2539C24.959 30.3052 24.6762 30.4223 24.4677 30.6308C24.2592 30.8393 24.1421 31.1221 24.1421 31.417C24.1421 31.7119 24.2592 31.9947 24.4677 32.2032C24.6762 32.4117 24.959 32.5288 25.2539 32.5288Z" fill="#E37639"/>
<path d="M25.2539 28.6504H33.7089C34.0038 28.6504 34.2866 28.5333 34.4951 28.3247C34.7036 28.1162 34.8207 27.8334 34.8207 27.5386C34.8207 27.2437 34.7036 26.9609 34.4951 26.7524C34.2866 26.5439 34.0038 26.4268 33.7089 26.4268H25.2539C24.959 26.4268 24.6762 26.5439 24.4677 26.7524C24.2592 26.9609 24.1421 27.2437 24.1421 27.5386C24.1421 27.8334 24.2592 28.1162 24.4677 28.3247C24.6762 28.5333 24.959 28.6504 25.2539 28.6504Z" fill="#E37639"/>
<path d="M16.5926 10.5498C16.5945 10.276 16.4952 10.0112 16.3139 9.80602C16.1326 9.60087 15.882 9.46982 15.6101 9.43799H5.81055C5.51774 9.44457 5.23876 9.56382 5.03166 9.77092C4.82456 9.97801 4.70531 10.257 4.69873 10.5498C4.69873 10.8447 4.81587 11.1275 5.02437 11.336C5.23288 11.5445 5.51568 11.6616 5.81055 11.6616H15.6101C15.9049 11.6616 16.1877 11.5445 16.3962 11.336C16.6047 11.1275 16.7219 10.8447 16.7219 10.5498" fill="#E37639"/>
<path d="M11.0075 7.7583C11.3003 7.75172 11.5793 7.63247 11.7864 7.42537C11.9935 7.21828 12.1127 6.93929 12.1193 6.64649C12.1193 6.35161 12.0022 6.06882 11.7937 5.86031C11.5852 5.65181 11.3024 5.53467 11.0075 5.53467H10.1025C9.80767 5.53467 9.52487 5.65181 9.31637 5.86031C9.10786 6.06882 8.99072 6.35161 8.99072 6.64649C8.99072 6.94136 9.10786 7.22415 9.31637 7.43266C9.52487 7.64117 9.80767 7.7583 10.1025 7.7583H11.0075Z" fill="#E37639"/>
<path d="M10.1025 13.3174C9.80767 13.3174 9.52487 13.4345 9.31637 13.643C9.10786 13.8515 8.99072 14.1343 8.99072 14.4292C8.99748 14.7195 9.11759 14.9957 9.32537 15.1987C9.53315 15.4016 9.81209 15.5152 10.1025 15.5151H11.0075C11.3024 15.5151 11.5852 15.398 11.7937 15.1895C12.0022 14.981 12.1193 14.6982 12.1193 14.4033C12.1193 14.1085 12.0022 13.8257 11.7937 13.6171C11.5852 13.4086 11.3024 13.2915 11.0075 13.2915L10.1025 13.3174Z" fill="#E37639"/>
</g>
<defs>
<clipPath id="clip0">
<rect width="39.9996" height="40.0255" fill="white" transform="translate(0.0961914)"/>
</clipPath>
</defs>
</svg>
