<svg width="24" height="24" viewBox="0 0 24 24" fill="none" xmlns="http://www.w3.org/2000/svg">
<path d="M4 7.99442C4 8.66388 4.24547 9.40028 4.55788 10.1813C4.87029 10.9623 5.27197 11.6987 5.58438 12.2566C6.43236 13.7294 7.5258 15.1799 8.77545 16.3849C10.0251 17.59 11.4979 18.5941 13.1492 19.1967C14.1088 19.576 15.0683 20 16.1395 20C16.675 20 17.4338 19.7992 18.1255 19.5091C18.795 19.219 19.3975 18.7727 19.6206 18.2371C19.7099 18.0363 19.8215 17.7685 19.8884 17.4561C19.9554 17.166 20 16.8759 20 16.675C20 16.5635 20 16.4519 19.9777 16.4296C19.9107 16.2957 19.7545 16.1841 19.576 16.0725C19.1743 15.8717 19.1074 15.8047 18.5049 15.4477C17.8801 15.0907 17.2329 14.689 16.675 14.3989C16.4073 14.2427 16.2287 14.1757 16.1618 14.1757C15.8047 14.1757 15.3584 14.6667 14.9791 15.2022C14.5774 15.7378 14.1311 16.2287 13.8187 16.2287C13.6625 16.2287 13.5063 16.1618 13.3278 16.0502C13.1492 15.9386 12.9707 15.8494 12.8591 15.7824C10.8954 14.6667 9.5788 13.3501 8.46304 11.4086C8.32915 11.1855 8.01674 10.7169 8.01674 10.4714C8.01674 10.1813 8.41841 9.84658 8.82008 9.48954C9.19944 9.15481 9.60112 8.75314 9.60112 8.2622C9.60112 8.19526 9.55649 7.99442 9.46722 7.70432C9.26639 7.12413 8.99861 6.45467 8.77545 5.80753C8.66388 5.49512 8.57462 5.27197 8.5523 5.16039C8.50767 5.09344 8.48536 5.00418 8.46304 4.89261C8.44073 4.78103 8.39609 4.69177 8.37378 4.60251C8.30683 4.40167 8.19526 4.24547 8.08368 4.15621C7.97211 4.11158 7.70432 4.04463 7.43654 4.02232C7.16876 4.02232 6.85635 4 6.72245 4C6.65551 4 6.56625 4 6.47699 4.02232H6.18689C5.4728 4.33473 4.95955 4.95955 4.5802 5.69596C4.22315 6.43236 4 7.25802 4 7.99442Z" fill="#ED6B21"/>
</svg>
